<svg xmlns="http://www.w3.org/2000/svg" viewBox="0 0 480 480"><path fill="none" stroke="#7d8395" stroke-linecap="round" stroke-linejoin="round" stroke-width="3.3" d="M36.38,353.89c6.38,0,9.58-2.67,12.67-5.25,2.92-2.44,5.69-4.75,11.28-4.75s8.36,2.31,11.28,4.75c3.09,2.58,6.29,5.25,12.67,5.25s9.58-2.67,12.67-5.25c2.92-2.44,5.69-4.75,11.28-4.75s8.36,2.31,11.28,4.75c3.09,2.58,6.29,5.25,12.67,5.25s9.58-2.67,12.67-5.25c2.92-2.44,5.69-4.75,11.28-4.75s8.36,2.31,11.28,4.75c3.09,2.58,6.29,5.25,12.67,5.25s9.58-2.67,12.67-5.25c2.92-2.44,5.69-4.75,11.28-4.75s8.36,2.31,11.28,4.75c3.09,2.58,6.29,5.25,12.67,5.25s9.58-2.67,12.67-5.25c2.92-2.44,5.69-4.75,11.28-4.75s8.36,2.31,11.28,4.75c3.09,2.58,6.29,5.25,12.67,5.25s9.58-2.67,12.67-5.25c2.92-2.44,5.69-4.75,11.28-4.75s8.36,2.31,11.29,4.75c3.09,2.58,6.29,5.25,12.67,5.25s9.58-2.67,12.67-5.25c2.92-2.44,5.69-4.75,11.28-4.75s8.36,2.31,11.29,4.75c3.09,2.58,6.29,5.25,12.67,5.25s9.58-2.67,12.67-5.25c2.92-2.44,5.69-4.75,11.29-4.75s8.36,2.31,11.29,4.75c3.09,2.58,6.29,5.25,12.67,5.25s9.58-2.67,12.67-5.25c2.93-2.44,5.69-4.75,11.29-4.75"/><path fill="none" stroke="#7d8395" stroke-linecap="round" stroke-linejoin="round" stroke-width="3.3" d="M347.78,163.89c-6.38,0-9.58,2.67-12.67,5.25-2.92,2.44-5.69,4.75-11.29,4.75s-8.36-2.31-11.29-4.75c-3.09-2.58-6.29-5.25-12.67-5.25s-9.58,2.67-12.67,5.25c-2.92,2.44-5.69,4.75-11.28,4.75s-8.36-2.31-11.28-4.75c-3.09-2.58-6.29-5.25-12.67-5.25s-9.58,2.67-12.67,5.25c-2.92,2.44-5.69,4.75-11.28,4.75s-8.36-2.31-11.28-4.75c-3.09-2.58-6.29-5.25-12.67-5.25s-9.58,2.67-12.67,5.25c-2.92,2.44-5.69,4.75-11.28,4.75s-8.36-2.31-11.28-4.75c-3.09-2.58-6.29-5.25-12.67-5.25s-9.58,2.67-12.67,5.25c-2.92,2.44-5.69,4.75-11.28,4.75"/><polygon fill="#fafafa" points="238.63 232.75 249.75 126.11 171.47 218.11 238.63 232.75"/><polygon fill="#fafafa" points="313.13 282.49 155.46 266.04 121.71 207.26 238.63 232.75 358.29 231.93 313.13 282.49"/><polygon fill="#fafafa" points="238.63 232.75 249.75 126.11 307.36 232.28 238.63 232.75"/><line x1="249.75" x2="171.47" y1="126.11" y2="218.11" fill="none" stroke="#7d8395" stroke-linecap="round" stroke-linejoin="round" stroke-width="2.77"/><line x1="249.75" x2="307.36" y1="126.11" y2="232.28" fill="none" stroke="#7d8395" stroke-linecap="round" stroke-linejoin="round" stroke-width="2.77"/><polygon fill="none" stroke="#7d8395" stroke-linecap="round" stroke-linejoin="round" stroke-width="2.77" points="313.13 282.49 155.46 266.04 121.71 207.26 238.63 232.75 358.29 231.93 313.13 282.49"/><line x1="238.73" x2="249.62" y1="231.82" y2="127.36" fill="none" stroke="#7d8395" stroke-linecap="round" stroke-linejoin="round" stroke-width="2.77"/><path fill="none" stroke="#7d8395" stroke-linecap="round" stroke-linejoin="round" stroke-width="3.3" d="M332.32,261.73c1.56-.91,2.88-2.01,4.18-3.09,2.92-2.44,5.69-4.75,11.28-4.75s8.36,2.31,11.29,4.75c3.09,2.58,6.29,5.25,12.67,5.25s9.58-2.67,12.67-5.25c2.92-2.44,5.69-4.75,11.29-4.75"/><path fill="none" stroke="#7d8395" stroke-linecap="round" stroke-linejoin="round" stroke-width="3.3" d="M84.29,263.89c6.38,0,9.58-2.67,12.67-5.25,2.92-2.44,5.69-4.75,11.28-4.75s8.36,2.31,11.28,4.75c3.09,2.58,6.29,5.25,12.67,5.25s9.58-2.67,12.67-5.25c1.21-1.01,2.39-1.99,3.75-2.8"/></svg>