<?xml version="1.0" ?>
<!-- Uploaded to: SVG Repo, www.svgrepo.com, Generator: SVG Repo Mixer Tools -->
<svg width="800px" height="800px" viewBox="0 0 32 32" xmlns="http://www.w3.org/2000/svg">
<defs>
<style>.cls-1{fill:#5f7cf9;}.cls-2{fill:#8c9eff;}.cls-3{fill:#4062ed;}.cls-4{fill:#2f58dd;}</style>
</defs>
<title/>
<g id="Image">
<rect class="cls-1" height="20" rx="1" ry="1" width="28" x="2" y="6"/>
<path class="cls-2" d="M30,16.58V25a1,1,0,0,1-1,1H3a1,1,0,0,1-1-1v-.5l12.4-9.3a1,1,0,0,1,1.2,0l3.31,2.48,5.38-5.39a1,1,0,0,1,1.42,0Z"/>
<path class="cls-3" d="M19,13a1,1,0,0,1-.38-.08,1.15,1.15,0,0,1-.33-.21,1,1,0,0,1-.21-1.09.9.9,0,0,1,.54-.54.93.93,0,0,1,.57-.06.6.6,0,0,1,.19.06.76.76,0,0,1,.18.09l.15.12a1.15,1.15,0,0,1,.21.33,1,1,0,0,1-.21,1.09,1.15,1.15,0,0,1-.33.21A1,1,0,0,1,19,13Z"/>
<path class="cls-3" d="M29,6H19V26H29a1,1,0,0,0,1-1V7A1,1,0,0,0,29,6Z"/>
<path class="cls-4" d="M19.71,11.29l-.15-.12a.76.76,0,0,0-.18-.09.6.6,0,0,0-.19-.06H19v2a1,1,0,0,0,.38-.08,1.15,1.15,0,0,0,.33-.21,1,1,0,0,0,.21-1.09A1.15,1.15,0,0,0,19.71,11.29Z"/>
<path class="cls-1" d="M24.29,12.29,19,17.59V26H29a1,1,0,0,0,1-1V16.58l-4.29-4.29A1,1,0,0,0,24.29,12.29Z"/>
</g>
</svg>