
<svg width="800px" height="800px" viewBox="0 0 800 800" version="1.1" xmlns="http://www.w3.org/2000/svg" xmlns:xlink="http://www.w3.org/1999/xlink">
    <g stroke="none" stroke-width="1" fill="none" fill-rule="evenodd">
        <g fill-rule="nonzero">
            <path d="M800,680 C800,746.277333 746.274667,800 680,800 L120,800 C53.7226667,800 0,746.277333 0,680 L0,120 C0,53.7253333 53.7253333,0 120,0 L680,0 C746.274667,0 800,53.7253333 800,120 L800,680 Z"></path>
            <g transform="translate(52.2178, 101.1193)" fill="#FCFCFC" fill-opacity="0.6">
                <path d="M483.256818,197.227324 C418.688818,200.600657 362.542151,220.173991 316.958151,264.395324 C270.902151,309.072657 249.878151,363.819324 255.624818,431.685991 C230.387485,428.560657 207.400818,425.120657 184.283485,423.173991 C176.299485,422.501991 166.824818,423.456657 160.062151,427.272657 C137.614151,439.939324 116.094151,454.240657 90.5874848,470.184657 C95.2674848,449.016657 98.2968181,430.480657 103.659485,412.651324 C107.603485,399.547324 105.776818,392.253991 93.7048181,383.720657 C16.1954848,328.997991 -16.4765152,247.101991 7.97415144,162.787324 C30.5954848,84.7873239 86.1474848,37.4833239 161.630151,12.8246573 C264.656818,-20.8286761 380.440818,13.4993239 443.088818,95.2966573 C465.715485,124.843324 479.590151,158.005991 483.256818,197.227324 Z M186.091485,170.955324 C186.686151,155.533991 173.323485,141.640657 157.451485,141.176657 C141.200818,140.699324 127.835485,153.117991 127.360818,169.131324 C126.880818,185.360657 139.294151,198.365991 155.662151,198.781991 C171.888818,199.192657 185.491485,186.757991 186.091485,170.955324 Z M341.134151,141.165991 C325.203485,141.459324 311.742151,155.027324 312.024818,170.509991 C312.315485,186.557991 325.520818,199.112657 341.902151,198.915324 C358.326151,198.717991 370.782151,186.029991 370.627485,169.643324 C370.491485,153.557991 357.344818,140.869991 341.134151,141.165991 Z"></path>
                <path d="M628.318151,599.760657 C607.872818,590.656657 589.118151,576.997991 569.150151,574.912657 C549.259485,572.835324 528.350151,584.309991 507.539485,586.437991 C444.150151,592.923324 387.360818,575.256657 340.534151,531.952657 C251.475485,449.579324 264.200818,323.275324 367.238151,255.771324 C458.814151,195.776657 593.115485,215.776657 657.680818,299.021991 C714.024818,371.661991 707.403485,468.088657 638.619485,529.112657 C618.715485,546.773991 611.552818,561.307324 624.323485,584.589991 C626.680818,588.888657 626.950151,594.331324 628.318151,599.760657 L628.318151,599.760657 Z M395.587485,374.430004 C408.603485,374.443324 419.320818,364.256657 419.814151,351.400657 C420.334151,337.789991 409.387485,326.373991 395.758151,326.317748 C382.264818,326.256657 370.960818,337.832657 371.430151,351.240657 C371.872818,364.051324 382.664818,374.413991 395.587485,374.430004 Z M545.616818,326.371324 C532.987485,326.283324 522.256818,336.621991 521.742151,349.381991 C521.195485,363.027324 531.800818,374.232657 545.304818,374.267462 C558.366151,374.309991 568.686151,364.432657 569.160818,351.435324 C569.667485,337.757991 559.056818,326.464657 545.616818,326.371324 L545.616818,326.371324 Z"></path>
            </g>
        </g>
    </g>
</svg>