<svg xmlns="http://www.w3.org/2000/svg" xmlns:xlink="http://www.w3.org/1999/xlink" version="1.1">
  <symbol viewBox="0 0 1024 1024" id="csharp">
    <path d="M999.36 731.456L1024 423.04V356.544h-61.568L975.616 192H616.768l-8.448 105.408-7.168-14.208C557.44 196.416 414.08 192 385.792 192 230.4 192 64 284.48 64 544S230.4 896 385.792 896a293.568 293.568 0 0 0 179.52-61.568L560.384 896h358.848l13.184-164.544z" fill="#F4F4F4"></path>
    <path d="M257.856 544c0 140.416 71.936 195.648 140.16 195.648a163.52 163.52 0 0 0 108.16-35.008l30.272 64.96A195.52 195.52 0 0 1 385.856 832C312.384 832 128 807.232 128 544S312.384 256 385.856 256c47.296 0 136.192 12.416 158.144 56L506.176 383.36a160 160 0 0 0-108.16-35.008c-73.088 0-140.16 52.16-140.16 195.648z m696.128-48L960 420.544h-66.944L906.24 256h-76.8l-13.184 164.544h-76.8L752.64 256h-76.8l-13.184 164.544H595.776L589.696 496h66.944l-7.68 96H582.016L576 667.456h66.944L629.76 832h76.8l13.184-164.544h76.8L783.36 832h76.8l13.184-164.544h66.944l6.016-75.456H879.36l7.68-96z m-151.424 96h-76.8l7.68-96h76.8z" fill="#388A34"></path>
  </symbol>
  <symbol viewBox="0 0 1024 1024" id="divemask">
    <path d="M576 138.666667a53.333333 53.333333 0 0 1 53.226667 49.834666l0.106666 3.498667v85.333333h-64v-74.666666h-234.666666v74.666666h-64v-85.333333a53.333333 53.333333 0 0 1 49.834666-53.205333L320 138.666667h256z" fill="#BED5FF"></path>
    <path d="M618.666667 245.333333H277.333333l-6.122666 0.085334C149.824 248.938667 53.333333 348.096 53.333333 469.333333c0 123.733333 100.288 224 224 224l6.826667-0.085333a223.744 223.744 0 0 0 162.474667-77.184l1.344-1.664 1.386666 1.664A223.786667 223.786667 0 0 0 618.666667 693.333333c123.712 0 224-100.266667 224-224 0-123.712-100.288-224-224-224z m-340.864 64H618.666667a160 160 0 1 1-142.250667 233.344c-11.925333-23.061333-44.928-23.061333-56.853333 0a160 160 0 1 1-146.986667-233.28l5.226667-0.064z" fill="#2674FD"></path>
    <path d="M938.666667 20.352a32 32 0 0 1 31.850666 28.928L970.666667 52.352v459.221333c0 211.776-171.669333 383.445333-383.445334 383.445334a32 32 0 0 1 0-64c174.186667 0 315.818667-139.413333 319.36-312.746667l0.085334-6.698667V52.352A32 32 0 0 1 938.666667 20.352z" fill="#2674FD"></path>
    <path d="M256 757.333333m42.666667 0l298.666666 0q42.666667 0 42.666667 42.666667l0 128q0 42.666667-42.666667 42.666667l-298.666666 0q-42.666667 0-42.666667-42.666667l0-128q0-42.666667 42.666667-42.666667Z" fill="#39EAC2"></path>
  </symbol>
  <symbol viewBox="0 0 1163 1024" id="ha">
    <path d="M954.182 1022.759H546.909V799.03h-2.901c-90.19-20.34-151.273-104.603-142.553-194.684 8.735-92.967 87.272-162.707 180.363-162.707 43.644 0 87.273 17.439 122.182 46.483 32.008 29.06 55.28 72.642 58.182 116.224 5.818 43.598-8.72 90.081-34.91 124.944-26.173 34.862-66.9 61.02-110.545 69.725h-2.901V955.92H951.28V441.639h31.993L581.818 90.065 177.462 441.64h31.993v514.28h221.09v66.824H142.553v-514.28H0L581.818 0l581.818 508.463H1021.1v514.296h-66.917zM581.818 508.463c-61.083 0-113.447 49.4-113.447 113.322s49.447 113.307 113.447 113.307S695.28 685.708 695.28 621.785s-49.462-113.322-113.462-113.322z" fill="#108EE9"></path>
  </symbol>
  <symbol viewBox="0 0 1024 1024" id="guitar">
    <path d="M877.882223 207.992725a179.960831 179.960831 0 0 1-64.333601-59.251592c-1.004852-19.946881-8.743364-36.070706-23.215536-48.394576-3.187805-2.748904-5.255258-6.006009-5.775009-9.124514-2.009703-11.168867 2.379304-15.627174 13.167021-13.398021 2.113653 0.427351 5.509359 2.691154 9.240014 6.121509l21.483034 19.866031c2.483254 2.275354 6.50266 2.079003 9.240014-0.462 15.939025-14.472173 12.73967-28.182044-9.586515-41.118065-3.638256-2.032803-6.07531-5.151308-6.58351-8.431513-1.155002-7.623012 1.420652-12.90137 7.738512-15.823525a9.078314 9.078314 0 0 1 10.164016 1.732503l21.367533 20.559032c2.910605 2.772004 6.52576 3.927006 9.355515 3.003005 9.078314-3.083855 13.860022-9.159164 14.322022-18.249029 0.15015-2.240704-1.640103-5.717259-4.735507-9.240014l-18.249029-21.252033a5.405408 5.405408 0 0 1-1.258952-4.504507 7.091711 7.091711 0 0 1 2.644954-4.389007c12.77432-10.314166 23.100036-6.46801 30.954049 11.550018 1.270502 3.003005 4.504507 4.666207 7.623012 3.927006 42.966067-9.933016 69.184608 33.495052 96.558151 60.060094 7.311161 7.080161 8.616313 17.902528 3.927006 32.455551a10.025416 10.025416 0 0 0 1.848003 9.817515l18.364529 21.367533a8.916614 8.916614 0 0 1 1.386002 9.702016c-18.826529 36.613557-34.534554-47.701575-63.178599-2.541004-1.697853 2.806654-1.131902 6.56041 1.386002 9.124514l19.866031 20.905533c2.887505 3.026105 4.227307 6.791411 3.580506 10.048515-0.773851 3.696006-2.541004 6.54886-5.313009 8.547014-2.956805 1.998153-7.080161 1.674753-10.164015-0.808502l-26.565042-21.367533c-3.234005-2.668054-6.872261-3.880806-9.702015-3.234005-8.246713 1.697853-13.675221 6.31786-16.285526 13.860022-1.039502 3.130055 0.24255 6.814511 3.234005 9.240014 4.389007 3.580506 46.893073 45.507071 12.58952 41.580065-3.141605-0.346501-6.35251-2.506354-8.778014-5.890509-10.787717-15.557874-26.218541-24.220388-46.315572-25.987541z" fill="#664125"></path>
    <path d="M813.548622 148.741133a179.960831 179.960831 0 0 0 64.333601 59.251592l-233.541365 252.367895-56.364088 61.792597c-10.787717 11.781018-22.453235 13.08617-34.996555 3.927006-19.866031-14.402873-39.350912-34.419054-58.443092-60.060094a18.075778 18.075778 0 0 1 1.963504-23.793037l67.452105-65.142102 249.59589-228.343857z" fill="#91613F"></path>
    <path d="M563.952732 377.08499l-67.452105 65.142102a18.075778 18.075778 0 0 0-1.963504 23.793037c19.09218 25.64104 38.57706 45.657221 58.443092 60.060094 12.54332 9.159164 24.208838 7.854012 34.996555-3.927006l56.364088-61.792597c47.470574 67.336605 92.631145 162.393254 13.860021 224.07035-39.963063 31.416049-105.220665 48.510076-128.898201 113.883179-14.322022 39.732062-12.47402 103.257161-33.726053 144.375225-21.714034 42.192216-57.022439 67.879456-105.913666 77.038621-157.657747 29.337046-312.543489-97.020152-369.254077-238.161373-34.534554-86.047635-31.531549-203.164818 58.558592-253.291896 35.689556-19.981531 92.746645-22.407035 132.478707-30.723048 117.117183-24.486038 103.834662-226.842355 265.072914-165.973759 14.322022 5.393858 43.462718 20.559032 87.433637 45.507071z m-57.63459 233.656865a94.017147 94.017147 0 1 0-188.034294 0 94.017147 94.017147 0 0 0 188.034294 0zM367.036474 828.863946a11.088017 11.088017 0 0 0-0.0231-15.684924L209.274777 655.994826a11.088017 11.088017 0 0 0-15.684924 0.03465l-27.546793 27.650743a11.088017 11.088017 0 0 0 0.0231 15.673375l157.738596 157.195746a11.088017 11.088017 0 0 0 15.673375-0.03465l27.558343-27.650744z" fill="#FFC133"></path>
    <path d="M412.300995 610.741855m-94.017147 0a94.017147 94.017147 0 1 0 188.034294 0 94.017147 94.017147 0 1 0-188.034294 0Z" fill="#664125"></path>
    <path d="M201.422583 648.171546m7.854084 7.826716l157.736195 157.186551q7.854084 7.826716 0.027368 15.6808l-27.556563 27.652922q-7.826716 7.854084-15.6808 0.027369l-157.736196-157.186551q-7.854084-7.826716-0.027368-15.680801l27.556564-27.652922q7.826716-7.854084 15.6808-0.027368Z" fill="#664125"></path>
  </symbol>
  <symbol viewBox="0 0 1128 1024" id="piano">
    <path d="M978.075165 90.398286c-11.299786-2.94832-20.790087-0.8478-28.470905 6.326868l-832.742331 221.060759c-7.668164 2.024598-7.541626 3.036897 0.379612 3.036896l889.431066-1.265373c17.20908 2.189096 26.661421-2.492786 28.344368-14.045647 8.022468 12.489237 15.817169 19.828403 23.40941 22.0175 10.70506 2.998935 18.145457 13.071309 18.22138 24.674784l0.759224 147.036406a5.377838 5.377838 0 0 0 1.89806 4.125118 6.175023 6.175023 0 0 0 4.555345 1.442526c13.75461-0.923723 24.674784 2.151135 32.773175 9.237227 15.943707 13.792572 15.184483 140.076852 0.379612 154.881722-8.933537 8.946191-21.51135 13.286422-37.708132 13.033348l-94.903016-3.163434-838.816125 2.657284-97.5603-2.657284c-14.678333 1.860099-27.281454-1.809484-37.834669-11.00875a16.791507 16.791507 0 0 1-5.441106-10.629138 488.687264 488.687264 0 0 1-0.50615-132.231536 11.780628 11.780628 0 0 1 6.326868-9.237227 102.583833 102.583833 0 0 1 39.732729-11.388362 6.390136 6.390136 0 0 0 5.947256-6.706479c-2.277672-47.742544-2.94832-95.11813-2.024598-142.10145 0.430227-19.486753 9.831952-31.381264 28.21783-35.683534a3.884697 3.884697 0 0 0 2.745861-2.429517 3.581007 3.581007 0 0 0-0.594725-3.517738c-47.451508-59.472557 16.323319-67.44441 58.839869-78.95931C431.269294 157.285932 719.306275 79.845071 1007.558369 2.581362c31.887413-8.478003 55.170287 3.796121 53.019151 38.846968-0.759224 14.083608-8.30085 23.573909-22.650186 28.470905l-59.852169 20.499051z m-300.652755 317.532838a24.168635 24.168635 0 0 0-24.219249-24.11802l-176.393073 0.30369a24.168635 24.168635 0 0 0-24.11802 24.206596v8.60454a24.168635 24.168635 0 0 0 24.21925 24.130674l176.393073-0.30369a24.168635 24.168635 0 0 0 24.130673-24.21925l-0.012654-8.60454z m-531.330352 190.767716c182.390943 5.567644 364.807194 5.909294 547.274059 1.012299l18.980603-1.012299 28.470905 3.163434 130.206938 0.253075 117.553203-1.265374 33.658936-2.277672c4.074503-0.278382 7.225283-2.998935 7.212629-6.200331l1.391911-76.934711c0.063269-3.65693-3.036897-6.693826-6.959554-6.833017l-39.479655-1.644986c-10.70506-4.808419-21.258276-4.466769-31.634339 1.012299l-53.272226-0.50615c-9.869914-5.403145-19.524714-5.225993-28.977054 0.50615l-129.194639-0.50615c-10.793636-5.403145-21.51135-5.225993-32.140489 0.50615l-50.108792-0.50615c-8.769039-5.314569-17.538077-5.314569-26.31977 0l-52.766077-0.885761c-8.769039-4.466769-19.486753-4.011234-32.140488 1.391911l-44.288074-1.012299a109.492773 109.492773 0 0 0-53.778376 0l-31.128189 0.506149c-20.157401-5.061494-40.365416-5.225993-60.611393-0.506149l-18.474454 0.506149c-11.717359-5.061494-23.485333-5.225993-35.303922-0.506149h-44.288074c-11.805935-4.808419-23.409411-4.466769-34.797772 1.012299l-46.945359-0.50615c-10.882213-5.314569-21.764425-5.314569-32.646638 0-14.754256-2.872398-28.977054-2.113174-42.643088 2.277673-3.378547 1.075568-5.643566 4.479422-5.567644 8.351465l1.518449 73.897815c0.075922 3.796121 2.94832 6.833017 6.453405 6.833017l40.745028-0.126537z" fill="#357DA2"></path>
    <path d="M978.075165 90.398286l38.467356 145.011809a74.593771 74.593771 0 0 0 8.478003 41.12464l9.996451 28.977054c-1.682947 11.55286-11.135287 16.234743-28.344368 14.045647l-57.068347-222.832282c7.680817-7.174668 17.171119-9.275188 28.470905-6.326868z" fill="#265360"></path>
    <path d="M949.60426 96.725154l57.068347 222.832282-889.431066 1.265373c-7.921238 0-8.047776-1.012299-0.379612-3.036896l832.742331-221.060759z" fill="#FFFFFF"></path>
    <path d="M1016.542521 235.410095c10.122988 12.147586 12.957425 25.851582 8.478003 41.12464a74.593771 74.593771 0 0 1-8.478003-41.12464z" fill="#468299"></path>
    <path d="M48.025608 678.796986l97.5603 2.657284-22.650186 333.42593c-0.291036 4.251655-3.327932 7.503665-6.833017 7.339166l-39.100043-1.138836c-3.365894-0.126537-6.162369-3.631622-6.453405-8.098391l-22.523649-334.185153zM984.402033 678.796986l94.903016 3.163434-21.384813 331.907481a8.794346 8.794346 0 0 1-6.833017 7.971853 74.074967 74.074967 0 0 1-37.455057-0.506149c-3.543046-0.986991-6.137062-4.327578-6.453405-8.351466l-22.776724-334.185153z" fill="#1D4D59"></path>
    <path d="M724.494306 823.808794a158.462729 158.462729 0 0 0-72.252829-5.820718 908.285132 908.285132 0 0 0-173.988863 0 185.288649 185.288649 0 0 0-72.758979 0l-24.927859-5.820718a7.528973 7.528973 0 0 1-5.947255-7.718779c3.669583-48.210732 34.671235-59.472557 79.465458-59.599094 73.391666-0.341651 146.74537-0.291036 220.04846 0.126537 47.071896 0.253075 82.249281 11.894511 81.490057 64.407514a6.529328 6.529328 0 0 1-6.579943 6.20033c-9.692761 0.253075-17.879728 2.998935-24.548247 8.224928z" fill="#357DA2"></path>
    <path d="M478.252614 817.988076l-9.616839 197.904423c-0.227767 4.049195-3.138126 7.187322-6.579942 7.086091l-41.757327-1.39191c-3.517738-0.151845-6.326868-3.416509-6.453406-7.465704l-8.351465-196.1329c24.383748-4.808419 48.640959-4.808419 72.758979 0zM652.241477 817.988076a158.462729 158.462729 0 0 1 72.252829 5.820718l-6.20033 189.42642c-0.126537 3.884697-2.682592 7.162014-6.20033 7.971854a103.925129 103.925129 0 0 1-45.047299 0.506149 8.288197 8.288197 0 0 1-6.453405-7.718779l-8.351465-196.006362z" fill="#1D4D59"></path>
    <path d="M452.642548 384.161107m24.168598-0.042183l176.392804-0.307863q24.168598-0.042182 24.21078 24.126415l0.015018 8.604527q0.042182 24.168598-24.126416 24.21078l-176.392803 0.307864q-24.168598 0.042182-24.210781-24.126415l-0.015017-8.604527q-0.042182-24.168598 24.126415-24.210781Z" fill="#F4893B"></path>
    <path d="M145.585908 507.465407l0.50615 91.233433-40.745028 0.126537c-3.505085 0-6.377483-3.036897-6.453405-6.833017l-1.518449-73.897815c-0.075922-3.872043 2.189096-7.275898 5.567644-8.351465 13.666034-4.390846 27.888833-5.15007 42.643088-2.277673z" fill="#FFC133"></path>
    <path d="M178.232546 507.465407l-0.759224 54.284526c-0.075922 3.201395 0.885761 7.124053 2.910359 11.767974 2.960974 7.086092 2.492786 13.628073-1.391911 19.613289-2.277672 3.631622-1.518448 5.441106 2.277673 5.441107l41.883864 0.253074a3.074858 3.074858 0 0 0 2.657284-1.569063 3.947965 3.947965 0 0 0 0.253075-3.365893l-1.644986-4.30227c-1.303335-3.365894-1.391911-7.642856-0.253074-12.147586 5.909294-23.118375 6.250945-46.274711 1.012299-69.469008 11.388362-5.479067 22.991837-5.820718 34.797772-1.012299-4.808419 29.609741-2.530747 58.371682 6.833017 86.298476a8.794346 8.794346 0 0 0 8.478003 6.073793l28.977054-0.632687c1.695601 0 2.075213-0.759224 1.138837-2.277672l-1.391911-2.151135c-1.202105-1.847445-1.809484-5.403145-1.644986-9.743377l1.89806-77.567398c11.818589-4.719843 23.586563-4.555345 35.303922 0.506149l-0.126537 85.286177a6.453405 6.453405 0 0 0 6.453405 6.453406l30.748577-0.126538c3.884697 0 7.086092-2.84709 7.212629-6.453405l4.30227-78.073548a6.0991 6.0991 0 0 0-1.771522-4.618613 7.124053 7.124053 0 0 0-4.80842-2.087867l-23.535948-0.885761c20.245977-4.719843 40.453992-4.555345 60.611393 0.506149l3.543046 84.653491c0.20246 3.758159 3.264664 6.70648 6.959554 6.706479l36.822371 0.379613a4.934957 4.934957 0 0 0 3.859389-1.898061 6.769748 6.769748 0 0 0 1.45518-4.555345l-2.277673-73.012053c-0.151845-4.934957-1.708254-8.90823-4.049195-10.376063-4.30227-2.783822-9.363764-3.581007-15.184483-2.40421a109.492773 109.492773 0 0 1 53.778376 0l-1.138836 86.171938a5.65622 5.65622 0 0 0 2.024597 4.365539c1.341296 1.176797 3.163434 1.834792 5.061495 1.834792l35.810071-0.126537a5.112109 5.112109 0 0 0 3.872043-1.936022 6.668519 6.668519 0 0 0 1.442526-4.517384l-2.783822-84.780027c12.653735-5.403145 23.371449-5.85868 32.140488-1.391911l0.759224 85.539252c0.075922 3.796121 2.94832 6.833017 6.453405 6.833017h32.140489c3.606315-0.075922 6.579942-3.100165 6.833017-6.959555l6.579942-84.526953c8.781692-5.314569 17.550731-5.314569 26.31977 0l5.567644 81.996206c0.088576 1.189451-0.506149 2.492786-1.644986 3.543046l-1.771523 1.644986c-2.859744 2.619323-1.973983 4.011234 2.657284 4.175732l29.483204 0.885762c-182.466866 4.896996-364.883116 4.555345-547.274059-1.012299l-0.50615-91.233433c10.882213-5.314569 21.764425-5.314569 32.646638 0z" fill="#F4893B"></path>
    <path d="M547.848159 507.971557l2.783822 84.780027a6.668519 6.668519 0 0 1-1.442526 4.517384 5.112109 5.112109 0 0 1-3.872043 1.936022l-35.810071 0.126537a7.731432 7.731432 0 0 1-5.061495-1.834792 5.65622 5.65622 0 0 1-2.024597-4.365539l1.138836-86.171938 44.288074 1.012299z" fill="#FFC133"></path>
    <path d="M741.323775 507.465407l4.428807 76.048951c0.177152 2.872398-0.632687 6.617904-2.40421 11.261824l-2.530747 7.086092-28.470905-3.163434-3.163434-90.727283c10.629138-5.732142 21.346852-5.909294 32.140489-0.50615z" fill="#F4893B"></path>
    <path d="M870.518414 507.971557l0.506149 94.143792-130.206938-0.253075 2.530747-7.086092c1.771523-4.643921 2.581362-8.389427 2.40421-11.261824l-4.428807-76.048951 129.194639 0.50615z" fill="#FFC133"></path>
    <path d="M899.495468 507.465407l4.30227 84.906565c0.126537 3.543046 2.84709 6.377483 6.20033 6.453405l32.773175 0.632687c2.960974 0.075922 5.441106-2.062559 5.567644-4.808419l4.428807-86.678088c10.376063-5.479067 20.929278-5.820718 31.634339-1.012299l4.175733 93.890717-117.553203 1.265374-0.506149-94.143792c9.45234-5.732142 19.107141-5.909294 28.977054-0.50615z" fill="#F4893B"></path>
    <path d="M178.232546 507.465407l46.945359 0.50615a146.580872 146.580872 0 0 1-1.012299 69.469008c-1.138836 4.50473-1.05026 8.781692 0.253074 12.147586l1.644986 4.30227a3.947965 3.947965 0 0 1-0.253075 3.365893 3.074858 3.074858 0 0 1-2.657284 1.569063l-41.883864-0.253074c-3.796121 0-4.555345-1.809484-2.277673-5.441107 3.884697-5.985217 4.352885-12.527198 1.391911-19.613289-2.024598-4.643921-2.986282-8.566579-2.910359-11.767974l0.759224-54.284526zM259.975677 506.959258h44.288074l-1.89806 77.567398c-0.164499 4.340231 0.442881 7.895931 1.644986 9.743377l1.391911 2.151135c0.936376 1.518448 0.556764 2.277672-1.138837 2.277672l-28.977054 0.632687a8.794346 8.794346 0 0 1-8.478003-6.073793c-9.363764-27.926794-11.641437-56.688735-6.833017-86.298476zM339.567673 507.465407l18.474454-0.506149 23.535948 0.885761a7.124053 7.124053 0 0 1 4.80842 2.087867c1.227412 1.265374 1.872753 2.923013 1.771522 4.618613l-4.30227 78.073548c-0.126537 3.606315-3.327932 6.453405-7.212629 6.453405l-30.748577 0.126538a6.453405 6.453405 0 0 1-6.453405-6.453406l0.126537-85.286177zM418.65352 507.465407l31.128189-0.506149c5.820718-1.176797 10.882213-0.379612 15.184483 2.40421 2.340941 1.467833 3.897351 5.441106 4.049195 10.376063l2.277673 73.012053a6.769748 6.769748 0 0 1-1.45518 4.555345 4.934957 4.934957 0 0 1-3.859389 1.898061l-36.822371-0.379613a7.022823 7.022823 0 0 1-6.959554-6.706479l-3.543046-84.653491zM579.988647 506.579646l52.766077 0.885761-6.579942 84.526953c-0.253075 3.859389-3.226703 6.883632-6.833017 6.959555h-32.140489c-3.505085 0-6.377483-3.036897-6.453405-6.833017l-0.759224-85.539252zM659.074494 507.465407l50.108792 0.50615 3.163434 90.727283-18.980603 1.012299-29.483204-0.885762c-4.631267-0.164499-5.517029-1.556409-2.657284-4.175732l1.771523-1.644986c1.138836-1.05026 1.733562-2.353595 1.644986-3.543046l-5.567644-81.996206zM899.495468 507.465407l53.272226 0.50615-4.428807 86.678088c-0.126537 2.745861-2.60667 4.884342-5.567644 4.808419l-32.773175-0.632687a6.529328 6.529328 0 0 1-6.20033-6.453405l-4.30227-84.906565zM984.402033 506.959258l39.479655 1.644986c3.922658 0.139191 7.022823 3.176088 6.959554 6.833017l-1.391911 76.934711c0.012654 3.201395-3.138126 5.921948-7.212629 6.200331l-33.658936 2.277672-4.175733-93.890717z" fill="#FFC133"></path>
  </symbol>
  <symbol viewBox="0 0 1024 1024" id="docker">
    <path d="M560.86064 480h-105.6v-94.4H560.86064V480z m0-326.4h-105.6v97.6H560.86064V153.6z m124.8 232h-105.6V480h105.6v-94.4z m-249.6-115.2h-105.6v96h105.6v-96z m124.8 0h-105.6v96H560.86064v-96z m443.2 160c-22.4-16-76.8-20.8-116.8-12.8-4.8-38.4-27.2-72-65.6-102.4l-22.4-14.4-14.4 22.4c-28.8 44.8-36.8 118.4-6.4 166.4-14.4 8-41.6 17.6-76.8 17.6H4.06064c-14.4 81.6 9.6 187.2 70.4 259.2 59.2 70.4 148.8 105.6 264 105.6 251.2 0 438.4-115.2 524.8-326.4 33.6 0 108.8 0 145.6-72 1.6-3.2 11.2-20.8 12.8-27.2l-17.6-16z m-817.6-44.8H80.86064V480h105.6v-94.4z m124.8 0h-105.6V480h105.6v-94.4z m124.8 0h-105.6V480h105.6v-94.4z m-124.8-115.2h-105.6v96h105.6v-96z"></path>
  </symbol>
  <symbol viewBox="0 0 1024 1024" id="rust">
    <path d="M1017.04003 499.502233l-43.639815-27.019885c-0.339999-3.999983-0.679997-7.859967-1.099995-11.75995l37.439841-34.999851a14.699937 14.699937 0 0 0-4.879979-24.499895l-47.999796-17.999924c-1.079995-3.759984-2.159991-7.559968-3.339986-11.279952l29.999872-41.659822a14.699937 14.699937 0 0 0-9.579959-23.079902l-50.839783-8.299965c-1.799992-3.459985-3.579985-6.899971-5.459977-10.299956l21.359909-46.8398a14.699937 14.699937 0 0 0-13.899941-20.779912l-51.63978 1.819992q-3.579985-4.439981-7.219969-8.799962L878.000622 163.683663a14.719937 14.719937 0 0 0-17.679925-17.679925L810.000911 157.863688q-4.339982-3.659984-8.799962-7.219969l1.819992-51.639781a14.699937 14.699937 0 0 0-20.779912-13.99994L735.401229 106.463907c-3.399986-1.879992-6.859971-3.679984-10.299956-5.459977l-8.299965-50.839784a14.699937 14.699937 0 0 0-23.079902-9.579959L652.001584 70.52406c-3.719984-1.179995-7.499968-2.25999-11.279952-3.339986l-17.999923-47.999796a14.699937 14.699937 0 0 0-24.499896-4.879979l-34.999851 37.439841c-3.899983-0.419998-7.819967-0.759997-11.75995-1.099996L524.502127 6.96433a14.699937 14.699937 0 0 0-24.999894 0L472.482348 50.604145c-3.999983 0.339999-7.859967 0.679997-11.75995 1.099995l-34.999851-37.439841a14.699937 14.699937 0 0 0-24.499895 4.879979l-17.999924 47.999796c-3.779984 1.099995-7.579968 2.159991-11.319951 3.359986l-41.639823-29.999872a14.699937 14.699937 0 0 0-23.079902 9.579959l-8.299965 50.819783c-3.459985 1.799992-6.899971 3.579985-10.319956 5.459977l-46.7998-21.259909a14.699937 14.699937 0 0 0-20.779912 13.99994l1.839992 51.61978c-2.979987 2.37999-5.999974 4.77998-8.839962 7.21997L163.683663 146.003738A14.719937 14.719937 0 0 0 146.003738 163.683663L157.863688 214.003449c-2.45999 2.899988-4.859979 5.859975-7.239969 8.819962l-51.619781-1.819992a14.839937 14.839937 0 0 0-12.739945 6.519972 14.699937 14.699937 0 0 0-1.139995 14.25994l21.319909 46.8198c-1.879992 3.399986-3.659984 6.859971-5.459977 10.319956l-50.819784 8.279965a14.699937 14.699937 0 0 0-9.579959 23.079902l29.999872 41.639822c-1.179995 3.739984-2.25999 7.539968-3.359985 11.319952l-47.999796 17.999924a14.699937 14.699937 0 0 0-4.879979 24.499895l37.439841 34.999851c-0.419998 3.899983-0.759997 7.819967-1.099996 11.75995l-43.719814 26.999885a14.699937 14.699937 0 0 0 0 24.999894l43.639815 27.019885c0.339999 3.999983 0.679997 7.839967 1.099995 11.73995l-37.439841 34.999851a14.699937 14.699937 0 0 0 4.87998 24.499895l47.999795 17.999924c1.099995 3.779984 2.159991 7.559968 3.359986 11.299952l-29.999872 41.659822a14.699937 14.699937 0 0 0 9.579959 23.079902l50.839783 8.299965c1.799992 3.439985 3.579985 6.899971 5.459977 10.279956l-21.259909 46.8598a14.699937 14.699937 0 0 0 1.139995 14.25994 14.259939 14.259939 0 0 0 12.739945 6.519972l51.659781-1.819992q3.539985 4.439981 7.199969 8.799962L146.003738 860.320697a14.719937 14.719937 0 0 0 17.679925 17.679925l50.319786-11.85995q4.359981 3.659984 8.819962 7.219969l-1.839992 51.639781a14.699937 14.699937 0 0 0 20.779912 13.89994l46.8598-21.359909c3.379986 1.879992 6.839971 3.659984 10.279956 5.459977l8.299965 50.839784a14.679937 14.679937 0 0 0 23.079902 9.559959l41.659822-29.999872c3.719984 1.199995 7.519968 2.25999 11.299952 3.359985l17.999924 47.999796a14.719937 14.719937 0 0 0 24.499895 4.879979l34.999851-37.43984c3.899983 0.419998 7.839967 0.759997 11.75995 1.099995l27.019885 43.639814a14.699937 14.699937 0 0 0 24.999894 0l27.019885-43.639814c3.999983-0.339999 7.859967-0.679997 11.75995-1.119995l34.999851 37.45984a14.719937 14.719937 0 0 0 24.499895-4.879979l17.999924-47.999796c3.779984-1.099995 7.559968-2.159991 11.299951-3.359985l41.639823 29.999872a14.679937 14.679937 0 0 0 23.079902-9.559959l8.299965-50.839784c3.439985-1.799992 6.899971-3.579985 10.299956-5.459977l46.8398 21.359909a14.699937 14.699937 0 0 0 20.779912-13.89994l-1.819992-51.639781q4.439981-3.579985 8.799962-7.219969l50.299786 11.85995a14.719937 14.719937 0 0 0 17.679925-17.679925L866.140672 810.000911q3.659984-4.339982 7.219969-8.799962l51.639781 1.819992a14.459938 14.459938 0 0 0 12.739945-6.519972 14.699937 14.699937 0 0 0 1.159995-14.25994l-21.359909-46.8398c1.879992-3.399986 3.659984-6.859971 5.459977-10.299956l50.839784-8.299965a14.699937 14.699937 0 0 0 9.579959-23.079902l-29.999872-41.659822c1.179995-3.739984 2.25999-7.519968 3.339985-11.299952l47.999796-17.999924a14.699937 14.699937 0 0 0 4.879979-24.499895l-37.43984-34.999851c0.419998-3.899983 0.759997-7.819967 1.099995-11.73995l43.639814-27.019885a14.699937 14.699937 0 0 0 0-24.999894z m-301.998714 258.158901A27.819882 27.819882 0 0 0 682.001456 779.021043l-15.279935 71.339696a375.018403 375.018403 0 0 1-312.718668-1.479993l-15.279935-71.319697a27.739882 27.739882 0 0 0-32.91986-21.359909l-63.019732 13.519943a374.758404 374.758404 0 0 1-32.519861-38.419837H516.60216c3.439985 0 5.779975-0.579998 5.779976-3.819983v-108.379539c0-3.139987-2.33999-3.819984-5.779976-3.819984h-89.659618l0.1-68.699707H524.002129c8.819962 0 47.319799 2.559989 59.579746 51.739779 3.819984 15.099936 12.339947 64.279726 18.119923 79.99966 5.779975 17.639925 29.199876 52.919775 54.199769 52.919775H814.000894a374.598405 374.598405 0 0 1-34.679852 40.179828z m51.53978 68.979706A30.47987 30.47987 0 1 1 736.001226 796.16097h0.879997a30.45987 30.45987 0 0 1 29.599873 30.47987z m-451.238079-1.359994a30.47987 30.47987 0 1 1-30.49987-30.49987h0.899996a30.49987 30.49987 0 0 1 29.499875 30.49987z m-176.199249-356.97848l65.65972-29.199876a27.759882 27.759882 0 0 0 14.11994-36.659844L205.383486 372.002776h53.119773v239.458981h-107.199543a375.298402 375.298402 0 0 1-12.159948-143.159391z m-22.519905-72.119693a30.47987 30.47987 0 0 1 30.459871-30.49987H148.00373a30.47987 30.47987 0 1 1-31.339867 30.47987z m310.318679 48.979792l0.1-70.6397h126.519461c6.559972 0 46.139804 7.539968 46.139804 37.239842 0 24.579895-30.379871 33.399858-55.359765 33.399858zM798.000962 613.421748c-19.599917 2.25999-41.259824-8.239965-43.999812-20.179914-11.559951-64.979723-30.779869-78.799664-61.13974-102.799562 37.719839-23.899898 76.919672-59.279748 76.919672-106.519547 0-51.039783-34.979851-83.179646-58.799749-98.959578-33.519857-21.999906-70.5597-26.459887-80.539657-26.459888h-397.798307a374.978403 374.978403 0 0 1 209.779107-118.379496l46.9398 49.199791a27.639882 27.639882 0 0 0 39.199834 0.879996l52.519776-49.999787a375.018403 375.018403 0 0 1 256.738907 182.859221l-35.999847 81.139655a27.999881 27.999881 0 0 0 14.17994 36.659844l69.179705 30.659869a374.238407 374.238407 0 0 1 0.799997 65.079723h-38.559836c-3.819984 0-5.379977 2.539989-5.379977 6.259974v17.639924C842.000775 602.001797 818.620874 611.161758 798.000962 613.421748zM480.002316 120.423847A30.47987 30.47987 0 0 1 510.422187 90.003977h0.899996A30.47987 30.47987 0 1 1 480.002316 120.423847zM873.68064 428.002538a30.47987 30.47987 0 1 1 0-60.959741h0.879996a30.47987 30.47987 0 0 1-0.879996 60.959741z"></path>
  </symbol>
  <symbol viewBox="0 0 1024 1024" id="piaoyiban">
    <path d="M704 8c-73.6 1.6-144 64-144 128v752c0 64 73.744 129.6 144 128 73.6-1.616 144-64 144-128v-752c0-64-73.744-129.44-144-128z" fill="#AC92EC"></path>
    <path d="M704 608a88.112 88.112 0 0 1-88-88c0-48.528 39.488-88 88-88s88 39.472 88 88c0 48.512-39.488 88-88 88z m0-160c-39.696 0-72 32.304-72 72S664.304 592 704 592s72-32.304 72-72S743.696 448 704 448z" fill="#967ADC"></path>
    <path d="M768 840.016l-48.64-24.8h-30.72L640 840.016v16h128z" fill="#CCD1D9"></path>
    <path d="M747.312 787.28a15.984 15.984 0 1 0-22.624-22.624l-0.016 0.032-0.032-0.032L704 785.392l-20.64-20.736-0.032 0.032-0.016-0.032a15.984 15.984 0 1 0-22.592 22.64l-0.08 0.08 28 27.84 15.36-6.736 15.36 6.736 28-27.84-0.08-0.08 0.032-0.016z" fill="#CCD1D9"></path>
    <path d="M464 152v720H176v-720h272z" fill="#545C66"></path>
    <path d="M352.48 288.032c-4.416 0-8.08-3.584-8.08-8s3.504-8 7.904-8h0.176a8 8 0 0 1 0 16zM352.48 224.032c-4.416 0-8.08-3.584-8.08-8s3.504-8 7.904-8h0.176a8 8 0 0 1 0 16zM288.48 288.032c-4.416 0-8.08-3.584-8.08-8s3.504-8 7.904-8h0.176a8 8 0 0 1 0 16zM288.48 224.032c-4.416 0-8.08-3.584-8.08-8s3.504-8 7.904-8h0.176a8 8 0 0 1 0 16zM288.48 752.032c-4.416 0-8.08-3.584-8.08-8s3.504-8 7.904-8h0.176a8 8 0 0 1 0 16zM288.48 816.032c-4.416 0-8.08-3.584-8.08-8s3.504-8 7.904-8h0.176a8 8 0 0 1 0 16zM352.48 752.032c-4.416 0-8.08-3.584-8.08-8s3.504-8 7.904-8h0.176a8 8 0 0 1 0 16zM352.48 816.032c-4.416 0-8.08-3.584-8.08-8s3.504-8 7.904-8h0.176a8 8 0 0 1 0 16z" fill="#AAB2BD"></path>
    <path d="M704 815.216m-16 0a16 16 0 1 0 32 0 16 16 0 1 0-32 0Z" fill="#656D78"></path>
    <path d="M176 888v-16h288v16c0 64-70.4 126.4-144 128-70.256 1.6-144-64-144-128zM464 136v16H176v-16c0-64 70.4-126.4 144-128 70.256-1.44 144 64 144 128z" fill="#656D78"></path>
    <path d="M176 888v-16h288v16c0 64-70.4 126.4-144 128-70.256 1.6-144-64-144-128zM464 136v16H176v-16c0-64 70.4-126.4 144-128 70.256-1.44 144 64 144 128z" fill="#656D78"></path>
    <path d="M624 840h160v32H624z" fill="#E6E9ED"></path>
    <path d="M800 800c-13.232 0-24 10.768-24 24v64c0 13.232 10.768 24 24 24s24-10.768 24-24v-64c0-13.232-10.768-24-24-24zM608 800c-13.232 0-24 10.768-24 24v64c0 13.232 10.768 24 24 24s24-10.768 24-24v-64c0-13.232-10.768-24-24-24z" fill="#656D78"></path>
    <path d="M640 184l48.64 24.784h30.72L768 184v-16h-128zM660.688 236.72a15.984 15.984 0 1 0 22.624 22.624l0.016-0.032 0.032 0.032L704 238.624l20.64 20.72 0.032-0.032 0.016 0.032a15.984 15.984 0 1 0 22.624-22.624h-0.032l0.08-0.096-28-27.84-15.36 6.752-15.36-6.752-28 27.84 0.08 0.096h-0.032z" fill="#CCD1D9"></path>
    <path d="M704 192.784c8.8 0 16 7.216 16 16 0 8.816-7.2 16-16 16s-16-7.184-16-16c0-8.784 7.2-16 16-16z" fill="#656D78"></path>
    <path d="M624 152h160v32H624z" fill="#E6E9ED"></path>
    <path d="M608 224c13.232 0 24-10.752 24-24v-64c0-13.216-10.768-24-24-24s-24 10.784-24 24v64c0 13.248 10.768 24 24 24zM800 224c13.232 0 24-10.752 24-24v-64c0-13.216-10.768-24-24-24s-24 10.784-24 24v64c0 13.248 10.768 24 24 24z" fill="#656D78"></path>
    <path d="M688 512a8 8 0 0 1-5.664-13.648l96-96a8 8 0 0 1 11.312 11.312l-96 96A7.968 7.968 0 0 1 688 512z" fill="#967ADC"></path>
    <path d="M720 544a8.032 8.032 0 0 1-5.664-2.336l-32-32a8 8 0 0 1 11.312-11.312l32 32A8 8 0 0 1 720 544z" fill="#967ADC"></path>
    <path d="M624 640a8 8 0 0 1-5.664-13.648l96-96a8 8 0 0 1 11.312 11.312l-96 96A7.968 7.968 0 0 1 624 640z" fill="#967ADC"></path>
  </symbol>
  <symbol viewBox="0 0 1024 1024" id="pinghengche">
    <path d="M558.820431 365.410462h-93.625108c0-53.594585-2.237046-104.479508 0.724677-155.002093 2.032246-33.650215-12.429785-44.047754-42.204554-53.8624-68.072369-22.528-132.757662-23.284185-200.436184 21.220431-13.075692-33.004308-23.725292-59.8016-35.178339-88.631138 70.419692-36.344123 134.774154-67.410708 212.913231-35.587939 70.466954 28.735015 143.801108 32.704985 215.575631 1.748677 78.517169-33.949538 146.699815-5.844677 219.183261 34.469415a51507.515077 51507.515077 0 0 1-33.004308 84.755693c-64.543508-30.404923-126.7712-45.701908-196.497723-20.227939-37.903754 13.910646-50.884923 28.104862-48.269784 66.686031 3.229538 46.804677 0.8192 94.0032 0.8192 144.431262zM557.686154 796.545969h141.485292v89.481846H325.442954v-89.749661h139.248246V420.155077h92.9792l0.015754 376.390892zM273.486769 795.348677c0 39.857231 1.197292 79.730215-0.267815 119.571692-1.6384 42.976492-27.395938 68.056615-68.387446 68.907323-40.96 0.850708-69.442954-22.795815-70.419693-66.103138a5560.540554 5560.540554 0 0 1 0-244.767508c0.976738-43.291569 29.380923-66.922338 70.466954-66.103138 41.054523 0.850708 66.701785 26.056862 68.340185 68.891569 1.465108 39.857231 0.299323 79.698708 0.267815 119.6032zM750.450215 794.687015c0-39.857231-1.181538-79.730215 0.393847-119.634707 1.6384-42.913477 27.695262-67.662769 68.765538-68.214154 41.149046-0.456862 69.080615 23.457477 70.010092 66.638769 1.669908 81.604923 1.858954 163.288615-0.189046 244.877785-1.102769 43.2128-30.042585 66.654523-71.018338 65.45723-40.991508-1.213046-66.418215-26.529477-67.7888-69.537476-1.181538-39.746954-0.173292-79.730215-0.173293-119.587447z" fill=""></path>
  </symbol>
  <symbol viewBox="0 0 1024 1024" id="pingpang">
    <path d="M587.237 320.698L438.581 497.501" fill="#FFFFFF"></path>
    <path d="M438.573 512.502a14.94 14.94 0 0 1-9.646-3.52c-6.341-5.331-7.159-14.793-1.828-21.134l148.655-176.803c5.33-6.341 14.794-7.16 21.135-1.828 6.341 5.331 7.159 14.793 1.828 21.134L450.062 507.155a14.969 14.969 0 0 1-11.489 5.347z" fill="#2B2B2B"></path>
    <path d="M693.377 419.801L508.951 564.352" fill="#FFFFFF"></path>
    <path d="M508.961 579.354a14.975 14.975 0 0 1-11.816-5.748c-5.111-6.52-3.968-15.948 2.552-21.059l184.427-144.551c6.52-5.11 15.947-3.968 21.059 2.552 5.11 6.521 3.968 15.949-2.553 21.059L518.204 576.158a14.934 14.934 0 0 1-9.243 3.196z" fill="#2B2B2B"></path>
    <path d="M648.08 251.646s194.629 158.488 8.175 344.943c-208.017 208.017-354.532 0.834-371.147 64.115-12.952 49.329-45.4 120.011-105.488 59.403-71.565-72.185 43.08-98.34 59.615-104.431 12.05-4.439 22.105-8.522 5.708-36.995-23.549-40.89-98.301-188.357 52.004-338.662C486.571 50.393 648.08 251.646 648.08 251.646z" fill="#C13333"></path>
    <path d="M223.046 758.496c-17.577 0-35.771-9.363-54.079-27.829-22.572-22.768-31.395-44.838-26.223-65.599 9.458-37.961 62.588-54.477 85.276-61.529 2.62-0.814 4.882-1.518 6.028-1.939 1.118-0.412 2.855-1.052 4.189-1.638-0.526-2.137-2.027-6.386-6.294-13.795-25.175-43.714-39.029-89.163-41.178-135.085-1.69-36.122 4.145-71.75 17.343-105.895 15.696-40.607 42.017-79.56 78.231-115.774 56.906-56.906 117.384-85.759 179.754-85.759 47.084 0 95.517 17.065 140.061 49.351 29.509 21.387 48.166 42.721 52.618 48.032 4.992 4.252 24.175 21.308 43.88 48.25 29.925 40.917 46.919 85.588 49.145 129.184 3.344 65.526-25.231 129.022-84.935 188.725-35.541 35.542-72.13 61.887-108.749 78.303-31.562 14.148-64.058 21.324-96.587 21.329h-0.03c-52.744 0-95.42-18.245-126.584-31.568-14.525-6.209-28.248-12.076-34.863-12.115-0.128 0.333-0.278 0.782-0.432 1.37-15.914 60.604-43.108 93.981-76.571 93.981z m243.047-584.843c-54.125 0-107.465 25.897-158.541 76.973-129.323 129.323-86.593 256.356-49.612 320.569 6.702 11.638 13.781 26.692 8.986 39.924-4.325 11.935-15.267 15.965-22.508 18.632-1.871 0.689-4.352 1.461-7.493 2.438-14.765 4.589-59.695 18.556-65.071 40.133-3.069 12.318 8.321 27.042 18.417 37.226 12.292 12.397 23.625 18.95 32.775 18.95 21.199 0 38.464-36.987 47.553-71.603 3.963-15.094 14.673-23.751 29.382-23.751 12.733 0 27.732 6.412 46.722 14.53 28.777 12.303 68.195 29.153 114.792 29.153h0.026c62.778-0.009 123.006-29.725 184.127-90.845 53.372-53.372 79.009-109.137 76.198-165.745-2.355-47.436-24.608-87.354-42.862-112.489-20.204-27.821-40.192-44.32-40.392-44.484l-1.214-0.994-0.998-1.237c-0.167-0.207-18.236-22.423-48.519-44.234-27.327-19.683-70.636-43.146-121.768-43.146z" fill="#2B2B2B"></path>
    <path d="M542.308 675.823c-102.125 40.749-181.296-8.238-220.725-22.387-15.24-5.469-32.034-11.051-36.85 7.295-12.952 49.329-44.449 119.963-104.797 59.615-72.207-72.207 43.029-99.046 59.571-104.77 12.404-4.292 21.33-9.555 5.703-36.461-23.698-40.803-61.438-133.166-24.462-224.978" fill="#FFFAD7"></path>
    <path d="M223.155 758.611c-17.381 0.001-35.428-9.261-53.827-27.66-22.836-22.836-31.76-45.021-26.522-65.937 9.678-38.648 63.628-55.021 86.666-62.014 2.192-0.665 4.086-1.24 5.129-1.602 1.74-0.602 2.914-1.067 3.707-1.421-0.473-2.02-1.883-6.12-6.071-13.331-16.804-28.934-68.296-131.615-25.405-238.114l27.828 11.207c-37.811 93.883 8.442 185.881 23.519 211.841 6.648 11.447 13.645 26.301 8.682 39.655-4.582 12.331-16.651 16.507-22.451 18.515-1.588 0.55-3.635 1.171-6.227 1.957-9.526 2.892-25.471 7.73-39.968 15.36-15.063 7.928-24.161 16.654-26.309 25.233-3.112 12.429 8.416 27.218 18.634 37.437 10.187 10.187 24.977 21.62 37.598 18.198 15.799-4.275 31.531-30.823 42.084-71.016 3.127-11.909 9.934-17.648 15.094-20.365 13.629-7.181 29.641-1.435 41.331 2.762 6.413 2.301 13.407 5.292 21.504 8.755 42.908 18.348 107.749 46.077 188.596 13.819l11.117 27.863c-92.36 36.855-166.946 4.958-211.508-14.099-7.657-3.274-14.27-6.103-19.842-8.103-11.688-4.193-15.372-4.592-16.796-4.465-0.135 0.316-0.305 0.786-0.479 1.451-9.701 36.946-28.551 82.96-63.264 92.355a48.803 48.803 0 0 1-12.82 1.719z" fill="#2B2B2B"></path>
    <path d="M220.464 356.495l314.801 314.8" fill="#FFFAD7"></path>
    <path d="M231.073 345.884L545.871 660.68l-21.213 21.213L209.86 367.097z" fill="#2B2B2B"></path>
    <path d="M719.634 724.903m-83.086 0a83.086 83.086 0 1 0 166.172 0 83.086 83.086 0 1 0-166.172 0Z" fill="#FFCB57"></path>
    <path d="M719.634 822.989c-54.085 0-98.086-44.001-98.086-98.086s44.001-98.086 98.086-98.086 98.087 44.001 98.087 98.086-44.002 98.086-98.087 98.086z m0-166.172c-37.543 0-68.086 30.543-68.086 68.086s30.543 68.086 68.086 68.086 68.087-30.543 68.087-68.086-30.544-68.086-68.087-68.086z" fill="#2B2B2B"></path>
  </symbol>
  <symbol viewBox="0 0 1024 1024" id="poem">
    <path d="M234.666667 213.333333h533.333333a42.666667 42.666667 0 1 1 0 85.333334H234.666667a42.666667 42.666667 0 1 1 0-85.333334z m640 223.616a32 32 0 0 1 0 64h-106.56v215.274667c0 1.28-0.085333 2.56-0.213334 3.84A96.042667 96.042667 0 0 1 576 714.666667a96 96 0 0 1 128.106667-90.496v-155.221334a32 32 0 0 1 32-32H874.666667zM469.333333 682.666667a42.666667 42.666667 0 1 1 0 85.333333H234.666667a42.666667 42.666667 0 1 1 0-85.333333h234.666666z m85.333334-234.666667a42.666667 42.666667 0 1 1 0 85.333333H234.666667a42.666667 42.666667 0 1 1 0-85.333333h320z" fill="#60BBFF"></path>
  </symbol>
  <symbol viewBox="0 0 1024 1024" id="python">
    <path d="M366.635375 495.627875c8.93024999-1.488375 17.8605-2.480625 26.79075-2.48062499h-7.44187499 241.61287499c10.418625 0 20.341125-1.488375 30.26362501-3.969 44.65124999-12.403125 77.3955-52.093125 77.3955-101.20950002V185.053625c0-57.5505-49.116375-101.2095-107.65912501-110.63587501-37.209375-5.9535-91.287-8.93024999-128.00025-8.93024999-36.71325001 0-71.938125 3.472875-103.194 8.93024999C305.115875 90.29374999 288.74374999 123.534125 288.74374999 185.053625v66.48075h223.25625001V288.74374999H216.3095C133.456625 288.74374999 65.983625 387.96874999 65.4875 510.0155v1.9845c0 22.325625 1.9845 43.659 6.449625 63.504C90.29374999 667.78325001 147.84424999 735.25625001 216.3095 735.25625001h35.224875v-106.66687501c0-62.51174999 46.63574999-120.558375 115.101-132.9615z m23.814-283.7835c-22.325625 0-40.68225001-18.356625-40.18612499-40.68225 0-22.325625 17.8605-40.68225001 40.18612499-40.68225s40.68225001 18.356625 40.68225 40.68225c-0.496125 22.82175001-18.356625 40.68225001-40.68225 40.68225z" fill="#0075AA"></path>
    <path d="M949.086125 434.108375C927.75275001 349.271 872.682875 288.74374999 807.6905 288.74374999h-35.224875v94.75987501c0 78.883875-51.597 135.93825001-115.101 145.86075-6.449625 0.99224999-12.89925001 1.488375-19.34887499 1.48837501H396.402875c-10.418625 0-20.341125 1.488375-30.26362499 3.969-44.65124999 11.907-77.3955 48.62025001-77.3955 96.74437499V834.48125001c0 57.5505 58.046625 91.783125 115.10099998 108.15524999 67.969125 19.845 142.387875 23.317875 224.24850002 0 54.077625-15.379875 107.163-46.63574999 107.16299998-108.15525001v-61.5195h-223.25624999V735.25625001h295.6905c58.54275001 0 109.643625-49.6125 134.449875-122.04675001 10.418625-30.263625 16.372125-64.49625001 16.372125-101.2095 0-27.286875-3.472875-53.5815-9.426375-77.891625z m-316.52775 372.58987501c22.325625 0 40.186125 18.356625 40.186125 40.68224999 0 22.325625-18.356625 40.68225001-40.186125 40.68225001-22.325625 0-40.68225001-18.356625-40.68225-40.68225001 0.496125-22.325625 18.356625-40.68225001 40.68225-40.68225001z" fill="#FFD400"></path>
  </symbol>
  <symbol viewBox="0 0 1024 1024" id="sing">
    <path d="M960 345.6c0-147.2-121.6-268.8-268.8-268.8-70.4 0-134.4 25.6-185.6 70.4l377.6 377.6c51.2-44.8 76.8-108.8 76.8-179.2zM473.6 192c-32 38.4-51.2 96-51.2 153.6 0 25.6 6.4 51.2 12.8 70.4l185.6 185.6c25.6 6.4 44.8 12.8 70.4 12.8 57.6 0 108.8-19.2 153.6-44.8L473.6 192z m-339.2 550.4l-12.8 12.8c-12.8 12.8-19.2 32-19.2 44.8v25.6c0 19.2 6.4 32 12.8 44.8v6.4l-51.2 51.2 32 32 44.8-44.8c19.2 12.8 38.4 19.2 64 19.2 12.8 0 25.6 0 32-6.4 12.8-6.4 25.6-12.8 32-19.2 6.4 0 6.4-6.4 12.8-6.4l294.4-256-172.8-185.6-268.8 281.6zM896 608v-12.8h-12.8v12.8c0 51.2-25.6 76.8-64 76.8h-6.4v19.2h6.4c32 0 64 25.6 64 76.8h12.8c0-51.2 25.6-76.8 64-76.8h6.4v-12.8H960c-38.4 0-64-32-64-83.2zM307.2 140.8c12.8 12.8 6.4 38.4 6.4 38.4H320c6.4-32 25.6-51.2 44.8-51.2v-6.4c-25.6 0-44.8-12.8-44.8-51.2V64h-6.4v6.4c0 38.4-19.2 51.2-44.8 51.2V128s19.2 0 38.4 12.8z m-57.6 262.4h12.8c0-38.4 12.8-76.8 70.4-76.8v-12.8c-51.2 0-70.4-32-70.4-76.8v-12.8h-12.8v12.8c0 51.2-25.6 76.8-70.4 76.8v12.8c64 0 70.4 25.6 70.4 76.8z" fill="#41398C"></path>
  </symbol>
  <symbol viewBox="0 0 1024 1024" id="typescript">
    <path d="M94.208 94.208v835.584h835.584V94.208H94.208z m634.92096 405.85216v0.012288c8.011776 0.024576 17.119232 0.436224 23.967744 1.179648 27.891712 3.016704 49.6128 15.050752 68.091904 37.715968 9.201664 11.290624 12.34944 16.2304 11.679744 18.343936-0.432128 1.363968-6.746112 5.885952-26.820608 19.21024-19.720192 13.092864-26.07104 17.014784-27.5456 17.014784-1.497088 0-4.614144-3.207168-9.105408-9.365504-8.6528-11.855872-17.485824-17.266688-31.13984-19.070976-14.68416-1.9456-27.856896 2.68288-34.308096 12.058624-5.515264 8.011776-6.3488 20.901888-1.96608 30.26944 5.07904 10.848256 14.270464 16.846848 49.494016 32.290816 40.624128 17.813504 61.210624 30.005248 76.204032 45.13792 16.146432 16.293888 24.326144 35.106816 26.83904 61.718528 1.226752 12.972032-0.272384 28.34432-3.98336 40.843264-9.10336 30.640128-33.66912 53.075968-69.67296 63.635456-9.95328 2.9184-19.214336 4.661248-28.37504 5.332992-13.985792 1.030144-34.002944 0.462848-46.051328-1.29024-30.482432-4.442112-64.892928-22.17984-82.051072-42.2912-8.423424-9.873408-19.177472-26.12224-19.177472-28.9792 0-1.380352 0.684032-2.164736 3.391488-3.885056 8.032256-5.103616 54.054912-31.412224 54.94784-31.412224 0.540672 0 2.945024 2.832384 5.341184 6.295552 5.429248 7.839744 18.78016 21.313536 25.567232 25.808896 5.543936 3.672064 12.634112 6.619136 21.051392 8.747008 4.820992 1.202176 7.3728 1.417216 17.891328 1.417216 10.747904-0.004096 12.951552-0.18432 17.760256-1.476608 12.71808-3.422208 22.644736-10.50624 26.851328-19.156992 1.8432-3.7376 1.880064-4.204544 1.880064-13.27104v-9.40032l-2.260992-4.48512c-5.474304-10.866688-17.270784-18.323456-54.56896-34.47808-17.13152-7.421952-38.11328-17.885184-46.30528-23.0912-18.696192-11.880448-31.653888-25.462784-40.157184-42.088448-8.45824-16.533504-9.71776-22.687744-9.73824-47.548416-0.02048-19.462144-0.053248-19.222528 3.975168-31.643648 3.65568-11.272192 11.139072-23.863296 19.400704-32.64512 16.4864-17.524736 40.577024-28.788736 66.367488-31.029248 3.29728-0.313344 7.716864-0.434176 12.52352-0.41984z m-221.92128 3.844096h0.008192c49.670144 0.024576 78.143488 0.196608 78.600192 0.483328 0.86016 0.53248 0.968704 4.855808 0.968704 32.444416v31.827968l-49.563648 0.180224-49.563648 0.180224v140.724224c0 77.400064-0.157696 141.185024-0.372736 141.748224-0.350208 0.948224-4.163584 1.019904-36.41344 1.019904h-36.018176l-0.372736-1.45408c-0.239616-0.79872-0.415744-64.587776-0.41984-141.750272l-0.012288-140.296192-49.5616-0.176128-49.565696-0.180224v-31.451136c0-24.94464 0.172032-31.625216 0.837632-32.288768 0.681984-0.702464 25.976832-0.882688 134.967296-0.991232 21.01248-0.02048 39.92576-0.03072 56.48384-0.02048z" fill="#0288D1"></path>
  </symbol>
  <symbol viewBox="0 0 1024 1024" id="vr">
    <path d="M768 597.333333a192 192 0 0 0 0-384H526.933333l-184.32 395.52L158.08 213.333333H64l278.613333 597.333334 238.72-512H768a106.666667 106.666667 0 0 1 0 213.333333H540.586667l298.666666 298.666667H960L746.666667 597.333333z"></path>
  </symbol>
</svg>