<?xml version="1.0" standalone="no"?>
<!DOCTYPE svg PUBLIC "-//W3C//DTD SVG 1.1//EN" "http://www.w3.org/Graphics/SVG/1.1/DTD/svg11.dtd" >
<svg xmlns="http://www.w3.org/2000/svg">
<metadata>Generated by IcoMoon</metadata>
<defs>
<font id="icomoon" horiz-adv-x="1024">
<font-face units-per-em="1024" ascent="896" descent="-128" />
<missing-glyph horiz-adv-x="1024" />
<glyph unicode="&#x20;" d="" />
<glyph unicode="&#xe600;" glyph-name="arrow-right" d="M128 384c0 35.346 28.654 64 64 64v0h506.88l-168.107 168.107c-10.643 11.398-17.177 26.751-17.177 43.63 0 35.346 28.654 64 64 64 16.879 0 32.232-6.534 43.667-17.211l-0.037 0.034 277.333-277.333c11.565-11.579 18.717-27.568 18.717-45.227s-7.152-33.648-18.718-45.227l-277.332-277.332c-11.398-10.643-26.751-17.177-43.63-17.177-35.346 0-64 28.654-64 64 0 16.879 6.534 32.232 17.211 43.667l-0.034-0.037 168.107 168.107h-506.88c-35.346 0-64 28.654-64 64v0z" />
<glyph unicode="&#xe601;" glyph-name="arrow-left" d="M896 384c0 35.346-28.654 64-64 64v0h-506.88l168.107 168.107c10.643 11.398 17.177 26.751 17.177 43.63 0 35.346-28.654 64-64 64-16.879 0-32.232-6.534-43.667-17.211l0.037 0.034-277.333-277.333c-11.565-11.579-18.717-27.568-18.717-45.227s7.152-33.648 18.718-45.227l277.332-277.332c11.398-10.643 26.751-17.177 43.63-17.177 35.346 0 64 28.654 64 64 0 16.879-6.534 32.232-17.211 43.667l0.034-0.037-168.107 168.107h506.88c35.346 0 64 28.654 64 64v0z" />
<glyph unicode="&#xe603;" glyph-name="copy" d="M544 896h248.2c25.4 0 49.8-10.2 67.8-28.2l135.8-135.8c18-18 28.2-42.4 28.2-67.8v-440.2c0-53-43-96-96-96h-384c-53 0-96 43-96 96v576c0 53 43 96 96 96zM96 640h288v-128h-256v-512h384v64h128v-96c0-53-43-96-96-96h-448c-53 0-96 43-96 96v576c0 53 43 96 96 96z" />
<glyph unicode="&#xe604;" glyph-name="cube" d="M469 884.6c27.8 10 58.2 10 86.2 0l384-137.2c50.8-18.2 84.8-66.4 84.8-120.6v-485.6c0-54-34-102.4-85-120.6l-384-137.2c-27.8-10-58.2-10-86.2 0l-384 137.2c-50.8 18.2-84.8 66.4-84.8 120.6v485.6c0 54 34 102.4 85 120.6l384 137.2zM512 764l-347.4-124 347.4-124 347.4 124-347.4 124zM576 26.8l320 114.2v376l-320-114.2v-376z" />
<glyph unicode="&#xe605;" glyph-name="circle-arrow-right" d="M0 384c0-282.77 229.23-512 512-512s512 229.23 512 512v0c0 282.77-229.23 512-512 512s-512-229.23-512-512v0zM562 126c-18.8-18.8-49.2-18.8-67.8 0s-18.8 49.2 0 67.8l142 142-364.2 0.2c-26.6 0-48 21.4-48 48s21.4 48 48 48h364.2l-142 142c-18.8 18.8-18.8 49.2 0 67.8s49.2 18.8 67.8 0l224-223.8c18.8-18.8 18.8-49.2 0-67.8l-224-224.2z" />
<glyph unicode="&#xe606;" glyph-name="clock" d="M512 896c282.77 0 512-229.23 512-512s-229.23-512-512-512v0c-282.77 0-512 229.23-512 512s229.23 512 512 512v0zM464 656v-272c0-16 8-31 21.4-40l192-128c22-14.8 51.8-8.8 66.6 13.4s8.8 51.8-13.4 66.6l-170.6 113.6v246.4c0 26.6-21.4 48-48 48s-48-21.4-48-48z" />
<glyph unicode="&#xe607;" glyph-name="book" d="M256 896c-106 0-192-86-192-192v-640c0-106 86-192 192-192h640c35.4 0 64 28.6 64 64s-28.6 64-64 64v128c35.4 0 64 28.6 64 64v640c0 35.4-28.6 64-64 64h-640zM256 128h512v-128h-512c-35.4 0-64 28.6-64 64s28.6 64 64 64zM320 608c0 17.6 14.4 32 32 32h384c17.6 0 32-14.4 32-32s-14.4-32-32-32h-384c-17.6 0-32 14.4-32 32zM352 512h384c17.6 0 32-14.4 32-32s-14.4-32-32-32h-384c-17.6 0-32 14.4-32 32s14.4 32 32 32z" />
<glyph unicode="&#xe608;" glyph-name="calendar-alt" d="M512 85.333c23.564 0 42.667 19.103 42.667 42.667s-19.103 42.667-42.667 42.667c-23.564 0-42.667-19.103-42.667-42.667v0c0-23.564 19.103-42.667 42.667-42.667v0zM725.333 85.333c23.564 0 42.667 19.103 42.667 42.667s-19.103 42.667-42.667 42.667c-23.564 0-42.667-19.103-42.667-42.667v0c0-23.564 19.103-42.667 42.667-42.667v0zM725.333 256c23.564 0 42.667 19.103 42.667 42.667s-19.103 42.667-42.667 42.667c-23.564 0-42.667-19.103-42.667-42.667v0c0-23.564 19.103-42.667 42.667-42.667v0zM512 256c23.564 0 42.667 19.103 42.667 42.667s-19.103 42.667-42.667 42.667c-23.564 0-42.667-19.103-42.667-42.667v0c0-23.564 19.103-42.667 42.667-42.667v0zM810.667 768h-42.667v42.667c-0.004 23.561-19.105 42.66-42.667 42.66s-42.663-19.099-42.667-42.66v0-42.667h-341.333v42.667c-0.004 23.561-19.105 42.66-42.667 42.66s-42.663-19.099-42.667-42.66v0-42.667h-42.667c-70.692 0-128-57.308-128-128v0-597.333c0-70.692 57.308-128 128-128v0h597.333c70.692 0 128 57.308 128 128v0 597.333c0 70.692-57.308 128-128 128v0zM853.333 42.667c0-23.564-19.103-42.667-42.667-42.667h-597.333c-23.564 0-42.667 19.103-42.667 42.667v384h682.667zM853.333 512h-682.667v128c0 23.564 19.103 42.667 42.667 42.667h42.667v-42.667c0.004-23.561 19.105-42.66 42.667-42.66s42.663 19.099 42.667 42.66v0 42.667h341.333v-42.667c0.004-23.561 19.105-42.66 42.667-42.66s42.663 19.099 42.667 42.66v0 42.667h42.667c23.564 0 42.667-19.103 42.667-42.667v0zM298.667 256c23.564 0 42.667 19.103 42.667 42.667s-19.103 42.667-42.667 42.667c-23.564 0-42.667-19.103-42.667-42.667v0c0-23.564 19.103-42.667 42.667-42.667v0zM298.667 85.333c23.564 0 42.667 19.103 42.667 42.667s-19.103 42.667-42.667 42.667c-23.564 0-42.667-19.103-42.667-42.667v0c0-23.564 19.103-42.667 42.667-42.667v0z" />
<glyph unicode="&#xe609;" glyph-name="eye-outline" d="M512 512c70.692 0 128-57.308 128-128v0c0-70.692-57.308-128-128-128v0c-70.692 0-128 57.308-128 128v0c0 70.692 57.308 128 128 128v0M512 704c213.333 0 395.52-132.693 469.333-320-73.813-187.307-256-320-469.333-320s-395.52 132.693-469.333 320c73.813 187.307 256 320 469.333 320M135.68 384c69.76-140.133 211.993-234.723 376.32-234.723s306.561 94.591 375.224 232.294l1.096 2.429c-69.76 140.133-211.993 234.723-376.32 234.723s-306.561-94.591-375.224-232.294l-1.096-2.429z" />
<glyph unicode="&#xe60a;" glyph-name="circle-half-stroke" d="M896 384c0 212-172 384-384 384v-768c212 0 384 172 384 384zM0 384c0 282.77 229.23 512 512 512s512-229.23 512-512v0c0-282.77-229.23-512-512-512s-512 229.23-512 512v0z" />
<glyph unicode="&#xe60b;" glyph-name="arrow-up" d="M512 0c35.346 0 64 28.654 64 64v0 506.88l168.107-168.107c11.398-10.643 26.751-17.177 43.63-17.177 35.346 0 64 28.654 64 64 0 16.879-6.534 32.232-17.211 43.667l0.034-0.037-277.333 277.333c-11.579 11.565-27.568 18.717-45.227 18.717s-33.648-7.152-45.227-18.718l-277.332-277.332c-12.548-11.716-20.37-28.356-20.37-46.823 0-35.346 28.654-64 64-64 18.467 0 35.107 7.822 46.789 20.333l0.034 0.037 168.107 168.107v-506.88c0-35.328 28.672-64 64-64z" />
<glyph unicode="&#xe60c;" glyph-name="file-word" d="M224 0v768c0 17.6 14.4 32 32 32h320v-160c0-35.4 28.6-64 64-64h160v-576c0-17.6-14.4-32-32-32h-512c-17.6 0-32 14.4-32 32zM256 896c-70.6 0-128-57.4-128-128v-768c0-70.6 57.4-128 128-128h512c70.6 0 128 57.4 128 128v587c0 34-13.4 66.6-37.4 90.6l-181.2 181c-24 24-56.4 37.4-90.4 37.4h-331zM366 413.8c-7.6 25.4-34.4 39.8-59.8 32.2s-39.8-34.4-32.2-59.8l96-320c6-20.4 24.8-34.2 46-34.2s39.8 14 46 34.2l50 166.8 50-166.8c6-20.4 24.8-34.2 46-34.2s39.8 14 46 34.2l96 320c7.6 25.4-6.8 52.2-32.2 59.8s-52.2-6.8-59.8-32.2l-50-166.8-50 166.8c-6 20.4-24.8 34.2-46 34.2s-39.8-14-46-34.2l-50-166.8-50 166.8z" />
<glyph unicode="&#xe60d;" glyph-name="fire" d="M512-128c212.096 0 384 128 384 352 0 96-32 256-160 384 16-96-80-128-80-128 48 160-80 384-272 416 22.848-128 32-256-128-384-80-64-128-174.656-128-288 0-224 171.904-352 384-352zM512-64c-106.048 0-192 64-192 176 0 48 16 128 80 192-8-48 48-80 48-80-24 80 32 208 128 224-11.456-64-16-128 64-192 40-32 64-87.296 64-144 0-112-85.952-176-192-176z" />
<glyph unicode="&#xe60e;" glyph-name="dove" d="M321.6 703c28-34 62-61.8 99-84.4 51.8-31.6 107.4-51.8 155.4-63.2v63c-44.4 60.6-76 134.6-78.8 221.6-0.8 22.6-15 43-36.8 48.8-15.2 4-31.6 0.4-42-11.6-26.6-30.8-65.4-89.2-96.8-174.4zM640 608v-128c-121.6 10.2-370 87.6-438.6 314.4-6.6 21.6-25.6 37.6-48.2 37.6-15.8 0-30.6-7.8-37.6-22-22-45.8-51.6-138.2-51.6-266 0-233.8 160.2-361 236.8-405.6l-277.2-75.6c-10.2-2.8-18.4-10.4-21.8-20.4s-1.6-21.2 4.6-29.6c37-49.2 148.2-140.8 313.6-140.8 7.2 0 14.4 2.4 20 7l151.2 121h148.8c176.8 0 320 143.2 320 320v320l59.8 89.8c2.6 4 4.2 8.8 4.2 13.6 0 13.6-11 24.6-24.6 24.6h-199.4c-88.4 0-160-71.6-160-160zM800 640c17.673 0 32-14.327 32-32s-14.327-32-32-32v0c-17.673 0-32 14.327-32 32s14.327 32 32 32v0z" />
<glyph unicode="&#xe60f;" glyph-name="gear" d="M991.8 562.8c6.4-17.4 1-36.8-12.8-49.2l-86.6-78.8c2.2-16.6 3.4-33.6 3.4-50.8s-1.2-34.2-3.4-50.8l86.6-78.8c13.8-12.4 19.2-31.8 12.8-49.2-8.8-23.8-19.4-46.6-31.6-68.6l-9.4-16.2c-13.2-22-28-42.8-44.2-62.4-11.8-14.4-31.4-19.2-49-13.6l-111.4 35.4c-26.8-20.6-56.4-37.8-88-50.8l-25-114.2c-4-18.2-18-32.6-36.4-35.6-27.6-4.6-56-7-85-7s-57.4 2.4-85 7c-18.4 3-32.4 17.4-36.4 35.6l-25 114.2c-31.6 13-61.2 30.2-88 50.8l-111.2-35.6c-17.6-5.6-37.2-0.6-49 13.6-16.2 19.6-31 40.4-44.2 62.4l-9.4 16.2c-12.2 22-22.8 44.8-31.6 68.6-6.4 17.4-1 36.8 12.8 49.2l86.6 78.8c-2.2 16.8-3.4 33.8-3.4 51s1.2 34.2 3.4 50.8l-86.6 78.8c-13.8 12.4-19.2 31.8-12.8 49.2 8.8 23.8 19.4 46.6 31.6 68.6l9.4 16.2c13.2 22 28 42.8 44.2 62.4 11.8 14.4 31.4 19.2 49 13.6l111.4-35.4c26.8 20.6 56.4 37.8 88 50.8l25 114.2c4 18.2 18 32.6 36.4 35.6 27.6 4.8 56 7.2 85 7.2s57.4-2.4 85-7c18.4-3 32.4-17.4 36.4-35.6l25-114.2c31.6-13 61.2-30.2 88-50.8l111.4 35.4c17.6 5.6 37.2 0.6 49-13.6 16.2-19.6 31-40.4 44.2-62.4l9.4-16.2c12.2-22 22.8-44.8 31.6-68.6zM512 224c88.366 0 160 71.634 160 160s-71.634 160-160 160v0c-88.366 0-160-71.634-160-160s71.634-160 160-160v0z" />
<glyph unicode="&#xe610;" glyph-name="inbox" d="M242 832c-58.8 0-110-40-124.2-97l-114-455.8c-2.6-10.2-3.8-20.6-3.8-31v-184.2c0-70.6 57.4-128 128-128h768c70.6 0 128 57.4 128 128v184.2c0 10.4-1.2 20.8-3.8 31l-114 455.8c-14.2 57-65.4 97-124.2 97h-540zM242 704h540l96-384h-102.4c-24.2 0-46.4-13.6-57.2-35.4l-28.6-57.2c-10.8-21.6-33-35.4-57.2-35.4h-241c-24.2 0-46.4 13.6-57.2 35.4l-28.6 57.2c-10.8 21.6-33 35.4-57.2 35.4h-102.6l96 384z" />
<glyph unicode="&#xe611;" glyph-name="history" d="M307.587 853.425c60.201 26.897 130.461 42.562 204.38 42.562 282.765 0 511.992-229.227 511.992-511.992s-229.227-511.992-511.992-511.992c-211.865 0-393.674 128.686-471.527 312.159l-1.264 3.353c-2.588 5.709-4.096 12.379-4.096 19.402 0 26.509 21.49 47.999 47.999 47.999 20.25 0 37.571-12.54 44.622-30.277l0.114-0.324c64.275-151.813 212.004-256.385 384.156-256.385 229.747 0 415.994 186.247 415.994 415.993s-186.247 415.994-415.994 415.994c-146.552 0-275.404-75.783-349.506-190.3l-0.987-1.628h110.526c26.509 0 47.999-21.49 47.999-47.999s-21.49-47.999-47.999-47.999h-271.996v271.996c0 26.509 21.49 47.999 47.999 47.999s47.999-21.49 47.999-47.999v0-101.502c53.776 74.299 125.221 132.679 208.318 169.583l3.263 1.294zM512 703.987c26.509 0 47.999-21.49 47.999-47.999v0-252.156l130.174-130.174c9.411-8.787 15.277-21.267 15.277-35.117 0-26.509-21.49-47.999-47.999-47.999-13.85 0-26.33 5.866-35.091 15.249l-0.026 0.028-158.334 158.334v291.835c0 26.509 21.49 47.999 47.999 47.999v0z" />
<glyph unicode="&#xe613;" glyph-name="message" d="M128 896c-70.6 0-128-57.4-128-128v-576c0-70.6 57.4-128 128-128h192v-160c0-12.2 6.8-23.2 17.6-28.6s23.8-4.2 33.6 3l247.4 185.6h277.4c70.6 0 128 57.4 128 128v576c0 70.6-57.4 128-128 128h-768z" />
<glyph unicode="&#xe614;" glyph-name="moon" d="M574.856 832c-247 0-447-200.6-447-448s200-448 447-448c121.2 0 231 48.4 311.6 126.8 10 9.8 12.6 25 6.2 37.4s-20.2 19.4-34 17c-19.6-3.4-39.6-5.2-60.2-5.2-193.8 0-351 157.6-351 352 0 131.6 72 246.2 178.6 306.6 12.2 7 18.4 21 15.4 34.6s-14.6 23.8-28.6 25c-12.6 1-25.2 1.6-38 1.6z" />
<glyph unicode="&#xe615;" glyph-name="shapes" d="M630.8 865c-11.4 19.2-32.4 31-54.8 31s-43.4-11.8-54.8-31l-192-320c-11.8-19.8-12.2-44.4-0.8-64.4s32.6-32.4 55.6-32.4h384c23 0 44.4 12.4 55.6 32.4s11 44.6-0.8 64.4l-192 320zM576 272v-288c0-44.2 35.8-80 80-80h288c44.2 0 80 35.8 80 80v288c0 44.2-35.8 80-80 80h-288c-44.2 0-80-35.8-80-80zM256-128c141.385 0 256 114.615 256 256s-114.615 256-256 256v0c-141.385 0-256-114.615-256-256s114.615-256 256-256v0z" />
<glyph unicode="&#xe616;" glyph-name="shuffle" d="M807.6 827.2c24 10 51.4 4.4 69.8-13.8l128-128c12-12 18.8-28.2 18.8-45.2s-6.8-33.2-18.8-45.2l-128-128c-18.4-18.4-45.8-23.8-69.8-13.8s-39.6 33.2-39.6 59.2v63.6h-64c-20.2 0-39.2-9.4-51.2-25.6l-84.8-113-80 106.6 62.4 83.2c36.2 48.4 93.2 76.8 153.6 76.8h64v64c0 25.8 15.6 49.2 39.6 59.2zM328 330.6l80-106.6-62.4-83.2c-36.2-48.4-93.2-76.8-153.6-76.8h-128c-35.4 0-64 28.6-64 64s28.6 64 64 64h128c20.2 0 39.2 9.4 51.2 25.6l84.8 113zM877.2-45.4c-18.4-18.4-45.8-23.8-69.8-13.8s-39.6 33.2-39.6 59.2v64h-63.8c-60.4 0-117.4 28.4-153.6 76.8l-307.2 409.6c-12 16.2-31 25.6-51.2 25.6h-128c-35.4 0-64 28.6-64 64s28.6 64 64 64h128c60.4 0 117.4-28.4 153.6-76.8l307.2-409.6c12-16.2 31-25.6 51.2-25.6h64v64c0 25.8 15.6 49.2 39.6 59.2s51.4 4.4 69.8-13.8l128-128c12-12 18.8-28.2 18.8-45.2s-6.8-33.2-18.8-45.2l-128-128z" />
<glyph unicode="&#xe617;" glyph-name="language" horiz-adv-x="1280" d="M0 640c0 70.6 57.4 128 128 128h1024c70.6 0 128-57.4 128-128v-512c0-70.6-57.4-128-128-128h-1024c-70.6 0-128 57.4-128 128v512zM640 640v-512h512v512h-512zM356.6 544.2c-6.4 14.4-20.8 23.8-36.6 23.8s-30.2-9.4-36.6-23.8l-128-288c-9-20.2 0.2-43.8 20.4-52.8s43.8 0.2 52.8 20.4l17.8 40.2h147.2l17.8-40.2c9-20.2 32.6-29.2 52.8-20.4s29.2 32.6 20.4 52.8l-128 288zM320 429.6l38-85.6h-76l38 85.6zM896 568c22 0 40-18 40-40v-8h120c22 0 40-18 40-40s-18-40-40-40h-4l-3.2-9c-17.8-48.8-44.8-93.2-79.2-130.8 1.8-1.2 3.6-2.2 5.4-3.2l37.8-22.6c19-11.4 25-36 13.8-54.8s-36-25-54.8-13.8l-37.8 22.6c-9 5.4-17.6 11-26.2 17-21.2-15-43.8-28-68-38.8l-7.2-3.2c-20.2-9-43.8 0.2-52.8 20.4s0.2 43.8 20.4 52.8l7.2 3.2c12.8 5.8 25.2 12.2 37 19.6l-24.4 24.4c-15.6 15.6-15.6 41 0 56.6s41 15.6 56.6 0l30.2-30.2c24.8 26.2 45 56.6 59.6 90h-214.4c-22 0-40 18-40 40s18 40 40 40h104v8c0 22 18 40 40 40z" />
<glyph unicode="&#xe618;" glyph-name="tags" d="M690 817.8l255.6-258.6c104.8-106 104.8-276.4 0-382.4l-224-226.6c-18.6-18.8-49-19-67.8-0.4s-19 49-0.4 67.8l223.8 226.6c67.8 68.6 67.8 178.8 0 247.4l-255.4 258.6c-18.6 18.8-18.4 49.2 0.4 67.8s49.2 18.4 67.8-0.4zM0 437v299c0 53 43 96 96 96h299c34 0 66.6-13.4 90.6-37.4l336-336c50-50 50-131 0-181l-267-267c-50-50-131-50-181 0l-336 336c-24.2 24-37.6 56.4-37.6 90.4zM288 608c0 35.346-28.654 64-64 64s-64-28.654-64-64v0c0-35.346 28.654-64 64-64s64 28.654 64 64v0z" />
<glyph unicode="&#xe619;" glyph-name="train" d="M256 896c-106 0-192-86-192-192v-512c0-96 70.4-175.4 162.2-189.8l-92-92c-14-14-4-38.2 15.8-38.2h79.4c17 0 33.2 6.8 45.2 18.8l109.4 109.2h256l109.2-109.2c12-12 28.2-18.8 45.2-18.8h79.6c20 0 30 24.2 15.8 38.2l-92 92c92 14.2 162.2 93.8 162.2 189.8v512c0 106-86 192-192 192h-512zM192 704c0 35.4 28.6 64 64 64h512c35.4 0 64-28.6 64-64v-192c0-35.4-28.6-64-64-64h-512c-35.4 0-64 28.6-64 64v192zM512 320c53.019 0 96-42.981 96-96s-42.981-96-96-96v0c-53.019 0-96 42.981-96 96s42.981 96 96 96v0z" />
<glyph unicode="&#xe61a;" glyph-name="warning" d="M512 832c247.424 0 448-200.576 448-448s-200.576-448-448-448v0c-247.424 0-448 200.576-448 448s200.576 448 448 448v0zM512 640c-0.015 0-0.032 0-0.050 0-32.271 0-58.432-26.161-58.432-58.432 0-1.87 0.088-3.72 0.26-5.545l-0.018 0.233 23.36-256.384c1.917-17.728 16.801-31.407 34.88-31.407s32.963 13.679 34.866 31.252l0.014 0.155 23.296 256.384c0.154 1.592 0.242 3.442 0.242 5.312 0 32.266-26.153 58.424-58.417 58.432h-0.001zM512 128c28.277 0 51.2 22.923 51.2 51.2s-22.923 51.2-51.2 51.2v0c-28.277 0-51.2-22.923-51.2-51.2s22.923-51.2 51.2-51.2v0z" />
<glyph unicode="&#xe61b;" glyph-name="circle-arrow-up-right-1" d="M725.44 753.6c204.16-117.76 273.92-378.88 156.16-582.72-117.76-204.16-378.88-273.92-582.72-156.16-127.68 73.6-208.32 208.32-213.12 355.52v27.52c7.68 235.52 204.8 420.16 440.32 412.48 70.080-2.24 138.56-21.76 199.36-56.96zM640 554.88h-261.12c-21.44-2.88-37.76-21.12-37.76-42.56v-5.12c2.88-21.44 21.12-37.76 42.56-37.76h152.96l-183.040-183.040-3.52-4.16c-14.4-18.56-10.88-45.44 7.68-59.84 16.96-13.12 40.96-11.52 56.32 3.52l183.040 183.040v-158.080c3.2-23.36 24.32-40 47.68-37.44 21.44 2.56 37.76 20.8 37.76 42.24v261.44l-1.6 6.4-1.6 4.48-2.24 4.8-2.88 4.8c-1.28 1.6-2.56 3.2-4.16 4.8l-3.84 3.52-4.16 2.88-4.16 2.24-4.8 1.92-4.8 1.28-5.44 0.64h-3.2z" />
<glyph unicode="&#xe61c;" glyph-name="fish" d="M326.4 22.4c-169.6 0-316.8 134.4-326.4 307.2 0 179.2 144 326.4 320 329.6 188.8 0 377.6-73.6 473.6-182.4 22.4 22.4 48 38.4 76.8 51.2 12.8 6.4 28.8 9.6 41.6 9.6 60.8 0 108.8-48 108.8-108.8v-192c0-16-3.2-28.8-9.6-41.6-12.8-25.6-32-48-57.6-57.6s-57.6-9.6-83.2 0c-28.8 12.8-54.4 28.8-73.6 48-48-60.8-112-105.6-185.6-131.2-19.2-6.4-38.4 3.2-44.8 22.4s3.2 38.4 22.4 44.8c73.6 25.6 134.4 76.8 172.8 140.8 6.4 9.6 16 16 28.8 16s22.4-6.4 28.8-16c19.2-25.6 44.8-48 76.8-60.8 19.2-9.6 41.6 0 51.2 19.2 3.2 3.2 3.2 9.6 3.2 16v192c0 22.4-16 38.4-38.4 38.4-6.4 0-9.6 0-16-3.2-32-12.8-57.6-35.2-76.8-60.8-6.4-9.6-19.2-16-28.8-16-12.8 0-22.4 6.4-28.8 16-67.2 105.6-259.2 185.6-441.6 185.6-137.6-3.2-249.6-118.4-249.6-256 9.6-137.6 128-243.2 268.8-240h80c19.2 0 35.2-16 35.2-35.2s-16-35.2-35.2-35.2h-92.8zM291.2 336c-38.4 0-70.4 32-70.4 70.4s32 70.4 70.4 70.4c38.4 0 70.4-32 70.4-70.4 3.2-38.4-28.8-70.4-70.4-70.4zM291.2 409.6s0-3.2 0 0zM588.8-41.6c-137.6 0-256 96-284.8 233.6-3.2 19.2 9.6 38.4 28.8 41.6s38.4-9.6 41.6-28.8c22.4-102.4 108.8-176 211.2-176l-60.8 198.4c-6.4 19.2 3.2 38.4 22.4 44.8s38.4-3.2 44.8-22.4l73.6-240c3.2-9.6 3.2-19.2-3.2-28.8s-12.8-16-25.6-16c-16-6.4-32-6.4-48-6.4zM716.8 467.2c-12.8 0-28.8 9.6-32 22.4-28.8 76.8-32 163.2-12.8 243.2-262.4 19.2-364.8-76.8-406.4-137.6-9.6-19.2-32-22.4-48-12.8s-22.4 32-9.6 48c51.2 80 185.6 208 515.2 169.6 9.6 0 19.2-6.4 25.6-16s6.4-19.2 3.2-32c-28.8-76.8-28.8-160 0-236.8 6.4-19.2-3.2-38.4-22.4-44.8-3.2-3.2-6.4-3.2-12.8-3.2z" />
<glyph unicode="&#xe61d;" glyph-name="envelope" d="M96 768c-53 0-96-43-96-96 0-30.2 14.2-58.6 38.4-76.8l435.2-326.4c22.8-17 54-17 76.8 0l435.2 326.4c24.2 18.2 38.4 46.6 38.4 76.8 0 53-43 96-96 96h-832zM0 544v-416c0-70.6 57.4-128 128-128h768c70.6 0 128 57.4 128 128v416l-435.2-326.4c-21.115-16.012-47.832-25.65-76.8-25.65s-55.685 9.638-77.119 25.882l0.319-0.232-435.2 326.4z" />
<glyph unicode="&#xe61e;" glyph-name="music" d="M998.095 883.293c16.198-11.999 25.797-31.197 25.797-51.395v-671.929c0-88.391-85.991-159.983-191.98-159.983s-191.98 71.592-191.98 159.983 85.991 159.983 191.98 159.983c22.398 0 43.995-3.2 63.993-9.199v291.169l-511.946-153.584v-416.356c0-88.391-85.991-159.983-191.98-159.983s-191.98 71.592-191.98 159.983 85.991 159.983 191.98 159.983c22.398 0 43.995-3.2 63.993-9.199v457.152c0 28.197 18.598 53.194 45.595 61.394l639.933 191.98c19.398 5.799 40.396 2.2 56.594-9.999z" />
<glyph unicode="&#xe61f;" glyph-name="fan" d="M517.2 896c-3.4 0-6.8-0.2-10.2-1-171-33-275.8-203.6-246-377.6 5.8-34 16.8-65.8 31.8-94.8l-228.8 25.4h-5.2c-32.4 0-58.8-26.4-58.8-58.8 0-3.4 0.2-6.8 1-10.2 33-171 203.6-275.8 377.6-246 34 5.8 65.8 16.8 94.8 31.8l-25.4-228.8v-5.2c0-32.4 26.4-58.8 58.8-58.8 3.4 0 6.8 0.2 10.2 1 171 33 275.8 203.6 246 377.6-5.8 34-16.8 65.8-31.8 94.8l228.8-25.4h5.2c32.4 0 58.8 26.4 58.8 58.8 0 3.4-0.2 6.8-1 10.2-33 171-203.6 275.8-377.6 246-34-5.8-65.8-16.8-94.8-31.8l25.4 228.8v5.2c0 32.4-26.4 58.8-58.8 58.8zM512 448c35.346 0 64-28.654 64-64s-28.654-64-64-64v0c-35.346 0-64 28.654-64 64s28.654 64 64 64v0z" />
<glyph unicode="&#xe620;" glyph-name="heartbeat-bold" d="M287.040 336h-160.24c-26.51 0-48 21.49-48 48s21.49 48 48 48v0h134.52l49.8 74.64c8.724 13.015 23.375 21.467 40 21.467s31.276-8.452 39.891-21.294l0.109-0.173 88-132 24 36c8.732 12.954 23.349 21.36 39.929 21.36 0.025 0 0.050 0 0.075 0h95.996c26.51 0 48-21.49 48-48s-21.49-48-48-48v0h-70.4l-49.84-74.64c-8.724-13.015-23.375-21.467-40-21.467s-31.276 8.452-39.891 21.294l-0.109 0.173-88 132-24-36c-8.716-12.93-23.294-21.328-39.835-21.36h-0.005zM711.64 784c-80.48 0-152-31.72-200.28-86.24-48.4 54.52-119.8 86.24-200.32 86.24-0.115 0-0.252 0-0.389 0-135.487 0-247.136-102.063-262.257-233.499l-0.114-1.221c-0.185-1.584-0.29-3.42-0.29-5.28 0-26.593 21.558-48.15 48.15-48.15 24.733 0 45.11 18.647 47.84 42.649l0.020 0.221c9.736 84.377 80.766 149.28 166.954 149.28 0.030 0 0.061 0 0.091 0h-0.005c71.32 0 131-37.6 155.8-98.16 7.314-17.744 24.475-30.007 44.5-30.007s37.186 12.263 44.383 29.688l0.117 0.319c24.8 60.56 84.48 98.16 155.8 98.16 0.012 0 0.026 0 0.040 0 92.848 0 168.138-75.177 168.32-167.983v-0.017c0-117.68-103.44-231.080-190.24-305.44-52.586-44.819-110.852-86.823-172.402-123.93l-5.918-3.31c-43.48 25.8-141.48 88-226.040 170.92-8.662 8.525-20.557 13.788-33.68 13.788-26.525 0-48.028-21.503-48.028-48.028 0-13.402 5.489-25.522 14.342-34.234l0.006-0.006c121.56-119.24 264.6-196.8 270.64-200 6.591-3.6 14.438-5.717 22.78-5.717s16.189 2.117 23.033 5.844l-0.253-0.126c17.76 9.68 441.76 240.88 441.76 530.24-0.273 145.82-118.512 263.932-264.353 264h-0.007z" />
<glyph unicode="&#xe621;" glyph-name="link" horiz-adv-x="1280" d="M1159.6 360.6c113 113 113 296 0 409-100 100-257.6 113-372.6 30.8l-3.2-2.2c-28.8-20.6-35.4-60.6-14.8-89.2s60.6-35.4 89.2-14.8l3.2 2.2c64.2 45.8 152 38.6 207.6-17.2 63-63 63-165 0-228l-224.4-224.8c-63-63-165-63-228 0-55.8 55.8-63 143.6-17.2 207.6l2.2 3.2c20.6 28.8 13.8 68.8-14.8 89.2s-68.8 13.8-89.2-14.8l-2.2-3.2c-82.4-114.8-69.4-272.4 30.6-372.4 113-113 296-113 409 0l224.6 224.6zM120.4 407.4c-113-113-113-296 0-409 100-100 257.6-113 372.6-30.8l3.2 2.2c28.8 20.6 35.4 60.6 14.8 89.2s-60.6 35.4-89.2 14.8l-3.2-2.2c-64.2-45.8-152-38.6-207.6 17.2-63 63.2-63 165.2 0 228.2l224.4 224.6c63 63 165 63 228 0 55.8-55.8 63-143.6 17.2-207.8l-2.2-3.2c-20.6-28.8-13.8-68.8 14.8-89.2s68.8-13.8 89.2 14.8l2.2 3.2c82.4 115 69.4 272.6-30.6 372.6-113 113-296 113-409 0l-224.6-224.6z" />
<glyph unicode="&#xe622;" glyph-name="chevron-left" d="M210.8 429.2c-25-25-25-65.6 0-90.6l384-384c25-25 65.6-25 90.6 0s25 65.6 0 90.6l-338.8 338.8 338.6 338.8c25 25 25 65.6 0 90.6s-65.6 25-90.6 0l-384-384z" />
<glyph unicode="&#xe623;" glyph-name="rocket" d="M313.288 126.295l-61.792 61.792c-16.998 16.998-22.997 41.595-15.398 64.392 5.999 17.798 13.998 40.995 23.597 67.592h-211.574c-17.198 0-33.196 9.199-41.795 24.197s-8.399 33.396 0.4 48.194l104.987 176.978c25.997 43.795 72.991 70.591 123.785 70.591h164.58c4.799 7.999 9.599 15.398 14.398 22.597 163.78 241.57 407.749 249.569 553.331 222.772 23.197-4.199 41.195-22.397 45.594-45.594 26.797-145.782 18.598-389.552-222.772-553.331-6.999-4.799-14.598-9.599-22.597-14.398v-164.58c0-50.794-26.797-97.988-70.591-123.785l-176.978-104.987c-14.798-8.799-33.196-8.999-48.194-0.4s-24.197 24.397-24.197 41.795v214.373c-28.197-9.799-52.793-17.798-71.391-23.797-22.397-7.199-46.794-1-63.592 15.598zM768.032 560.042c44.177 0 79.99 35.813 79.99 79.99s-35.813 79.99-79.99 79.99v0c-44.177 0-79.99-35.813-79.99-79.99s35.813-79.99 79.99-79.99v0z" />
<glyph unicode="&#xe624;" glyph-name="lightbulb" d="M672 128c19.2 63.8 59 118.2 98.4 172.4 10.4 14.2 20.8 28.4 30.8 42.8 39.6 57 62.8 126 62.8 200.6 0 194.6-157.6 352.2-352 352.2s-352-157.6-352-352c0-74.6 23.2-143.8 62.8-200.6 10-14.4 20.4-28.6 30.8-42.8 39.6-54.2 79.4-108.8 98.4-172.4h320zM512-128c88.4 0 160 71.6 160 160v32h-320v-32c0-88.4 71.6-160 160-160zM352 544c0-17.6-14.4-32-32-32s-32 14.4-32 32c0 123.8 100.2 224 224 224 17.6 0 32-14.4 32-32s-14.4-32-32-32c-88.4 0-160-71.6-160-160z" />
<glyph unicode="&#xe625;" glyph-name="shoe-prints" horiz-adv-x="1280" d="M832 896c-127.4 0-320-64-320-64v-256c96 0 152-32 208-64s112-64 208-64c112.8 0 352 32 352 192s-256 256-448 256zM256 704c0-70.6 57.4-128 128-128h64v256h-64c-70.6 0-128-57.4-128-128zM576-128c192 0 448 96 448 256s-239.2 192-352 192c-96 0-152-32-208-64s-112-64-208-64v-256s192.6-64 320-64zM0 64c0-70.6 57.4-128 128-128h64v256h-64c-70.6 0-128-57.4-128-128z" />
<glyph unicode="&#xe626;" glyph-name="images" horiz-adv-x="1152" d="M320 832c-70.6 0-128-57.4-128-128v-448c0-70.6 57.4-128 128-128h704c70.6 0 128 57.4 128 128v448c0 70.6-57.4 128-128 128h-704zM792 618.6l192-288c9.8-14.8 10.8-33.6 2.4-49.2s-24.6-25.4-42.4-25.4h-544c-18.4 0-35.2 10.6-43.2 27.2s-5.8 36.4 5.8 50.8l128 160c9.2 11.4 22.8 18 37.4 18s28.4-6.6 37.4-18l34.6-43.2 112 168c9 13.2 24 21.2 40 21.2s31-8 40-21.4zM384 640c0 35.346 28.654 64 64 64s64-28.654 64-64v0c0-35.346-28.654-64-64-64s-64 28.654-64 64v0zM96 656c0 26.6-21.4 48-48 48s-48-21.4-48-48v-448c0-150.2 121.8-272 272-272h640c26.6 0 48 21.4 48 48s-21.4 48-48 48h-640c-97.2 0-176 78.8-176 176v448z" />
<glyph unicode="&#xe627;" glyph-name="box-archive" d="M64 832h896c35.4 0 64-28.6 64-64v-64c0-35.4-28.6-64-64-64h-896c-35.4 0-64 28.6-64 64v64c0 35.4 28.6 64 64 64zM64 576h896v-512c0-70.6-57.4-128-128-128h-640c-70.6 0-128 57.4-128 128v512zM320 416c0-17.6 14.4-32 32-32h320c17.6 0 32 14.4 32 32s-14.4 32-32 32h-320c-17.6 0-32-14.4-32-32z" />
<glyph unicode="&#xe628;" glyph-name="artstation" d="M4 141.2l86-148.6c17.268-33.834 51.861-56.6 91.772-56.6 0.010 0 0.020 0 0.030 0h570.798l-118.4 205.2zM1003.6 196l-332.4 581.4c-17.625 32.73-51.646 54.6-90.776 54.6-0.009 0-0.017 0-0.026 0h-176.799l514.6-895.2 81.4 141c3.8 6.4 42 59.4 4 118.2zM550 287l-231 400-231-400z" />
<glyph unicode="&#xe629;" glyph-name="paper-plane" d="M996.022 884.795c20.196-13.997 30.794-38.192 26.994-62.387l-127.973-831.828c-2.999-19.396-14.797-36.392-31.993-45.99s-37.792-10.798-55.988-3.199l-239.15 99.379-136.972-148.169c-17.796-19.396-45.791-25.795-70.385-16.197s-40.592 33.393-40.592 59.788v167.165c0 7.998 2.999 15.597 8.398 21.396l335.131 365.724c11.598 12.597 11.198 31.993-0.8 43.991s-31.393 12.797-43.991 1.4l-406.716-361.325-176.563 88.382c-21.196 10.598-34.793 31.793-35.393 55.389s11.798 45.591 32.193 57.388l895.814 511.894c21.396 12.197 47.79 10.998 67.986-2.799z" />
<glyph unicode="&#xe62a;" glyph-name="house-chimney" horiz-adv-x="1152" d="M1087.6 320.8c34 0 64 28 64 64.2 2 18-6 34-22 48l-105.6 93v242c0 35.4-28.6 64-64 64h-64c-35.4 0-64-28.6-64-64v-73.4l-213 187.4c-12 10-28 14-42 14s-30-2-44-16l-513-447c-14-14-20-30-20-48 0-36 28-64.2 64-64.2h64v-139.4c-0.2-1.8-0.2-3.6-0.2-5.6v-223.8c0-44.2 35.8-80 80-80h32c2.4 0 4.8 0.2 7.2 0.4 3-0.2 6-0.4 9-0.4h112c44.2 0 80 35.8 80 80v176c0 35.4 28.6 64 64 64h128c35.4 0 64-28.6 64-64v-176c0-44.2 35.8-80 80-80h113c2.8 0 5.6 0 8.4 0.2 2.2-0.2 4.4-0.2 6.6-0.2h32c44.2 0 80 35.8 80 80v32.4c0.6 5.2 1 10.6 1 16.2l-1.4 320.4h64z" />
<glyph unicode="&#xe62b;" glyph-name="dianying" d="M204.8 752.64h614.4c45.243 0 81.92-36.677 81.92-81.92v0-593.92c0-45.243-36.677-81.92-81.92-81.92v0h-614.4c-45.243 0-81.92 36.677-81.92 81.92v0 593.92c0 45.243 36.677 81.92 81.92 81.92v0zM225.28 670.72c-11.311 0-20.48-9.169-20.48-20.48v0-552.96c0-11.311 9.169-20.48 20.48-20.48v0h573.44c11.311 0 20.48 9.169 20.48 20.48v552.96c0 11.311-9.169 20.48-20.48 20.48v0h-573.44zM286.72 732.16h40.96c11.311 0 20.48-9.169 20.48-20.48v0-696.32c0-11.311-9.169-20.48-20.48-20.48v0h-40.96c-11.311 0-20.48 9.169-20.48 20.48v0 696.32c0 11.311 9.169 20.48 20.48 20.48v0zM696.32 732.16h40.96c11.311 0 20.48-9.169 20.48-20.48v0-696.32c0-11.311-9.169-20.48-20.48-20.48v0h-40.96c-11.311 0-20.48 9.169-20.48 20.48v0 696.32c0 11.311 9.169 20.48 20.48 20.48v0zM184.32 609.28h143.36q20.48 0 20.48-20.48v-40.96q0-20.48-20.48-20.48h-143.36q-20.48 0-20.48 20.48v40.96q0 20.48 20.48 20.48zM204.8 404.48h614.4q20.48 0 20.48-20.48v-40.96q0-20.48-20.48-20.48h-614.4q-20.48 0-20.48 20.48v40.96q0 20.48 20.48 20.48zM163.84 220.16h143.36q20.48 0 20.48-20.48v-40.96q0-20.48-20.48-20.48h-143.36q-20.48 0-20.48 20.48v40.96q0 20.48 20.48 20.48zM716.8 609.28h143.36q20.48 0 20.48-20.48v-40.96q0-20.48-20.48-20.48h-143.36q-20.48 0-20.48 20.48v40.96q0 20.48 20.48 20.48zM696.32 220.16h143.36q20.48 0 20.48-20.48v-40.96q0-20.48-20.48-20.48h-143.36q-20.48 0-20.48 20.48v40.96q0 20.48 20.48 20.48z" />
<glyph unicode="&#xe62c;" glyph-name="bars" d="M64 704c0 35.4 28.6 64 64 64h768c35.4 0 64-28.6 64-64s-28.6-64-64-64h-768c-35.4 0-64 28.6-64 64zM64 384c0 35.4 28.6 64 64 64h768c35.4 0 64-28.6 64-64s-28.6-64-64-64h-768c-35.4 0-64 28.6-64 64zM960 64c0-35.4-28.6-64-64-64h-768c-35.4 0-64 28.6-64 64s28.6 64 64 64h768c35.4 0 64-28.6 64-64z" />
<glyph unicode="&#xe62d;" glyph-name="arrows-left-right" d="M813.35 146.8l192 192c25 25 25 65.6 0 90.6l-192 192c-25 25-65.6 25-90.6 0s-25-65.6 0-90.6l82.8-82.8h-587l82.8 82.8c25 25 25 65.6 0 90.6s-65.6 25-90.6 0l-192-192c-25-25-25-65.6 0-90.6l192-192c25-25 65.6-25 90.6 0s25 65.6 0 90.6l-82.6 82.6h587l-82.8-82.8c-25-25-25-65.6 0-90.6s65.6-25 90.6 0z" />
<glyph unicode="&#xe62e;" glyph-name="book-open" horiz-adv-x="1152" d="M499.2-47c21.6-7.6 44.8 8.2 44.8 31v754.8c0 8.4-3.2 16.8-10 22-39.2 31.2-129.2 71.2-246 71.2-101 0-195.4-26.6-251.8-48.2-22.6-8.8-36.2-31.2-36.2-55.4v-740.6c0-23.8 25.6-40.4 48.2-33 63 21 162.8 45.2 239.8 45.2 67.8 0 158-28 211.2-47zM652.8-47c53.2 19 143.4 47 211.2 47 77 0 176.8-24.2 239.8-45.2 22.6-7.6 48.2 9.2 48.2 33v740.6c0 24.2-13.6 46.6-36.2 55.2-56.4 21.8-150.8 48.4-251.8 48.4-116.8 0-206.8-40-246-71.2-6.6-5.2-10-13.6-10-22v-754.8c0-22.8 23.4-38.6 44.8-31z" />
<glyph unicode="&#xe62f;" glyph-name="list-ul" d="M128 608c53.019 0 96 42.981 96 96s-42.981 96-96 96v0c-53.019 0-96-42.981-96-96s42.981-96 96-96v0zM384 768c-35.4 0-64-28.6-64-64s28.6-64 64-64h576c35.4 0 64 28.6 64 64s-28.6 64-64 64h-576zM384 448c-35.4 0-64-28.6-64-64s28.6-64 64-64h576c35.4 0 64 28.6 64 64s-28.6 64-64 64h-576zM384 128c-35.4 0-64-28.6-64-64s28.6-64 64-64h576c35.4 0 64 28.6 64 64s-28.6 64-64 64h-576zM128-32c53.019 0 96 42.981 96 96s-42.981 96-96 96v0c-53.019 0-96-42.981-96-96s42.981-96 96-96v0zM224 384c0 53.019-42.981 96-96 96s-96-42.981-96-96v0c0-53.019 42.981-96 96-96s96 42.981 96 96v0z" />
<glyph unicode="&#xe631;" glyph-name="comment-sms" d="M512.104 0c282.8 0 512 186.2 512 416s-229.2 416-512 416-512-186.2-512-416c0-90.2 35.4-173.6 95.4-241.8-3.8-49-22.8-92.6-42.8-125.8-11-18.4-22.2-33.2-30.4-43.2-4.2-5-7.4-8.8-9.8-11.4-1.2-1.2-2-2.2-2.6-2.8l-0.6-0.6c-9.2-9.2-11.8-22.8-6.8-34.8s16.6-19.8 29.6-19.8c57.4 0 115.2 17.8 163.2 38.6 45.8 20 84.8 43.8 108.6 61.2 63.6-23 134-35.8 208.2-35.8zM405.904 542.4c13 4.4 27.4-0.2 35.8-11.2l70.4-93.8 70.4 93.8c8.2 11 22.6 15.6 35.8 11.2s21.8-16.6 21.8-30.4v-192c0-17.6-14.4-32-32-32s-32 14.4-32 32v96l-38.4-51.2c-6-8-15.6-12.8-25.6-12.8s-19.6 4.8-25.6 12.8l-38.4 51.2v-96c0-17.6-14.4-32-32-32s-32 14.4-32 32v192c0 13.8 8.8 26 21.8 30.4zM752.104 466.4v-0.8c0.2-0.2 1.2-1.6 4.4-3.4 7.8-4.6 19.2-8.2 36.6-13.6l1.2-0.4c14.8-4.4 34.6-10.4 50.4-20.4 18.2-11.4 34.8-30.4 35.2-59.8 0.4-30-15.2-52-35.6-64.6-19-11.8-41.8-15.8-61.4-15.2-24.4 0.8-47.4 8.8-65.2 14.8-2.8 1-5.4 1.8-8 2.8-16.8 5.6-25.8 23.8-20.2 40.4s23.8 25.8 40.4 20.2c3.4-1.2 6.6-2.2 9.8-3.2 18.2-6.2 31.2-10.6 45.2-11 10.6-0.4 20 2 25.6 5.6 2.4 1.6 3.6 3 4.2 4 0.4 0.8 1.2 2.4 1.2 5.4v0.4c0 1.4 0 2.8-5.4 6.2-7.6 4.8-19.2 8.6-36 13.8l-2.4 0.8c-14.4 4.4-33.4 10-48.6 19.2-18 10.8-35.4 29.4-35.4 58.8-0.2 30.4 17.2 51.4 37 63.2 18.8 11 41 15 59.4 14.8 20-0.4 39.4-4.6 55.8-8.8 17-4.6 27.2-22 22.6-39.2s-22-27.2-39.2-22.6c-14.6 3.8-28.2 6.6-40.2 6.8-9.8 0.2-19.6-2.2-25.8-5.8-2.8-1.6-4.2-3.2-4.8-4-0.4-0.6-0.8-1.6-0.8-3.8zM208.104 466.4v-0.8c0.2-0.2 1.2-1.6 4.4-3.4 7.8-4.6 19.2-8.2 36.6-13.6l1.2-0.4c14.8-4.4 34.6-10.4 50.4-20.4 18.2-11.4 34.8-30.4 35.2-59.8 0.4-30-15.2-52-35.6-64.6-19-11.8-41.8-15.8-61.4-15.2-24.6 0.8-48.4 9-66.4 15.2-2.6 0.8-5 1.6-7.2 2.4-16.8 5.6-25.8 23.8-20.2 40.4s23.8 25.8 40.4 20.2c2.8-1 5.6-1.8 8.2-2.8 19-6.4 33-11.2 47.4-11.6 10.6-0.4 20 2 25.6 5.6 2.4 1.6 3.6 3 4.2 4 0.4 0.8 1.2 2.4 1.2 5.4v0.4c0 1.4 0 2.8-5.4 6.2-7.6 4.8-19.2 8.6-36 13.8l-2.4 0.8c-14.4 4.4-33.4 10-48.6 19.2-18 10.6-35.4 29.2-35.6 58.6-0.2 30.4 17.2 51.4 37 63.2 18.8 11 41 15 59.4 14.8 19-0.2 44.4-4.2 62.2-8.8 17-4.6 27.2-22 22.6-39.2s-22-27.2-39.2-22.6c-13.2 3.6-33.6 6.6-46.6 6.8-9.8 0.2-19.6-2.2-25.8-5.8-2.8-1.6-4.2-3.2-4.8-4-0.4-0.6-0.8-1.6-0.8-3.8z" />
<glyph unicode="&#xe632;" glyph-name="angles-right" d="M941.2 338.8c25 25 25 65.6 0 90.6l-320 320c-25 25-65.6 25-90.6 0s-25-65.6 0-90.6l274.8-274.8-274.6-274.8c-25-25-25-65.6 0-90.6s65.6-25 90.6 0l320 320zM237.2 18.8l320 320c25 25 25 65.6 0 90.6l-320 320c-25 25-65.6 25-90.6 0s-25-65.6 0-90.6l274.8-274.8-274.6-274.8c-25-25-25-65.6 0-90.6s65.6-25 90.6 0z" />
<glyph unicode="&#xe633;" glyph-name="tag" d="M64 736v-299c0-34 13.4-66.6 37.4-90.6l352-352c50-50 131-50 181 0l267 267c50 50 50 131 0 181l-352 352c-24 24-56.6 37.4-90.6 37.4h-298.8c-53 0.2-96-42.8-96-95.8zM288 672c35.346 0 64-28.654 64-64s-28.654-64-64-64v0c-35.346 0-64 28.654-64 64s28.654 64 64 64v0z" />
<glyph unicode="&#xe634;" glyph-name="chevron-right" d="M813.2 429.2c25-25 25-65.6 0-90.6l-384-384c-25-25-65.6-25-90.6 0s-25 65.6 0 90.6l338.8 338.8-338.6 338.8c-25 25-25 65.6 0 90.6s65.6 25 90.6 0l384-384z" />
<glyph unicode="&#xe635;" glyph-name="radio" d="M989.588 801.988c25.4 7.4 40 34.2 32.6 59.599s-34.2 40-59.799 32.4l-858.989-251.797c-18.8-5.4-35.8-14.6-50.199-26.4-32.2-23.2-53.199-60.999-53.199-103.799v-511.994c0-70.599 57.399-127.998 127.998-127.998h767.991c70.599 0 127.998 57.399 127.998 127.998v511.994c0 70.599-57.399 127.998-127.998 127.998h-458.994l552.593 161.998zM735.991 415.993c0.004 0 0.008 0 0.013 0 88.364 0 159.998-71.634 159.998-159.998s-71.634-159.998-159.998-159.998c-0.005 0-0.009 0-0.014 0h0.001c-0.004 0-0.008 0-0.013 0-88.364 0-159.998 71.634-159.998 159.998s71.634 159.998 159.998 159.998c0.005 0 0.009 0 0.014 0h-0.001zM159.998 383.994c0 17.6 14.4 32 32 32h191.998c17.6 0 32-14.4 32-32s-14.4-32-32-32h-191.998c-17.6 0-32 14.4-32 32zM127.998 255.995c0 17.6 14.4 32 32 32h255.997c17.6 0 32-14.4 32-32s-14.4-32-32-32h-255.997c-17.6 0-32 14.4-32 32zM159.998 127.997c0 17.6 14.4 32 32 32h191.998c17.6 0 32-14.4 32-32s-14.4-32-32-32h-191.998c-17.6 0-32 14.4-32 32z" />
<glyph unicode="&#xe636;" glyph-name="forward" d="M105 14.8c-19-15.8-45.6-19.4-68.2-8.8s-36.8 33.2-36.8 58v640c0 24.8 14.4 47.4 36.8 58s49 7.2 68.2-8.8l343-285.8v-166.8l-343-285.8zM512 192v512c0 24.8 14.4 47.4 36.8 58s49 7.2 68.2-8.8l384-320c14.6-12.2 23-30.2 23-49.2s-8.4-37-23-49.2l-384-320c-19-15.8-45.6-19.4-68.2-8.8s-36.8 33.2-36.8 58v128z" />
<glyph unicode="&#xe637;" glyph-name="window-restore" d="M864 768h-448c-17.6 0-32-14.4-32-32v-32h-128v32c0 88.4 71.6 160 160 160h448c88.4 0 160-71.6 160-160v-448c0-88.4-71.6-160-160-160h-32v128h32c17.6 0 32 14.4 32 32v448c0 17.6-14.4 32-32 32zM0 512c0 70.6 57.4 128 128 128h512c70.6 0 128-57.4 128-128v-512c0-70.6-57.4-128-128-128h-512c-70.6 0-128 57.4-128 128v512zM128 448c0-35.4 28.6-64 64-64h384c35.4 0 64 28.6 64 64s-28.6 64-64 64h-384c-35.4 0-64-28.6-64-64z" />
<glyph unicode="&#xe638;" glyph-name="backward" d="M919 14.8c19-15.8 45.6-19.4 68.2-8.8s36.8 33.2 36.8 58v640c0 24.8-14.4 47.4-36.8 58s-49 7.2-68.2-8.8l-343-285.8v-166.8l343-285.8zM512 192v512c0 24.8-14.4 47.4-36.8 58s-49 7.2-68.2-8.8l-384-320c-14.6-12.2-23-30.2-23-49.2s8.4-37 23-49.2l384-320c19-15.8 45.6-19.4 68.2-8.8s36.8 33.2 36.8 58v128z" />
<glyph unicode="&#xe639;" glyph-name="download" d="M576 832c0 35.4-28.6 64-64 64s-64-28.6-64-64v-485.4l-146.8 146.8c-25 25-65.6 25-90.6 0s-25-65.6 0-90.6l256-256c25-25 65.6-25 90.6 0l256 256c25 25 25 65.6 0 90.6s-65.6 25-90.6 0l-146.6-146.8v485.4zM128 192c-70.6 0-128-57.4-128-128v-64c0-70.6 57.4-128 128-128h768c70.6 0 128 57.4 128 128v64c0 70.6-57.4 128-128 128h-203l-90.6-90.6c-50-50-131-50-181 0l-90.4 90.6h-203zM864 80c26.51 0 48-21.49 48-48s-21.49-48-48-48v0c-26.51 0-48 21.49-48 48s21.49 48 48 48v0z" />
<glyph unicode="&#xe63a;" glyph-name="comment-medical" d="M512.104 0c282.8 0 512 186.2 512 416s-229.2 416-512 416-512-186.2-512-416c0-90.2 35.4-173.6 95.4-241.8-3.8-49-22.8-92.6-42.8-125.8-11-18.4-22.2-33.2-30.4-43.2-4.2-5-7.4-8.8-9.8-11.4-1.2-1.2-2-2.2-2.6-2.8l-0.6-0.6c-9.2-9.2-11.8-22.8-6.8-34.8s16.6-19.8 29.6-19.8c57.4 0 115.2 17.8 163.2 38.6 45.8 20 84.8 43.8 108.6 61.2 63.6-23 134-35.8 208.2-35.8zM448.104 576c0 17.6 14.4 32 32 32h64c17.6 0 32-14.4 32-32v-96h96c17.6 0 32-14.4 32-32v-64c0-17.6-14.4-32-32-32h-96v-96c0-17.6-14.4-32-32-32h-64c-17.6 0-32 14.4-32 32v96h-96c-17.6 0-32 14.4-32 32v64c0 17.6 14.4 32 32 32h96v96z" />
<glyph unicode="&#xe63b;" glyph-name="paste" d="M320 896c-47.4 0-88.8-25.8-110.8-64h-113.2c-53 0-96-43-96-96v-640c0-53 43-96 96-96h288v544c0 88.4 71.6 160 160 160h96v32c0 53-43 96-96 96h-113.2c-22 38.2-63.4 64-110.8 64zM544 640c-53 0-96-43-96-96v-576c0-53 43-96 96-96h384c53 0 96 43 96 96v440.2c0 25.4-10.2 49.8-28.2 67.8l-135.8 135.8c-18 18-42.4 28.2-67.8 28.2h-248.2zM320 816c26.51 0 48-21.49 48-48s-21.49-48-48-48v0c-26.51 0-48 21.49-48 48s21.49 48 48 48v0z" />
<glyph unicode="&#xe63c;" glyph-name="arrow-rotate-right" d="M772.6 576h-100.6c-35.4 0-64-28.6-64-64s28.6-64 64-64h256c35.4 0 64 28.6 64 64v256c0 35.4-28.6 64-64 64s-64-28.6-64-64v-102.4l-35.2 35.2c-175 175-458.6 175-633.6 0s-175-458.6 0-633.6 458.6-175 633.6 0c25 25 25 65.6 0 90.6s-65.6 25-90.6 0c-125-125-327.6-125-452.6 0s-125 327.6 0 452.6 327.6 125 452.6 0l34.4-34.4z" />
<glyph unicode="&#xe63d;" glyph-name="play" d="M274 818c-29.6 18.2-66.8 18.8-97 1.8s-49-49-49-83.8v-704c0-34.8 18.8-66.8 49-83.8s67.4-16.2 97 1.8l576 352c28.6 17.4 46 48.4 46 82s-17.4 64.4-46 82l-576 352z" />
<glyph unicode="&#xe63e;" glyph-name="circle-xmark" d="M512-128c282.77 0 512 229.23 512 512s-229.23 512-512 512v0c-282.77 0-512-229.23-512-512s229.23-512 512-512v0zM350 546c18.8 18.8 49.2 18.8 67.8 0l94-94 94 94c18.8 18.8 49.2 18.8 67.8 0s18.8-49.2 0-67.8l-94-94 94-94c18.8-18.8 18.8-49.2 0-67.8s-49.2-18.8-67.8 0l-94 94-94-94c-18.8-18.8-49.2-18.8-67.8 0s-18.8 49.2 0 67.8l94 94-94 94c-18.8 18.8-18.8 49.2 0 67.8z" />
<glyph unicode="&#xe63f;" glyph-name="angle-down" d="M466.8 210.8c25-25 65.6-25 90.6 0l320 320c25 25 25 65.6 0 90.6s-65.6 25-90.6 0l-274.8-274.8-274.8 274.6c-25 25-65.6 25-90.6 0s-25-65.6 0-90.6l320-320z" />
<glyph unicode="&#xe640;" glyph-name="chart-line" d="M128 768c0 35.4-28.6 64-64 64s-64-28.6-64-64v-672c0-88.4 71.6-160 160-160h800c35.4 0 64 28.6 64 64s-28.6 64-64 64h-800c-17.6 0-32 14.4-32 32v672zM941.2 594.8c25 25 25 65.6 0 90.6s-65.6 25-90.6 0l-210.6-210.8-114.8 114.8c-25 25-65.6 25-90.6 0l-224-224c-25-25-25-65.6 0-90.6s65.6-25 90.6 0l178.8 178.6 114.8-114.8c25-25 65.6-25 90.6 0l256 256z" />
<glyph unicode="&#xe641;" glyph-name="pencil" d="M820.57 433.945l22.598 22.598-259.775 259.775-466.154-466.154c-20.798-20.798-35.996-46.595-44.396-74.793l-70.793-240.776c-5-16.798-0.4-34.997 12.199-47.395s30.597-16.998 47.395-12.199l240.577 70.793c28.197 8.399 53.995 23.598 74.793 44.396l443.557 443.757zM320.019 97.178l-18.198-45.396c-7.999-6.199-16.998-10.799-26.597-13.799l-156.385-45.996 45.996 156.185c2.8 9.799 7.599 18.798 13.799 26.597l45.396 18.198v-63.994c0-17.598 14.399-31.997 31.997-31.997h63.994zM725.379 858.504l-28.797-28.997-45.196-45.196-22.798-22.598 259.775-259.775 96.791 96.791c49.995 49.995 49.995 130.987 0 180.982l-78.592 78.792c-49.995 49.995-130.987 49.995-180.982 0zM630.588 522.536l-287.972-287.972c-12.399-12.399-32.797-12.399-45.196 0s-12.399 32.797 0 45.196l287.972 287.972c12.399 12.399 32.797 12.399 45.196 0s12.399-32.797 0-45.196z" />
<glyph unicode="&#xe642;" glyph-name="thumbtack" d="M192.023 832c0 35.4 28.6 64 64 64h512c35.4 0 64-28.6 64-64s-28.6-64-64-64h-59l22.8-296.4c73.4-39.8 131.4-106.4 159-189.4l2-6c6.6-19.6 3.2-41-8.8-57.6s-31.4-26.6-52-26.6h-640c-20.6 0-39.8 9.8-52 26.6s-15.4 38.2-8.8 57.6l2 6c27.6 83 85.6 149.6 159 189.4l22.8 296.4h-59c-35.4 0-64 28.6-64 64zM448.023 128h128v-192c0-35.4-28.6-64-64-64s-64 28.6-64 64v192z" />
<glyph unicode="&#xe643;" glyph-name="location-dot" d="M559.4-102.4c102.6 128.4 336.6 439.6 336.6 614.4 0 212-172 384-384 384s-384-172-384-384c0-174.8 234-486 336.6-614.4 24.6-30.6 70.2-30.6 94.8 0zM512 640c70.692 0 128-57.308 128-128s-57.308-128-128-128v0c-70.692 0-128 57.308-128 128s57.308 128 128 128v0z" />
<glyph unicode="&#xe644;" glyph-name="fw-fire" d="M382.584 885.15c15.599 14.599 39.798 14.399 55.397-0.2 55.197-51.797 106.995-107.595 155.392-167.992 21.999 28.799 46.998 60.197 73.996 85.796 15.799 14.799 40.198 14.799 55.997-0.2 69.197-65.997 127.794-153.192 168.992-235.988 40.598-81.596 67.597-164.992 67.597-223.789 0-255.187-199.59-470.777-447.978-470.777-251.188 0-447.978 215.789-447.978 470.977 0 76.796 35.598 170.592 90.796 263.387 55.797 94.195 134.593 192.391 227.789 278.786zM515.378 63.99c50.598 0 95.395 13.999 137.593 41.998 84.196 58.797 106.795 176.391 56.197 268.787-9 17.999-31.998 19.199-44.998 4l-50.398-58.597c-13.199-15.199-36.998-14.799-49.398 1-32.998 41.998-91.995 116.994-125.594 159.592-12.599 15.999-36.598 16.199-49.398 0.2-67.597-84.996-101.595-138.593-101.595-198.79 0.2-136.993 101.395-218.189 227.589-218.189z" />
<glyph unicode="&#xe645;" glyph-name="calendar-days" d="M368 848c0 26.6-21.4 48-48 48s-48-21.4-48-48v-80h-80c-70.6 0-128-57.4-128-128v-640c0-70.6 57.4-128 128-128h640c70.6 0 128 57.4 128 128v640c0 70.6-57.4 128-128 128h-80v80c0 26.6-21.4 48-48 48s-48-21.4-48-48v-80h-288v80zM160 512h160v-112h-160v112zM160 304h160v-128h-160v128zM416 304h192v-128h-192v128zM704 304h160v-128h-160v128zM864 400h-160v112h160v-112zM864 80v-80c0-17.6-14.4-32-32-32h-128v112h160zM608 80v-112h-192v112h192zM320 80v-112h-128c-17.6 0-32 14.4-32 32v80h160zM608 400h-192v112h192v-112z" />
<glyph unicode="&#xe646;" glyph-name="angle-right" d="M749.2 429.2c25-25 25-65.6 0-90.6l-320-320c-25-25-65.6-25-90.6 0s-25 65.6 0 90.6l274.8 274.8-274.6 274.8c-25 25-25 65.6 0 90.6s65.6 25 90.6 0l320-320z" />
<glyph unicode="&#xe647;" glyph-name="dice-d20" d="M97.481 644.449l106.379-63.788c15.597-9.398 35.593-3.999 44.391 11.798l154.97 279.345c5.999 10.798-1.8 24.195-14.197 24.195-3.199 0-6.399-1-9.198-2.799l-283.945-194.762c-19.196-13.197-18.396-41.792 1.6-53.789zM32.094 552.667v-247.152c0-15.997 20.796-21.996 29.394-8.798l119.977 183.964c9.998 15.197 5.199 35.593-10.398 44.991l-90.582 54.389c-21.196 12.798-48.391-2.599-48.391-27.395zM620.779 871.805l155.17-279.145c8.798-15.797 28.994-21.196 44.391-11.798l106.379 63.788c19.996 11.998 20.796 40.592 1.6 53.789l-284.145 194.762c-2.799 1.8-5.999 2.799-9.198 2.799-12.398 0-20.196-13.397-14.197-24.195zM991.906 552.667c0 24.795-27.195 40.192-48.391 27.395l-90.582-54.389c-15.597-9.398-20.196-29.794-10.398-44.991l119.977-183.964c8.598-13.397 29.394-7.199 29.394 8.798v247.152zM893.326 60.763l-321.137-37.793c-16.197-1.8-28.194-15.597-28.194-31.794v-105.579c0-7.399 5.999-13.597 13.597-13.597 1.6 0 3.199 0.2 4.799 0.8l345.333 127.975c12.198 4.399 20.196 15.997 20.196 28.994 0 18.596-16.197 32.994-34.593 30.794zM466.409-127.8c7.399 0 13.597 5.999 13.597 13.597v105.179c0 16.197-12.198 29.794-28.194 31.794l-321.137 37.993c-18.396 2.2-34.593-12.198-34.593-30.794 0-12.997 7.998-24.595 20.196-28.994l345.333-127.975c1.6-0.6 3.199-0.8 4.799-0.8zM83.484 130.35l341.733-40.392c15.597-1.8 26.795 14.997 18.996 28.594l-171.367 299.941c-11.798 20.796-41.392 21.596-54.589 1.6l-157.769-240.353c-12.997-19.796-0.6-46.591 22.996-49.39zM962.512 179.94l-156.769 239.953c-12.997 19.996-42.792 19.196-54.589-1.6l-170.767-299.142c-7.798-13.597 3.199-30.394 18.996-28.594l340.134 39.992c23.595 2.799 35.993 29.394 22.996 49.19zM528.797 157.944l156.769 274.346c12.198 21.396-3.199 47.791-27.795 47.791h-291.543c-24.595 0-39.992-26.595-27.795-47.791l156.769-274.346c7.399-12.798 25.995-12.798 33.393 0zM348.832 544.069h326.336c24.395 0 39.792 26.195 27.995 47.591l-159.969 287.944c-5.599 10.198-16.397 16.397-27.995 16.397h-6.399c-11.598 0-22.396-6.399-27.995-16.397l-159.969-287.944c-11.798-21.396 3.599-47.591 27.995-47.591z" />
<glyph unicode="&#xe648;" glyph-name="instagram" d="M512.1 614c-127.2 0-229.8-102.6-229.8-229.8s102.6-229.8 229.8-229.8 229.8 102.6 229.8 229.8-102.6 229.8-229.8 229.8zM512.1 234.8c-82.2 0-149.4 67-149.4 149.4s67 149.4 149.4 149.4 149.4-67 149.4-149.4-67.2-149.4-149.4-149.4zM804.9 623.4c0-29.8-24-53.6-53.6-53.6-29.8 0-53.6 24-53.6 53.6s24 53.6 53.6 53.6 53.6-24 53.6-53.6zM957.1 569c-3.4 71.8-19.8 135.4-72.4 187.8-52.4 52.4-116 68.8-187.8 72.4-74 4.2-295.8 4.2-369.8 0-71.6-3.4-135.2-19.8-187.8-72.2s-68.8-116-72.4-187.8c-4.2-74-4.2-295.8 0-369.8 3.4-71.8 19.8-135.4 72.4-187.8s116-68.8 187.8-72.4c74-4.2 295.8-4.2 369.8 0 71.8 3.4 135.4 19.8 187.8 72.4 52.4 52.4 68.8 116 72.4 187.8 4.2 74 4.2 295.6 0 369.6zM861.5 120c-15.6-39.2-45.8-69.4-85.2-85.2-59-23.4-199-18-264.2-18s-205.4-5.2-264.2 18c-39.2 15.6-69.4 45.8-85.2 85.2-23.4 59-18 199-18 264.2s-5.2 205.4 18 264.2c15.6 39.2 45.8 69.4 85.2 85.2 59 23.4 199 18 264.2 18s205.4 5.2 264.2-18c39.2-15.6 69.4-45.8 85.2-85.2 23.4-59 18-199 18-264.2s5.4-205.4-18-264.2z" />
<glyph unicode="&#xe649;" glyph-name="xmark" d="M813.2 594.8c25 25 25 65.6 0 90.6s-65.6 25-90.6 0l-210.6-210.8-210.8 210.6c-25 25-65.6 25-90.6 0s-25-65.6 0-90.6l210.8-210.6-210.6-210.8c-25-25-25-65.6 0-90.6s65.6-25 90.6 0l210.6 210.8 210.8-210.6c25-25 65.6-25 90.6 0s25 65.6 0 90.6l-210.8 210.6 210.6 210.8z" />
<glyph unicode="&#xe64a;" glyph-name="spinner" d="M608 800c0 53.019-42.981 96-96 96s-96-42.981-96-96v0c0-53.019 42.981-96 96-96s96 42.981 96 96v0zM608-32c0 53.019-42.981 96-96 96s-96-42.981-96-96v0c0-53.019 42.981-96 96-96s96 42.981 96 96v0zM96 288c53.019 0 96 42.981 96 96s-42.981 96-96 96v0c-53.019 0-96-42.981-96-96s42.981-96 96-96v0zM1024 384c0 53.019-42.981 96-96 96s-96-42.981-96-96v0c0-53.019 42.981-96 96-96s96 42.981 96 96v0zM285.8 22c17.377 17.377 28.125 41.383 28.125 67.9 0 53.033-42.992 96.025-96.025 96.025-26.517 0-50.523-10.748-67.9-28.125v0c-17.377-17.377-28.125-41.383-28.125-67.9 0-53.033 42.992-96.025 96.025-96.025 26.517 0 50.523 10.748 67.9 28.125v0zM285.8 610.4c18.606 17.549 30.19 42.368 30.19 69.893 0 53.019-42.981 96-96 96-27.575 0-52.434-11.626-69.944-30.244l-0.046-0.050c-17.377-17.377-28.125-41.383-28.125-67.9 0-53.033 42.992-96.025 96.025-96.025 26.517 0 50.523 10.748 67.9 28.125v0zM738.2 22c17.377-17.377 41.383-28.125 67.9-28.125 53.033 0 96.025 42.992 96.025 96.025 0 26.517-10.748 50.523-28.125 67.9v0c-17.377 17.377-41.383 28.125-67.9 28.125-53.033 0-96.025-42.992-96.025-96.025 0-26.517 10.748-50.523 28.125-67.9v0z" />
<glyph unicode="&#xe64b;" glyph-name="bullhorn" d="M959.896 831.896c0 25.797-15.598 49.195-39.596 59.194s-51.394 4.4-69.792-13.798l-87.191-87.39c-95.99-95.99-226.175-149.984-361.961-149.984h-273.37c-70.592 0-127.986-57.394-127.986-127.986v-191.979c0-70.592 57.394-127.986 127.986-127.986v-255.972c0-35.396 28.597-63.993 63.993-63.993h127.986c35.396 0 63.993 28.597 63.993 63.993v255.972h17.398c135.785 0 265.971-53.994 361.961-149.984l87.191-87.191c18.398-18.398 45.795-23.797 69.792-13.798s39.596 33.196 39.596 59.194v294.968c37.196 17.598 63.993 64.993 63.993 120.787s-26.797 103.189-63.993 120.787v295.168zM831.91 678.512v-525.143c-117.587 106.988-270.971 166.582-430.553 166.582h-17.398v191.979h17.398c159.583 0 312.966 59.594 430.553 166.582z" />
<glyph unicode="&#xe64c;" glyph-name="stream" d="M32 640h832c17.68 0 32 14.32 32 32v128c0 17.68-14.32 32-32 32h-832c-17.68 0-32-14.32-32-32v-128c0-17.68 14.32-32 32-32zM992 480h-832c-17.68 0-32-14.32-32-32v-128c0-17.68 14.32-32 32-32h832c17.68 0 32 14.32 32 32v128c0 17.68-14.32 32-32 32zM864 128h-832c-17.68 0-32-14.32-32-32v-128c0-17.68 14.32-32 32-32h832c17.68 0 32 14.32 32 32v128c0 17.68-14.32 32-32 32z" />
<glyph unicode="&#xe64d;" glyph-name="caret-left" d="M274.8 338.8c-25 25-25 65.6 0 90.6l256 256c18.4 18.4 45.8 23.8 69.8 13.8s39.6-33.2 39.6-59.2v-512c0-25.8-15.6-49.2-39.6-59.2s-51.4-4.4-69.8 13.8l-256 256z" />
<glyph unicode="&#xe64e;" glyph-name="folder-open" horiz-adv-x="1152" d="M177.4 448.4l-177.4-304v559.6c0 70.6 57.4 128 128 128h235c34 0 66.6-13.4 90.6-37.4l53-53c24-24 56.6-37.4 90.6-37.4h234.8c70.6 0 128-57.4 128-128v-64h-672c-45.6 0-87.6-24.2-110.6-63.6zM232.6 416.2c11.6 19.8 32.6 31.8 55.4 31.8h800c23 0 44-12.2 55.4-32.2s11.4-44.4-0.2-64.2l-224-384c-11.4-19.6-32.4-31.6-55.2-31.6h-800c-23 0-44 12.2-55.4 32.2s-11.4 44.4 0.2 64.2l224 384z" />
<glyph unicode="&#xe64f;" glyph-name="thumbs-up" d="M626.8 830.2c52-10.4 85.8-61 75.4-113l-4.6-22.8c-10.6-53.4-30.2-104.2-57.6-150.4h288c53 0 96-43 96-96 0-37-21-69.2-51.8-85.2 21.8-17.6 35.8-44.6 35.8-74.8 0-46.8-33.6-85.8-77.8-94.2 8.8-14.6 13.8-31.6 13.8-49.8 0-42.6-27.8-78.8-66.2-91.2 1.4-6.6 2.2-13.6 2.2-20.8 0-53-43-96-96-96h-195c-38 0-75 11.2-106.6 32.2l-77 51.4c-53.4 35.6-85.4 95.6-85.4 159.8v222.4c0 58.4 26.6 113.4 72 150l14.8 11.8c53 42.4 89.2 102 102.4 168.4l4.6 22.8c10.4 52 61 85.8 113 75.4zM64 512h128c35.4 0 64-28.6 64-64v-448c0-35.4-28.6-64-64-64h-128c-35.4 0-64 28.6-64 64v448c0 35.4 28.6 64 64 64z" />
<glyph unicode="&#xe650;" glyph-name="angle-double-down" d="M478 383.4l-272 272c-18.8 18.8-18.8 49.2 0 67.8l45.2 45.2c18.8 18.8 49.2 18.8 67.8 0l192.8-192.8 192.8 192.8c18.8 18.8 49.2 18.8 67.8 0l45.6-45c18.8-18.8 18.8-49.2 0-67.8l-272-272c-18.8-19-49.2-19-68-0.2zM546-0.6l272 272c18.8 18.8 18.8 49.2 0 67.8l-45.2 45.2c-18.8 18.8-49.2 18.8-67.8 0l-193-192.6-192.8 192.8c-18.8 18.8-49.2 18.8-67.8 0l-45.4-45.2c-18.8-18.8-18.8-49.2 0-67.8l272-272c18.8-19 49.2-19 68-0.2z" />
<glyph unicode="&#xe651;" glyph-name="sign-out-alt" d="M994 350l-336-336c-30-30-82-9-82 34v192h-272c-26.6 0-48 21.4-48 48v192c0 26.6 21.4 48 48 48h272v192c0 42.8 51.8 64 82 34l336-336c18.6-18.8 18.6-49.2 0-68zM384 24v80c0 13.2-10.8 24-24 24h-168c-35.4 0-64 28.6-64 64v384c0 35.4 28.6 64 64 64h168c13.2 0 24 10.8 24 24v80c0 13.2-10.8 24-24 24h-168c-106 0-192-86-192-192v-384c0-106 86-192 192-192h168c13.2 0 24 10.8 24 24z" />
<glyph unicode="&#xe652;" glyph-name="angle-double-left" d="M511.4 418l272 272c18.8 18.8 49.2 18.8 67.8 0l45.2-45.2c18.8-18.8 18.8-49.2 0-67.8l-192.6-193 192.8-192.8c18.8-18.8 18.8-49.2 0-67.8l-45.2-45.4c-18.8-18.8-49.2-18.8-67.8 0l-272 272c-19 18.8-19 49.2-0.2 68zM127.4 350l272-272c18.8-18.8 49.2-18.8 67.8 0l45.2 45.2c18.8 18.8 18.8 49.2 0 67.8l-192.6 193 192.8 192.8c18.8 18.8 18.8 49.2 0 67.8l-45.2 45.4c-18.8 18.8-49.2 18.8-67.8 0l-272-272c-19-18.8-19-49.2-0.2-68z" />
<glyph unicode="&#xe653;" glyph-name="angle-double-right" d="M512.6 350l-272-272c-18.8-18.8-49.2-18.8-67.8 0l-45.2 45.2c-18.8 18.8-18.8 49.2 0 67.8l192.8 192.8-192.8 192.8c-18.8 18.8-18.8 49.2 0 67.8l45 45.6c18.8 18.8 49.2 18.8 67.8 0l272-272c19-18.8 19-49.2 0.2-68zM896.6 418l-272 272c-18.8 18.8-49.2 18.8-67.8 0l-45.2-45.2c-18.8-18.8-18.8-49.2 0-67.8l192.8-192.8-192.8-192.8c-18.8-18.8-18.8-49.2 0-67.8l45.2-45.2c18.8-18.8 49.2-18.8 67.8 0l272 272c18.8 18.4 18.8 48.8 0 67.6z" />
<glyph unicode="&#xe654;" glyph-name="angle-left" d="M274.8 429.2c-25-25-25-65.6 0-90.6l320-320c25-25 65.6-25 90.6 0s25 65.6 0 90.6l-274.8 274.8 274.6 274.8c25 25 25 65.6 0 90.6s-65.6 25-90.6 0l-320-320z" />
<glyph unicode="&#xe655;" glyph-name="fw-eye" horiz-adv-x="1152" d="M576 736c-130.4 0-237.6-59.2-319.8-135.4-77-71.6-130.2-156.6-157.4-216.6 27.2-60 80.4-145 157.2-216.6 82.4-76.2 189.6-135.4 320-135.4s237.6 59.2 319.8 135.4c77 71.6 130.2 156.6 157.4 216.6-27.2 60-80.4 145-157.2 216.6-82.4 76.2-189.6 135.4-320 135.4zM190.8 670.8c94.2 87.6 223.6 161.2 385.2 161.2s291-73.6 385.2-161.2c93.6-87 156.2-190.8 186-262.2 6.6-15.8 6.6-33.4 0-49.2-29.8-71.4-92.4-175.4-186-262.2-94.2-87.6-223.6-161.2-385.2-161.2s-291 73.6-385.2 161.2c-93.6 86.8-156.2 190.8-185.8 262.2-6.6 15.8-6.6 33.4 0 49.2 29.6 71.4 92.2 175.4 185.8 262.2zM576 224c88.4 0 160 71.6 160 160s-71.6 160-160 160h-4c2.6-10.2 4-21 4-32 0-70.6-57.4-128-128-128-11 0-21.8 1.4-32 4v-4c0-88.4 71.6-160 160-160zM576 640c141.385 0 256-114.615 256-256s-114.615-256-256-256v0c-141.385 0-256 114.615-256 256s114.615 256 256 256v0z" />
<glyph unicode="&#xe656;" glyph-name="repeat" d="M0 448c0-35.4 28.6-64 64-64s64 28.6 64 64c0 106 86 192 192 192h320v-64c0-25.8 15.6-49.2 39.6-59.2s51.4-4.4 69.8 13.8l128 128c25 25 25 65.6 0 90.6l-128 128c-18.4 18.4-45.8 23.8-69.8 13.8s-39.6-33.2-39.6-59v-64h-320c-176.8 0-320-143.2-320-320zM1024 320c0 35.4-28.6 64-64 64s-64-28.6-64-64c0-106-86-192-192-192h-320v64c0 25.8-15.6 49.2-39.6 59.2s-51.4 4.4-69.8-13.8l-128-128c-25-25-25-65.6 0-90.6l128-128c18.4-18.4 45.8-23.8 69.8-13.8s39.6 33.2 39.6 59.2v63.8h320c176.8 0 320 143.2 320 320z" />
<glyph unicode="&#xe657;" glyph-name="shuffle1" d="M807.6 827.2c24 10 51.4 4.4 69.8-13.8l128-128c12-12 18.8-28.2 18.8-45.2s-6.8-33.2-18.8-45.2l-128-128c-18.4-18.4-45.8-23.8-69.8-13.8s-39.6 33.2-39.6 59.2v63.6h-64c-20.2 0-39.2-9.4-51.2-25.6l-84.8-113-80 106.6 62.4 83.2c36.2 48.4 93.2 76.8 153.6 76.8h64v64c0 25.8 15.6 49.2 39.6 59.2zM328 330.6l80-106.6-62.4-83.2c-36.2-48.4-93.2-76.8-153.6-76.8h-128c-35.4 0-64 28.6-64 64s28.6 64 64 64h128c20.2 0 39.2 9.4 51.2 25.6l84.8 113zM877.2-45.4c-18.4-18.4-45.8-23.8-69.8-13.8s-39.6 33.2-39.6 59.2v64h-63.8c-60.4 0-117.4 28.4-153.6 76.8l-307.2 409.6c-12 16.2-31 25.6-51.2 25.6h-128c-35.4 0-64 28.6-64 64s28.6 64 64 64h128c60.4 0 117.4-28.4 153.6-76.8l307.2-409.6c12-16.2 31-25.6 51.2-25.6h64v64c0 25.8 15.6 49.2 39.6 59.2s51.4 4.4 69.8-13.8l128-128c12-12 18.8-28.2 18.8-45.2s-6.8-33.2-18.8-45.2l-128-128z" />
<glyph unicode="&#xe658;" glyph-name="arrows-rotate" d="M210.2 490.8c15.4 43.6 40.4 84.6 75.6 119.6 125 125 327.6 125 452.6 0l34.2-34.4h-100.6c-35.4 0-64-28.6-64-64s28.6-64 64-64h255.8c35.4 0 64 28.6 64 64v256c0 35.4-28.6 64-64 64s-64-28.6-64-64v-102.4l-35 35.2c-175 175-458.6 175-633.6 0-48.8-48.8-84-106.2-105.6-167.6-11.8-33.4 5.8-69.8 39-81.6s69.8 5.8 81.6 39zM78 317.4c-10-3-19.6-8.4-27.4-16.4-8-8-13.4-17.6-16.2-28-0.6-2.4-1.2-5-1.6-7.6-0.6-3.4-0.8-6.8-0.8-10.2v-255.2c0-35.4 28.6-64 64-64s64 28.6 64 64v102.2l35.2-35c175-174.8 458.6-174.8 633.4 0 48.8 48.8 84.2 106.2 105.8 167.4 11.8 33.4-5.8 69.8-39 81.6s-69.8-5.8-81.6-39c-15.4-43.6-40.4-84.6-75.6-119.6-125-125-327.6-125-452.6 0l-34.4 34.4h100.8c35.4 0 64 28.6 64 64s-28.6 64-64 64h-255.2c-3.2 0-6.4-0.2-9.6-0.6s-6.2-1-9.2-2z" />
<glyph unicode="&#xe659;" glyph-name="pause" d="M288 768c-53 0-96-43-96-96v-576c0-53 43-96 96-96h64c53 0 96 43 96 96v576c0 53-43 96-96 96h-64zM672 768c-53 0-96-43-96-96v-576c0-53 43-96 96-96h64c53 0 96 43 96 96v576c0 53-43 96-96 96h-64z" />
<glyph unicode="&#xe65a;" glyph-name="heartbeat" d="M640.43 408.4l-99.4-198.8c-12-24.2-46.8-23.4-57.8 1.2l-113.8 252.6-60-143.4h-188.2l365-373c14.2-14.6 37.2-14.6 51.4 0l365.2 373h-218.2l-44.2 88.4zM947.43 748.2l-4.8 5c-103 105.2-271.6 105.2-374.8 0l-55.8-57.2-55.8 57c-103 105.4-271.8 105.4-374.8 0l-4.8-4.8c-97.4-99.6-101.6-258.2-14.6-364.2h204.8l71.8 172.4c10.8 25.8 47.2 26.4 58.8 0.8l116.4-258.6 98 195.8c11.8 23.6 45.4 23.6 57.2 0l55.2-110.4h237.8c87 106 82.8 264.6-14.6 364.2z" />
<glyph unicode="&#xe65b;" glyph-name="screen" d="M6.214-17.654h1011.573c17.851 0 29.753-11.899 29.753-29.753s-11.899-29.753-29.753-29.753h-1011.573c-17.851 0-29.753 11.899-29.753 29.753s11.899 29.753 29.753 29.753zM193.652 389.951c59.502-59.502 110.083-133.885 110.083-214.217 0-47.602-8.927-92.232-20.828-133.885h-276.694v803.306h434.38c5.951-29.753 11.899-59.502 11.899-89.258 0-169.587-107.109-312.399-258.845-365.949zM741.092 41.851c-14.877 41.651-20.828 86.281-20.828 133.885 0 80.331 50.578 154.712 110.083 214.217-151.736 53.551-258.845 196.366-258.845 365.949 0 29.753 2.976 59.502 11.899 89.258h434.38v-803.306h-276.694z" />
<glyph unicode="&#xe65c;" glyph-name="yinle" d="M875.008 600.576c-6.052 10.095-16.936 16.747-29.374 16.747-18.851 0-34.133-15.282-34.133-34.133 0-6.784 1.979-13.105 5.391-18.419l-0.082 0.136c35.328-57.515 53.931-123.563 53.931-191.488 0-201.899-164.352-366.251-366.251-366.251s-366.251 164.352-366.251 366.251 164.352 366.251 366.251 366.251c18.773 0 34.133 15.36 34.133 34.133s-15.36 34.133-34.133 34.133c-239.616 0-434.517-194.901-434.517-434.517s194.901-434.517 434.517-434.517 434.517 194.901 434.517 434.517c0.171 80.384-22.016 159.061-64 227.157zM501.248 506.027c-77.653 0-140.8-63.147-140.8-140.8s63.147-140.8 140.8-140.8 140.8 63.147 140.8 140.8v306.517c0 19.456 15.872 35.328 35.328 35.328s35.328-15.872 35.328-35.328c0-18.773 15.36-34.133 34.133-34.133s34.133 15.36 34.133 34.133c0 57.173-46.421 103.595-103.595 103.595s-103.595-46.421-103.595-103.595v-186.027c-20.68 12.714-45.72 20.263-72.52 20.309h-0.013zM501.248 292.693c-40.020 0.097-72.436 32.513-72.533 72.524v0.009c0.097 40.020 32.513 72.436 72.524 72.533h0.009c40.020-0.097 72.436-32.513 72.533-72.524v-0.009c-0.097-40.020-32.513-72.436-72.524-72.533h-0.009z" />
<glyph unicode="&#xe65d;" glyph-name="heartbeat1" d="M456.6-42.2l-361.4 337.4c-8.4 7.8-16.4 16.2-23.8 24.8h174c45.2 0 86 27.2 103.4 69l21 50.4 98.6-219c7.6-17 24.2-28 42.8-28.2s35.6 10 44 26.6l84.8 169.8 3.4-6.8c19-38 57.8-62 100.2-62h209c-7.4-8.6-15.4-17-23.8-24.8l-361.4-337.2c-15-14-34.8-21.8-55.4-21.8s-40.4 7.8-55.4 21.8zM1007.4 416h-264c-6 0-11.6 3.4-14.4 8.8l-46.4 92.6c-8.2 16.2-24.8 26.6-43 26.6s-34.8-10.2-43-26.6l-82.8-165.6-102 227.8c-7.8 17.4-25.4 28.6-44.4 28.2s-36.2-11.8-43.6-29.6l-63.6-152.6c-2.4-6-8.4-9.8-14.8-9.8h-213.4c-5.2 0-10-0.8-14.6-2.2-11.4 32-17.4 66-17.4 100.6v11.6c0 139.8 101 259 238.8 282 91.2 15.2 184-14.6 249.2-79.8l24-24 24 24c65.2 65.2 158 95 249.2 79.8 137.8-23 238.8-142.2 238.8-282v-11.6c0-33.8-5.6-67-16.6-98.2z" />
<glyph unicode="&#xe65e;" glyph-name="rss" d="M64 768c0 35.4 28.6 64 64 64 459.6 0 832-372.4 832-832 0-35.4-28.6-64-64-64s-64 28.6-64 64c0 388.8-315.2 704-704 704-35.4 0-64 28.6-64 64zM64 64c0 70.692 57.308 128 128 128s128-57.308 128-128v0c0-70.692-57.308-128-128-128s-128 57.308-128 128v0zM128 576c318.2 0 576-257.8 576-576 0-35.4-28.6-64-64-64s-64 28.6-64 64c0 247.4-200.6 448-448 448-35.4 0-64 28.6-64 64s28.6 64 64 64z" />
<glyph unicode="&#xe65f;" glyph-name="qq" d="M931.507 55.111c-23.052-2.786-89.72 105.482-89.72 105.482 0-62.69-32.272-144.494-102.102-203.572 33.684-10.384 109.686-38.334 91.606-68.842-14.632-24.686-251.020-15.762-319.264-8.074-68.244-7.688-304.632-16.612-319.264 8.074-18.090 30.5 57.836 58.428 91.566 68.83-69.84 59.078-102.118 140.89-102.118 203.584 0 0-66.668-108.268-89.718-105.482-10.74 1.3-24.848 59.288 18.694 199.408 20.522 66.048 43.99 120.956 80.288 211.558-6.11 233.798 90.488 429.911 320.524 429.923 227.474-0.012 326.312-192.266 320.528-429.925 36.236-90.446 59.824-145.7 80.288-211.556 43.536-140.12 29.432-198.106 18.692-199.408z" />
<glyph unicode="&#xe660;" glyph-name="github" d="M347.8 101.2c0-4-4.6-7.2-10.4-7.2-6.6-0.6-11.2 2.6-11.2 7.2 0 4 4.6 7.2 10.4 7.2 6 0.6 11.2-2.6 11.2-7.2zM285.6 110.2c-1.4-4 2.6-8.6 8.6-9.8 5.2-2 11.2 0 12.4 4s-2.6 8.6-8.6 10.4c-5.2 1.4-11-0.6-12.4-4.6zM374 113.6c-5.8-1.4-9.8-5.2-9.2-9.8 0.6-4 5.8-6.6 11.8-5.2 5.8 1.4 9.8 5.2 9.2 9.2-0.6 3.8-6 6.4-11.8 5.8zM505.6 880c-277.4 0-489.6-210.6-489.6-488 0-221.8 139.6-411.6 339-478.4 25.6-4.6 34.6 11.2 34.6 24.2 0 12.4-0.6 80.8-0.6 122.8 0 0-140-30-169.4 59.6 0 0-22.8 58.2-55.6 73.2 0 0-45.8 31.4 3.2 30.8 0 0 49.8-4 77.2-51.6 43.8-77.2 117.2-55 145.8-41.8 4.6 32 17.6 54.2 32 67.4-111.8 12.4-224.6 28.6-224.6 221 0 55 15.2 82.6 47.2 117.8-5.2 13-22.2 66.6 5.2 135.8 41.8 13 138-54 138-54 40 11.2 83 17 125.6 17s85.6-5.8 125.6-17c0 0 96.2 67.2 138 54 27.4-69.4 10.4-122.8 5.2-135.8 32-35.4 51.6-63 51.6-117.8 0-193-117.8-208.4-229.6-221 18.4-15.8 34-45.8 34-92.8 0-67.4-0.6-150.8-0.6-167.2 0-13 9.2-28.8 34.6-24.2 200 66.4 335.6 256.2 335.6 478 0 277.4-225 488-502.4 488zM210.4 190.2c-2.6-2-2-6.6 1.4-10.4 3.2-3.2 7.8-4.6 10.4-2 2.6 2 2 6.6-1.4 10.4-3.2 3.2-7.8 4.6-10.4 2zM188.8 206.4c-1.4-2.6 0.6-5.8 4.6-7.8 3.2-2 7.2-1.4 8.6 1.4 1.4 2.6-0.6 5.8-4.6 7.8-4 1.2-7.2 0.6-8.6-1.4zM253.6 135.2c-3.2-2.6-2-8.6 2.6-12.4 4.6-4.6 10.4-5.2 13-2 2.6 2.6 1.4 8.6-2.6 12.4-4.4 4.6-10.4 5.2-13 2zM230.8 164.6c-3.2-2-3.2-7.2 0-11.8s8.6-6.6 11.2-4.6c3.2 2.6 3.2 7.8 0 12.4-2.8 4.6-8 6.6-11.2 4z" />
<glyph unicode="&#xe661;" glyph-name="bilibili" d="M977.2 687.8c33.4-36.2 48.8-79.4 46.6-131.4v-404.8c-0.8-52.8-18.4-96.2-53-130.2-34.4-34-78.2-51.8-131-53.4h-655.76c-52.9 1.6-96.42 19.6-130.56 54.4-34.116 34.8-51.946 80.6-53.48 137.2v396.8c1.534 52 19.364 95.2 53.48 131.4 34.14 32.7 77.66 50.66 130.56 52.2h58.76l-50.7 51.62c-11.5 11.46-17.26 26-17.26 43.58 0 17.6 5.76 32.12 17.26 43.594 11.5 11.47 26.1 17.206 43.7 17.206s32.2-5.736 43.8-17.206l146.6-138.794h176l149 138.794c12.2 11.47 27.2 17.206 44.8 17.206s32.2-5.736 43.8-17.206c11.4-11.474 17.2-25.994 17.2-43.594 0-17.58-5.8-32.12-17.2-43.58l-50.6-51.62h58.6c52.8-1.54 96-19.5 129.4-52.2zM899.6 548.4c-0.8 19.2-7.4 34.8-21.4 47-10.4 12.2-28 18.8-45.4 19.6h-640.7c-19.18-0.8-34.9-7.4-47.16-19.6-12.28-12.2-18.8-27.8-19.56-47v-388.8c0-18.4 6.52-34 19.56-47s28.76-19.6 47.16-19.6h640.7c18.4 0 34 6.6 46.6 19.6s19.4 28.6 20.2 47v388.8zM371 463c12.6-12.6 19.4-28.2 20.2-46.4v-66.6c-0.8-18.4-7.4-33.8-19.6-46.4-12.4-12.6-28-19-47.2-19s-35 6.4-47.2 19c-12.2 12.6-18.8 28-19.6 46.4v66.6c0.8 18.2 7.6 33.8 20.2 46.4s26.4 19.2 46.6 20c18.4-0.8 34-7.4 46.6-20zM754 463c12.6-12.6 19.4-28.2 20.2-46.4v-66.6c-0.8-18.4-7.4-33.8-19.6-46.4s-28-19-47.2-19c-19.2 0-34.8 6.4-47.2 19-14 12.6-18.8 28-19.4 46.4v66.6c0.6 18.2 7.4 33.8 20 46.4s28.2 19.2 46.6 20c18.4-0.8 34-7.4 46.6-20z" />
<glyph unicode="&#xe662;" glyph-name="paper-plane1" d="M996.022 884.795c20.196-13.997 30.794-38.192 26.994-62.387l-127.973-831.828c-2.999-19.396-14.797-36.392-31.993-45.99s-37.792-10.798-55.988-3.199l-239.15 99.379-136.972-148.169c-17.796-19.396-45.791-25.795-70.385-16.197s-40.592 33.393-40.592 59.788v167.165c0 7.998 2.999 15.597 8.398 21.396l335.131 365.724c11.598 12.597 11.198 31.993-0.8 43.991s-31.393 12.797-43.991 1.4l-406.716-361.325-176.563 88.382c-21.196 10.598-34.793 31.793-35.393 55.389s11.798 45.591 32.193 57.388l895.814 511.894c21.396 12.197 47.79 10.998 67.986-2.799z" />
<glyph unicode="&#xe663;" glyph-name="hashtag" d="M426.6 831.2c34.8-5.8 58.4-38.8 52.6-73.6l-19.6-117.6h190.2l23 138.6c5.8 34.8 38.8 58.4 73.6 52.6s58.4-38.8 52.6-73.6l-19.4-117.6h116.4c35.4 0 64-28.6 64-64s-28.6-64-64-64h-137.8l-42.6-256h116.4c35.4 0 64-28.6 64-64s-28.6-64-64-64h-137.8l-23-138.6c-5.8-34.8-38.8-58.4-73.6-52.6s-58.4 38.8-52.6 73.6l19.6 117.4h-190.4l-23-138.6c-5.8-34.8-38.8-58.4-73.6-52.6s-58.4 38.8-52.6 73.6l19.4 117.8h-116.4c-35.4 0-64 28.6-64 64s28.6 64 64 64h137.8l42.6 256h-116.4c-35.4 0-64 28.6-64 64s28.6 64 64 64h137.8l23 138.6c5.8 34.8 38.8 58.4 73.6 52.6zM438.2 512l-42.6-256h190.2l42.6 256h-190.2z" />
<glyph unicode="&#xe664;" glyph-name="hand-heart-fill" d="M398.293 405.248h92.587c106.039 0 192-85.961 192-192v0h-298.709v-42.667h341.333v42.667c-0.132 47.563-14.195 91.815-38.322 128.922l0.562-0.922h123.136c0.011 0 0.025 0 0.039 0 84.514 0 157.549-49.144 192.089-120.415l0.555-1.271c-100.907-133.12-264.277-219.691-448.683-219.691-117.803 0-217.6 25.216-298.667 69.333v396.971c54.441-7.976 102.743-29.654 142.69-61.396l-0.61 0.468zM170.88 511.915c21.816-0.006 39.804-16.383 42.348-37.514l0.020-0.204 0.299-4.949v-384c0-23.564-19.103-42.667-42.667-42.667v0h-85.333c-23.564 0-42.667 19.103-42.667 42.667v0 384c0 23.564 19.103 42.667 42.667 42.667v0h85.333zM582.443 743.339l15.104-15.104 15.061 15.104c19.27 19.112 45.808 30.923 75.105 30.923 58.91 0 106.667-47.756 106.667-106.667 0-29.286-11.802-55.815-30.909-75.091l-165.965-165.965-165.888 165.973c-20.091 19.424-32.564 46.617-32.564 76.724 0 58.91 47.756 106.667 106.667 106.667 30.107 0 57.301-12.473 76.695-32.534l0.029-0.030z" />
<glyph unicode="&#xe665;" glyph-name="plant-fill" d="M895.915 768v-85.333c0-164.949-133.718-298.667-298.667-298.667v0h-42.667v-42.667h213.333v-298.667c0-47.128-38.205-85.333-85.333-85.333h-341.333c-47.128 0-85.333 38.205-85.333 85.333v0 298.667h213.333v128c0 164.949 133.718 298.667 298.667 298.667v0h128zM234.581 810.667c0.077 0 0.168 0 0.259 0 107.402 0 202.429-52.982 260.371-134.235l0.661-0.976c-43.24-56.403-69.291-127.966-69.291-205.613 0-0.179 0-0.359 0-0.538v0.028-42.667h-21.333c-176.731 0-320 143.269-320 320v0 64h149.333z" />
<glyph unicode="&#xe666;" glyph-name="qrcode" d="M85.333 853.333h341.333c23.564 0 42.667-19.103 42.667-42.667v0-341.333c0-23.564-19.103-42.667-42.667-42.667h-341.333c-23.564 0-42.667 19.103-42.667 42.667v0 341.333c0 23.564 19.103 42.667 42.667 42.667v0zM128 768v-256h256v256h-256zM213.333 682.667h85.333v-85.333h-85.333zM597.333 853.333h341.333c23.564 0 42.667-19.103 42.667-42.667v0-341.333c0-23.564-19.103-42.667-42.667-42.667h-341.333c-23.564 0-42.667 19.103-42.667 42.667v0 341.333c0 23.564 19.103 42.667 42.667 42.667v0zM640 768v-256h256v256h-256zM725.333 682.667h85.333v-85.333h-85.333zM85.333 341.333h341.333c23.564 0 42.667-19.103 42.667-42.667v0-341.333c0-23.564-19.103-42.667-42.667-42.667h-341.333c-23.564 0-42.667 19.103-42.667 42.667v0 341.333c0 23.564 19.103 42.667 42.667 42.667v0zM128 256v-256h256v256h-256zM213.333 170.667h85.333v-85.333h-85.333zM981.333 85.333h-170.667v-170.667h-213.333c-23.564 0-42.667 19.103-42.667 42.667v0 128h85.333v-85.333h85.333v256h-85.333v85.333h85.333v-85.333h85.333v-85.333h85.333v170.667h42.667c23.564 0 42.667-19.103 42.667-42.667v0-213.333zM981.333 0v-42.667c0-23.564-19.103-42.667-42.667-42.667h-42.667v85.333h85.333z" />
<glyph unicode="&#xe667;" glyph-name="weibo" d="M814 540.8c15.2 48-26.8 93.6-74.8 83.4-44-9.6-57.6 56.2-14.2 65.6 100.2 21.8 184.6-74.2 153-169.6-13.6-42.4-77.6-21.6-64 20.6zM429.6 2.6c-212.6 0-429.6 102.8-429.6 272.6 0 88.6 56 190.8 152.6 287.4 199.4 199.4 406.4 201.8 347.2 11.4-8-26.2 24.6-11.4 24.6-12 159 67.2 281 33.6 228-102.8-7.4-18.8 2.2-21.8 16.6-26.2 271.4-84.6 69.6-430.4-339.4-430.4zM717 295.2c-10.8 111.4-157 188-326.8 171.4-169.6-17.2-297.6-120.6-286.8-232s157-188 326.8-171.4c169.6 17.2 297.6 120.6 286.8 232zM695.8 825.8c-51.8-11.2-33.6-87.4 16.6-76.6 144.6 30.4 269.6-105.6 223.4-248-14.8-48.4 58.2-74 74.8-24 63.8 199.6-110.2 391.8-314.8 348.6zM538.8 203.8c-34.2-77.6-133.6-120-218.2-92.6-81.6 26.2-116 106.8-80.6 179.4 35.4 70.8 126.2 110.8 206.8 90.2 84-21.6 126.2-100.4 92-177zM366.2 263.8c-25.8 10.8-60-0.6-76-25.8-16.6-25.8-8.6-56 17.2-68 26.2-12 61.6-0.6 78.2 25.8 16 26.2 7.4 56.6-19.4 68zM431.4 290.6c-10.2 3.4-22.8-1.2-28.6-10.8-5.8-10.2-2.8-21.2 7.4-25.8 10.2-4 23.4 0.6 29.2 10.8 5.6 10.4 2.2 21.8-8 25.8z" />
<glyph unicode="&#xe668;" glyph-name="copyright" d="M512-128c282.77 0 512 229.23 512 512s-229.23 512-512 512v0c-282.77 0-512-229.23-512-512s229.23-512 512-512v0zM398.8 270.8c62.4-62.4 163.8-62.4 226.2 0 18.8 18.8 49.2 18.8 67.8 0s18.8-49.2 0-67.8c-100-100-262-100-362 0s-100 262 0 362 262 100 362 0c18.8-18.8 18.8-49.2 0-67.8s-49.2-18.8-67.8 0c-62.4 62.4-163.8 62.4-226.2 0s-62.4-163.8 0-226.2z" />
<glyph unicode="&#xe669;" glyph-name="bolt" d="M762.791 806.785c11.8 27.399 3 59.398-21.199 76.997s-57.198 15.999-79.797-3.6l-511.982-447.984c-19.999-17.599-27.199-45.798-17.799-70.598s33.399-41.599 59.998-41.599h222.992l-153.795-358.787c-11.8-27.399-3-59.398 21.199-76.997s57.198-15.999 79.797 3.6l511.982 447.984c19.999 17.599 27.199 45.798 17.799 70.598s-33.199 41.399-59.998 41.399h-222.992l153.795 358.987z" />
<glyph unicode="&#xe66a;" glyph-name="circle-info" d="M512-128c282.77 0 512 229.23 512 512s-229.23 512-512 512v0c-282.77 0-512-229.23-512-512s229.23-512 512-512v0zM432 224h48v128h-48c-26.6 0-48 21.4-48 48s21.4 48 48 48h96c26.6 0 48-21.4 48-48v-176h16c26.6 0 48-21.4 48-48s-21.4-48-48-48h-160c-26.6 0-48 21.4-48 48s21.4 48 48 48zM512 640c35.346 0 64-28.654 64-64s-28.654-64-64-64v0c-35.346 0-64 28.654-64 64s28.654 64 64 64v0z" />
<glyph unicode="&#xe66b;" glyph-name="triangle-exclamation" d="M512 832c28.4 0 54.6-15 69-39.6l432-736c14.6-24.8 14.6-55.4 0.4-80.2s-40.8-40.2-69.4-40.2h-864c-28.6 0-55.2 15.4-69.4 40.2s-14 55.6 0.4 80.2l432 736c14.4 24.6 40.6 39.6 69 39.6zM512 576c-26.6 0-48-21.4-48-48v-224c0-26.6 21.4-48 48-48s48 21.4 48 48v224c0 26.6-21.4 48-48 48zM576 128c0 35.346-28.654 64-64 64s-64-28.654-64-64v0c0-35.346 28.654-64 64-64s64 28.654 64 64v0z" />
<glyph unicode="&#xe66c;" glyph-name="circle-check" d="M512-128c282.77 0 512 229.23 512 512s-229.23 512-512 512v0c-282.77 0-512-229.23-512-512s229.23-512 512-512v0zM738 478l-256-256c-18.8-18.8-49.2-18.8-67.8 0l-128 128c-18.8 18.8-18.8 49.2 0 67.8s49.2 18.8 67.8 0l94-94 222 222.2c18.8 18.8 49.2 18.8 67.8 0s18.8-49.2 0-67.8z" />
<glyph unicode="&#xe66d;" glyph-name="circle-minus" d="M512-128c282.77 0 512 229.23 512 512s-229.23 512-512 512v0c-282.77 0-512-229.23-512-512s229.23-512 512-512v0zM368 432h288c26.6 0 48-21.4 48-48s-21.4-48-48-48h-288c-26.6 0-48 21.4-48 48s21.4 48 48 48z" />
<glyph unicode="&#xe66e;" glyph-name="circle-plus" d="M512-128c282.77 0 512 229.23 512 512s-229.23 512-512 512v0c-282.77 0-512-229.23-512-512s229.23-512 512-512v0zM464 208v128h-128c-26.6 0-48 21.4-48 48s21.4 48 48 48h128v128c0 26.6 21.4 48 48 48s48-21.4 48-48v-128h128c26.6 0 48-21.4 48-48s-21.4-48-48-48h-128v-128c0-26.6-21.4-48-48-48s-48 21.4-48 48z" />
<glyph unicode="&#xe66f;" glyph-name="circle-dot" d="M512-128c282.77 0 512 229.23 512 512s-229.23 512-512 512v0c-282.77 0-512-229.23-512-512s229.23-512 512-512v0zM512 576c106.039 0 192-85.961 192-192s-85.961-192-192-192v0c-106.039 0-192 85.961-192 192s85.961 192 192 192v0z" />
<glyph unicode="&#xe670;" glyph-name="scissors" d="M512 512l-79 79c9.8 25.2 15 52.4 15 81 0 123.8-100.2 224-224 224s-224-100.2-224-224 100.2-224 224-224c28.6 0 55.8 5.4 81 15l79-79-79-79c-25.2 9.8-52.4 15-81 15-123.8 0-224-100.2-224-224s100.2-224 224-224 224 100.2 224 224c0 28.6-5.4 55.8-15 81l565.4 565.4c14.2 14.2 14.2 37 0 51.2-56.6 56.6-148.2 56.6-204.8 0l-281.6-281.6zM557.2 210.8l236.4-236.4c56.6-56.6 148.2-56.6 204.8 0 14.2 14.2 14.2 37 0 51.2l-313.2 313.2-128-128zM128 672c0 53.019 42.981 96 96 96s96-42.981 96-96v0c0-53.019-42.981-96-96-96s-96 42.981-96 96v0zM224 192c53.019 0 96-42.981 96-96s-42.981-96-96-96v0c-53.019 0-96 42.981-96 96s42.981 96 96 96v0z" />
<glyph unicode="&#xe671;" glyph-name="arrow-down" d="M466.8-45.2c25-25 65.6-25 90.6 0l320 320c25 25 25 65.6 0 90.6s-65.6 25-90.6 0l-210.8-211v613.6c0 35.4-28.6 64-64 64s-64-28.6-64-64v-613.4l-210.8 210.6c-25 25-65.6 25-90.6 0s-25-65.6 0-90.6l320-320z" />
<glyph unicode="&#xe672;" glyph-name="dengpao" d="M513.3 656.1c-73.5 0-142.6-28.6-194.6-80.6s-80.6-121.1-80.6-194.6 28.6-142.6 80.6-194.6c52-52 121.1-80.6 194.6-80.6s142.6 28.6 194.6 80.6c52 52 80.6 121.1 80.6 194.6s-28.6 142.6-80.6 194.6c-52 52-121.1 80.6-194.6 80.6zM513.3 173.8c-114.2 0-207.2 92.9-207.2 207.2s92.9 207.2 207.2 207.2c114.2 0 207.2-92.9 207.2-207.2s-92.9-207.2-207.2-207.2zM637.9 92.4h-249.2c-18.8 0-34-15.2-34-34s15.2-34 34-34h249.2c18.8 0 34 15.2 34 34s-15.2 34-34 34zM588.1 11h-149.5c-18.8 0-34-15.2-34-34s15.2-34 34-34h149.5c18.8 0 34 15.2 34 34s-15.2 34-34 34zM513.3 668.5c18.8 0 34 15.2 34 34v96.5c0 18.8-15.2 34-34 34s-34-15.2-34-34v-96.5c0-18.7 15.2-34 34-34zM701.3 619.1c5.9-4.2 12.7-6.2 19.5-6.2 10.7 0 21.3 5.1 27.9 14.5l55.3 79c10.8 15.4 7 36.6-8.3 47.4-15.4 10.8-36.6 7-47.4-8.3l-55.3-79c-10.8-15.4-7.1-36.6 8.3-47.4zM938 538.4c-6.6 17.6-26.2 26.5-43.8 19.9l-90.4-33.8c-17.6-6.6-26.5-26.2-19.9-43.8 5.1-13.7 18.1-22.1 31.9-22.1 4 0 8 0.7 11.9 2.2l90.4 33.8c17.6 6.6 26.5 26.2 19.9 43.8zM283.4 643.5c6.6-9.4 17.2-14.5 27.9-14.5 6.7 0 13.5 2 19.5 6.2 15.4 10.8 19.1 32 8.3 47.4l-55.3 79c-10.8 15.4-32 19.1-47.4 8.3s-19.1-32-8.3-47.4l55.3-79zM248.1 496.9c6.6 17.6-2.4 37.2-19.9 43.8l-90.4 33.8c-17.6 6.6-37.2-2.4-43.8-19.9-6.6-17.6 2.4-37.2 19.9-43.8l90.4-33.8c3.9-1.5 7.9-2.2 11.9-2.2 13.8 0 26.8 8.4 31.9 22.1z" />
<glyph unicode="&#xe673;" glyph-name="danmu" d="M628.010 425.97h88.851v-71.575h-88.85v71.575zM628.010 534.574h88.851v-69.107h-88.85v69.107zM497.184 425.97h86.382v-71.575h-86.382v71.575zM798.060 830.71h-572.121c-81.839 0-148.204-68.834-148.204-153.746v-576.484c0-84.93 67.835-163.189 151.559-163.189h565.393c83.724 0 151.577 78.277 151.577 163.189v576.484c0.001 84.911-66.344 153.746-148.202 153.746zM541.61 682.675c11.497-21.402 23.032-49.363 34.567-83.922-14.815-4.938-31.287-11.535-49.383-19.744-6.596 29.62-16.453 56.771-29.611 81.454l44.427 22.212zM400.927 309.96l-9.876-116.010c-3.318-32.91-17.718-52.644-43.201-59.26-21.323-5.784-47.686-10.968-74.58-14.46l-3.17-0.336c-3.317 21.412-9.065 41.966-17.284 61.71 37.847-1.658 62.52-1.235 74.056 1.234 11.479 2.47 18.076 13.572 19.735 33.323l9.876 123.42h-118.48c6.558 52.651 9.875 109.413 9.875 170.321h111.092v91.32c-54.32 0-97.125-0.848-128.357-2.469v44.435c26.294-1.668 51.832-2.47 76.505-2.47h98.747c-1.583-23.614-2.486-51.191-2.488-78.979v-0.004c0-26.341 0.83-56.78 2.488-91.34h-113.542l-4.938-88.86h120.93c-3.318-23.050-5.767-46.884-7.388-71.575zM798.325 208.755c-32.947 1.611-60.9 2.469-83.932 2.469h-86.382c0-37.877 0.79-74.045 2.469-108.614h-49.363c1.62 37.884 2.45 74.055 2.45 108.614h-96.257c-26.33-1.67-49.363-3.318-69.116-4.948v46.903c19.753-1.648 42.785-3.307 69.116-4.928h96.258v66.648h-135.747c1.62 41.108 2.469 85.543 2.469 133.286 0 47.715-0.848 88.86-2.47 123.418h180.19c14.816 34.558 27.952 69.918 39.506 106.145 18.058-8.256 37-15.664 56.753-22.223-16.474-18.123-32.080-46.084-46.895-83.922h86.382c-1.658-31.278-2.469-73.234-2.469-125.878 0-52.681 0.81-96.268 2.47-130.827h-135.747v-66.648h83.913c21.374 0 50.174 0.81 86.4 2.47v-41.965zM497.184 534.574h86.382v-69.107h-86.382v69.107z" />
<glyph unicode="&#xe674;" glyph-name="zonglan" d="M869.76 755.2c42.415 0 76.8-34.385 76.8-76.8v0-398.72c0-42.415-34.385-76.8-76.8-76.8v0h-716.16c-42.415 0-76.8 34.385-76.8 76.8v0 398.72c0 42.415 34.385 76.8 76.8 76.8h716.16M869.76 832h-716.16c-84.831 0-153.6-68.769-153.6-153.6v0-398.72c1.084-84.001 69.432-151.68 153.588-151.68 0.004 0 0.008 0 0.013 0h716.159c0.194-0.001 0.423-0.001 0.652-0.001 84.156 0 152.505 67.68 153.587 151.579l0.001 0.102v398.72c0 0 0 0.001 0 0.001 0 84.831-68.769 153.6-153.6 153.6-0.225 0-0.45 0-0.675-0.001h0.035zM812.8-64h-602.88c-21.208 0-38.4 17.192-38.4 38.4s17.192 38.4 38.4 38.4v0h602.88c21.208 0 38.4-17.192 38.4-38.4s-17.192-38.4-38.4-38.4v0zM512-40.32c-21.208 0-38.4 17.192-38.4 38.4v145.92c0 21.208 17.192 38.4 38.4 38.4s38.4-17.192 38.4-38.4v-144c0.031-0.573 0.048-1.245 0.048-1.92 0-21.208-17.192-38.4-38.4-38.4-0.017 0-0.034 0-0.051 0h0.003zM234.88 341.76c-0.060 0-0.131-0.001-0.201-0.001-21.208 0-38.4 17.192-38.4 38.4 0 11.45 5.012 21.73 12.961 28.765l0.041 0.035 190.080 167.040c6.847 6.42 16.083 10.364 26.24 10.364s19.393-3.944 26.261-10.383l-0.021 0.019 140.8-142.080 175.36 171.52c6.928 6.771 16.416 10.949 26.88 10.949 21.246 0 38.469-17.223 38.469-38.469 0-10.782-4.436-20.528-11.582-27.513l-202.887-197.767c-6.921-6.788-16.411-10.977-26.88-10.977s-19.959 4.189-26.886 10.983l0.006-0.006-142.080 140.8-162.56-142.080c-6.734-5.961-15.642-9.601-25.4-9.601-0.070 0-0.141 0-0.211 0.001h0.011z" />
<glyph unicode="&#xe675;" glyph-name="linggan" d="M514.408 666.483c-137.23 0-247.975-111.549-247.975-247.975 0-77.843 36.112-150.070 97.906-197.417 15.247-11.235 36.915-8.828 48.15 6.42s8.828 36.915-6.42 48.15c-44.94 34.508-70.62 86.671-70.62 142.847 0 98.708 80.25 178.96 178.959 178.96s178.959-80.252 178.959-178.96c0-65.003-35.31-125.191-92.289-156.49-0.802-0.802-1.605-0.802-1.605-1.604-0.802-0.803-1.605-0.803-1.605-0.803-12.037-8.827-18.457-14.445-20.062-105.93l-174.947 40.125c-18.458 4.012-36.915-7.223-41.73-25.68-4.013-18.458 7.222-36.916 25.68-41.731l217.48-49.756c2.407-0.802 4.814-0.802 8.024-0.802 8.026 0 15.248 2.408 21.668 7.223 8.025 6.42 12.84 16.852 12.84 27.285v18.458c0 46.545 1.605 69.818 2.408 81.855 70.62 45.743 113.956 124.389 113.956 208.652-0.803 136.427-112.351 247.173-248.777 247.173zM592.251 50.157l-193.405 45.743c-18.457 4.012-36.915-7.223-41.73-25.68-4.013-18.458 7.223-36.916 25.68-41.731l193.405-45.743c2.407-0.802 5.617-0.802 8.025-0.802 16.050 0 29.692 10.432 33.705 26.482 4.815 19.26-7.223 37.718-25.68 41.73zM553.731-37.317l-133.217 31.298c-18.458 4.013-36.915-7.222-41.73-25.68-4.013-18.458 7.222-36.915 25.68-41.73l133.216-31.298c2.408-0.803 5.618-0.803 8.025-0.803 16.050 0 29.693 10.433 33.706 26.483 4.815 18.458-7.223 36.915-25.68 41.73zM574.596 418.508c0-19.26 15.247-34.508 34.507-34.508s34.508 15.248 34.508 34.508c0 81.856-60.188 138.031-146.859 138.031-19.26 0-34.507-15.247-34.507-34.508s15.247-34.507 34.507-34.507c17.656 0 77.844-4.816 77.844-69.016zM514.408 753.154c19.26 0 34.507 15.247 34.507 34.507v51.36c0 19.261-15.247 34.509-34.507 34.509s-34.508-15.248-34.508-34.508v-51.36c0-19.26 15.247-34.508 34.508-34.508zM288.903 709.016l-36.916 36.915c-13.642 13.643-35.31 13.643-48.953 0-13.642-13.643-13.642-35.31 0-48.953l36.916-36.915c13.642-13.643 35.31-13.643 48.953 0 13.642 12.84 13.642 35.31 0 48.953zM170.132 469.066h-51.36c-19.261 0-34.509-15.248-34.509-34.508s15.248-34.508 34.508-34.508h51.36c19.26 0 34.508 15.248 34.508 34.508s-16.050 34.508-34.507 34.508zM824.978 745.129c-13.643 13.642-35.31 13.642-48.953 0l-36.915-36.916c-13.643-13.642-13.643-35.31 0-48.953s35.31-13.642 48.953 0l36.915 36.916c13.643 13.642 13.643 35.31 0 48.953zM910.846 469.066h-52.163c-19.26 0-34.507-15.248-34.507-34.508s15.247-34.508 34.507-34.508h51.36c19.261 0 34.509 15.248 34.509 34.508 0.802 19.26-15.248 34.508-33.706 34.508z" />
<glyph unicode="&#xe676;" glyph-name="sanmingzhi" d="M916.582 512.205c0 1.177-0.153 2.406-0.358 3.584-0.051 0.307-0.154 0.563-0.205 0.87-0.205 0.922-0.512 1.843-0.819 2.714-0.102 0.256-0.205 0.563-0.307 0.819-0.41 0.973-0.922 1.894-1.485 2.816l-61.798 96.666c-2.304 31.13-20.070 57.958-45.722 72.806 18.586 23.552 39.322 31.898 40.858 32.46 7.711 3.051 13.066 10.442 13.066 19.084 0 11.305-9.165 20.47-20.47 20.47-2.372 0-4.65-0.404-6.769-1.146l0.144 0.044c-1.791-0.666-28.466-10.65-53.452-38.963-10.885 8.102-24.595 12.971-39.442 12.971-7.446 0-14.605-1.225-21.289-3.483l0.468 0.137-68.608-22.579c-24.116 55.040-79.104 93.645-143.002 93.645-15.309 0-30.464-2.202-45.005-6.605-32.46-9.779-61.389-30.361-81.408-57.907-2.443-3.331-3.909-7.511-3.909-12.034 0-6.797 3.311-12.82 8.408-16.545l0.058-0.040c3.331-2.431 7.507-3.889 12.023-3.889 6.795 0 12.82 3.301 16.557 8.388l0.040 0.057c14.746 20.378 36.097 35.533 60.007 42.752 10.701 3.226 21.914 4.864 33.229 4.864 52.787 0 97.382-35.738 110.848-84.275 1.154-3.981 2.226-8.949 2.988-14.018l0.084-0.677 0.154-1.126c0.256-1.997 0.46-4.045 0.614-6.042l0.154-1.74c0.153-2.407 0.256-4.813 0.256-7.22 0-63.436-51.61-115.097-115.098-115.097-2.714 0-5.427 0.102-8.090 0.307-0.46 0.051-0.972 0.051-1.433 0.102-31.847 2.714-60.98 18.688-80.538 43.213l-0.665 0.82c-1.639 2.099-3.226 4.249-4.71 6.45-0.103 0.154-0.206 0.359-0.36 0.513-0.94 1.376-2.158 3.297-3.33 5.249l-0.356 0.639c-0.358 0.665-0.768 1.28-1.126 1.945-0.84 1.435-1.949 3.532-3 5.664l-0.328 0.736c-0.219 0.426-0.495 1.033-0.75 1.65l-0.070 0.193c-0.87 1.895-1.689 3.79-2.406 5.735-5.068 13.005-7.936 27.085-7.936 41.881 0 11.316-9.164 20.48-20.48 20.48s-20.48-9.164-20.48-20.48c0-11.93 1.383-23.552 3.943-34.713l-236.032-77.67c-8.039-2.663-13.722-9.217-15.411-17.050-9.012-8.55-14.695-20.583-14.695-33.946v-86.323c0-11.315 9.165-20.48 20.48-20.48s20.48 9.165 20.48 20.48v86.272c0 0.001 0 0.002 0 0.003 0 3.222 2.612 5.834 5.834 5.834 0.001 0 0.002 0 0.003 0h409.6c5.478 0 9.882-4.455 9.882-9.882v-125.85c0-20.428 8.038-39.526 22.579-53.81 11.878-11.674 26.982-18.893 43.213-20.941l1.177-0.154c1.741-0.205 3.533-0.307 5.325-0.358 0.563 0 1.126-0.103 1.74-0.103h1.434c0.256 0 0.461 0.051 0.717 0.051h0.666c0.768 0 1.536 0.103 2.304 0.154 1.587 0.102 3.174 0.154 4.761 0.358 0.67 0.072 1.246 0.162 1.814 0.277l-0.124-0.021c16.026 2.15 30.925 9.268 42.65 20.839 13.772 13.517 21.606 31.334 22.425 50.483h169.575v-130.816h-79.156c-30.668 0-55.603-24.934-55.603-55.603v-43.571c0-7.578-3.020-14.541-8.55-19.764-4.826-4.541-11.344-7.331-18.514-7.331-0.638 0-1.271 0.022-1.898 0.066l0.085-0.005c-13.875 0.922-25.19 13.722-25.19 28.62v41.934c0 30.668-24.934 55.603-55.603 55.603h-20.275c-30.67 0-55.604-24.935-55.604-55.603v-140.954c0-0.563-0.153-1.075-0.153-1.587-0.103-1.536-0.256-3.123-0.615-4.557-0.050-0.205-0.153-0.41-0.204-0.666-0.359-1.484-0.82-2.918-1.434-4.3-0.256-0.615-0.666-1.178-0.973-1.792-0.512-0.922-0.921-1.844-1.536-2.714-1.091-1.529-2.269-2.869-3.568-4.082l-0.016-0.014c-0.153-0.154-0.358-0.256-0.512-0.41-1.124-1.032-2.363-1.977-3.683-2.805l-0.106-0.062c-0.358-0.205-0.716-0.358-1.075-0.563-1.229-0.666-2.457-1.28-3.737-1.792-0.461-0.154-0.922-0.256-1.332-0.41-1.228-0.41-2.508-0.716-3.788-0.921-0.615-0.103-1.28-0.154-1.895-0.205-0.997-0.098-2.156-0.154-3.328-0.154v0c-0.819 0.052-1.638 0.154-2.457 0.256-1.024 0.154-2.048 0.256-3.072 0.512l-1.024 0.308c-11.162 3.481-19.559 14.694-19.559 27.494v54.323c0 11.315-9.165 20.48-20.48 20.48s-20.48-9.165-20.48-20.48v-37.069h-316.262c-7.731 0-13.978 6.298-13.978 13.978v171.52c0 11.315-9.165 20.48-20.48 20.48s-20.48-9.165-20.48-20.48v-171.52c0-30.31 24.679-54.938 54.938-54.938h319.795c8.602-25.446 31.693-43.827 59.494-45.772 0.103 0 0.256-0.052 0.359-0.052 1.382-0.102 2.713-0.102 4.096-0.153h0.973c1.941 0.008 3.848 0.101 5.731 0.275l-0.253-0.019c0.768 0.051 1.485 0.153 2.253 0.256 1.229 0.153 2.509 0.307 3.686 0.512l2.304 0.46c1.733 0.363 2.955 0.664 4.164 0.994l-0.529-0.123c0.666 0.205 1.332 0.358 1.997 0.563 1.434 0.461 2.867 0.922 4.301 1.485 0.358 0.154 0.768 0.256 1.126 0.41 18.407 7.441 32.514 22.234 38.873 40.639l0.142 0.474h269.056c30.31 0 54.937 24.679 54.937 54.938v454.4zM710.861 627.968c5.017 16.026 17.664 28.672 33.69 33.69-1.28-4.199-2.51-8.5-3.533-13.005-0.341-1.401-0.537-3.010-0.537-4.664 0-11.329 9.178-20.514 20.504-20.526h0.001c9.647 0.013 17.73 6.694 19.888 15.68l0.028 0.14c1.434 6.195 3.277 11.879 5.223 17.255 14.897-9.054 24.723-25.153 24.832-43.556v-0.374c0-1.229-0.103-2.458-0.205-3.635-0.051-0.563-0.051-1.127-0.102-1.639-0.103-1.177-0.308-2.304-0.512-3.481-0.103-0.512-0.154-1.075-0.256-1.587-0.356-1.557-0.656-2.672-0.984-3.775l0.114 0.447c-0.154-0.512-0.257-1.024-0.41-1.536-0.359-1.076-0.768-2.15-1.178-3.226-0.205-0.46-0.358-0.973-0.563-1.434-0.608-1.348-1.105-2.339-1.629-3.313l0.144 0.293c-0.256-0.461-0.46-0.973-0.717-1.434-0.512-0.973-1.126-1.894-1.74-2.816-0.308-0.46-0.564-0.922-0.871-1.382-0.614-0.87-1.28-1.741-1.946-2.612-0.358-0.46-0.665-0.921-1.024-1.33-0.705-0.854-1.407-1.622-2.147-2.353l-0.003-0.003c-0.41-0.41-0.768-0.87-1.178-1.28-0.716-0.717-1.536-1.382-2.304-2.1-0.46-0.409-0.87-0.818-1.33-1.228-0.682-0.552-1.466-1.141-2.271-1.702l-0.136-0.090c-0.512-0.358-0.973-0.768-1.536-1.126-0.82-0.564-1.69-1.024-2.509-1.536-0.563-0.359-1.126-0.717-1.69-1.024-0.87-0.461-1.74-0.87-2.662-1.28-0.614-0.308-1.178-0.615-1.792-0.87-0.922-0.36-1.843-0.666-2.765-1.025-0.665-0.205-1.28-0.512-1.894-0.717-0.973-0.307-1.946-0.512-2.919-0.768-0.665-0.153-1.28-0.358-1.945-0.512-1.075-0.204-2.15-0.358-3.226-0.512-0.614-0.102-1.229-0.204-1.843-0.256-1.557-0.156-3.374-0.249-5.211-0.256h-0.011c-28.212 0-51.2 22.99-51.2 51.2 0.046 5.46 0.903 10.703 2.458 15.636l-0.103-0.378zM810.752 536.064c0.46 0.307 0.87 0.614 1.331 0.922 1.895 1.33 3.738 2.662 5.53 4.147 0.358 0.307 0.717 0.563 1.075 0.819 1.997 1.69 3.942 3.43 5.786 5.274l1.177 1.177c1.639 1.639 3.175 3.38 4.66 5.171l0.767 0.922c1.524 1.836 3.071 3.888 4.524 6.011l0.186 0.287c0.308 0.46 0.615 0.921 0.922 1.433l1.536 2.304 20.48-32.051h-53.862c2.342 1.274 4.265 2.462 6.124 3.737l-0.236-0.153zM703.795 685.926c-0.665-0.512-1.28-1.075-1.945-1.587-0.359-0.307-0.768-0.614-1.127-0.921-1.945-1.639-3.84-3.328-5.632-5.12-0.358-0.359-0.665-0.717-1.024-1.024-1.843-1.895-3.635-3.79-5.273-5.837-0.11-0.122-0.212-0.256-0.301-0.398l-0.007-0.012c-1.638-1.997-3.123-4.045-4.608-6.144l-0.716-1.024c-1.493-2.194-3.055-4.788-4.482-7.467l-0.228-0.469c-0.993-1.791-2.125-4.113-3.157-6.488l-0.223-0.577c-0.154-0.308-0.256-0.666-0.41-0.973-0.713-1.624-1.615-4.015-2.435-6.445l-0.227-0.775c-0.102-0.255-0.154-0.511-0.256-0.767-0.745-2.33-1.542-5.443-2.191-8.61l-0.113-0.658c-0.426-2.012-0.858-4.716-1.182-7.453l-0.047-0.483c-0.051-0.46-0.102-0.921-0.102-1.433-0.254-2.554-0.403-5.529-0.41-8.538v-0.012c0-2.817 0.154-5.633 0.41-8.397 0.051-0.717 0.153-1.434 0.205-2.15 0.307-2.56 0.665-5.070 1.177-7.527 0.051-0.205 0.051-0.41 0.103-0.615 0.862-4.040 1.762-7.335 2.816-10.56l-0.206 0.73c0.919-2.876 1.736-5.065 2.632-7.212l-0.225 0.607c0.154-0.307 0.256-0.665 0.41-1.024 1.024-2.406 2.201-4.761 3.43-7.065 0.307-0.615 0.666-1.178 0.973-1.741 1.075-1.946 2.253-3.84 3.482-5.735 0.256-0.41 0.512-0.768 0.768-1.177 1.649-2.385 3.179-4.403 4.787-6.355l-0.128 0.16c0.41-0.512 0.819-0.973 1.229-1.485 1.485-1.752 2.907-3.32 4.377-4.839l-0.025 0.026c0.358-0.41 0.716-0.768 1.126-1.178 1.786-1.745 3.654-3.451 5.578-5.092l0.156-0.13c0.461-0.41 0.973-0.768 1.434-1.126 1.69-1.332 3.43-2.663 5.171-3.892 0.512-0.358 0.973-0.716 1.485-1.024 1.483-1.011 3.422-2.23 5.398-3.391l0.542-0.295c-0.666 0-1.28-0.102-1.946-0.154-0.82-0.050-1.639-0.102-2.458-0.204-0.87-0.103-1.74-0.256-2.56-0.41s-1.587-0.256-2.406-0.41c-0.82-0.204-1.639-0.41-2.51-0.665-0.767-0.205-1.586-0.41-2.303-0.666-0.82-0.256-1.587-0.563-2.355-0.87s-1.485-0.563-2.253-0.87c-0.768-0.359-1.536-0.717-2.253-1.076-0.717-0.358-1.434-0.665-2.1-1.075-0.716-0.41-1.433-0.87-2.15-1.28-0.665-0.41-1.33-0.82-1.996-1.28s-1.332-0.973-1.997-1.485c-0.615-0.46-1.229-0.921-1.843-1.433-0.666-0.564-1.23-1.127-1.844-1.69-0.563-0.512-1.126-1.024-1.69-1.587-0.614-0.615-1.177-1.28-1.74-1.895l-1.536-1.69c-0.563-0.665-1.024-1.382-1.536-2.047-0.46-0.615-0.922-1.178-1.331-1.843-0.461-0.717-0.922-1.485-1.383-2.253-0.358-0.666-0.768-1.28-1.126-1.946-0.41-0.768-0.768-1.638-1.178-2.457-0.307-0.666-0.665-1.28-0.921-1.997-0.359-0.87-0.666-1.741-0.973-2.663-0.256-0.665-0.512-1.33-0.717-1.996-0.307-0.973-0.512-1.946-0.768-2.919-0.153-0.665-0.358-1.28-0.46-1.945-0.205-1.076-0.359-2.202-0.513-3.328-0.050-0.564-0.204-1.127-0.256-1.69-0.155-1.54-0.248-3.339-0.256-5.158v-124.020c0-18.278-13.107-33.587-29.9-35.942-0.205-0.051-0.461-0.051-0.666-0.102-0.717-0.103-1.382-0.103-2.1-0.154-0.46 0-0.92-0.051-1.382-0.051-3.39 0.052-6.645 0.535-9.742 1.395l0.27-0.064c-0.358 0.102-0.716 0.205-1.024 0.307-0.163 0.064-0.486 0.169-0.813 0.266l-0.159 0.041c-13.568 4.916-23.348 18.484-23.348 34.304v124.314c0 1.638-0.102 3.277-0.256 4.864-0.050 0.512-0.153 1.024-0.204 1.587-0.154 1.075-0.308 2.15-0.512 3.175-0.103 0.614-0.256 1.177-0.41 1.792-0.205 0.972-0.46 1.894-0.717 2.816-0.191 0.738-0.383 1.335-0.605 1.918l0.042-0.126c-0.383 1.184-0.713 2.066-1.072 2.933l0.099-0.271c-0.256 0.563-0.46 1.178-0.717 1.74-0.41 0.871-0.819 1.793-1.28 2.612l-0.768 1.536c-0.563 0.973-1.126 1.946-1.74 2.867-0.205 0.359-0.41 0.717-0.666 1.024-0.82 1.229-1.74 2.407-2.662 3.584l1.228 0.768c2.048 1.229 4.096 2.458 6.093 3.789 0.563 0.358 1.178 0.717 1.741 1.126 2.509 1.69 4.966 3.43 7.373 5.223 0.563 0.41 1.126 0.87 1.69 1.331 2.148 1.666 3.931 3.124 5.679 4.622l-0.201-0.168 2.099 1.792c1.974 1.748 3.741 3.386 5.472 5.061l-0.045-0.043c0.41 0.41 0.87 0.82 1.28 1.229 2.15 2.099 4.199 4.3 6.195 6.553 0.512 0.564 0.973 1.127 1.485 1.69 1.536 1.74 3.021 3.533 4.506 5.376l1.69 2.15c1.241 1.585 2.737 3.603 4.19 5.653l0.366 0.543c0.256 0.41 0.563 0.768 0.82 1.177 1.347 1.941 2.954 4.447 4.486 7.002l0.377 0.678c0.41 0.666 0.768 1.383 1.178 2.048 0.811 1.313 1.934 3.306 3.009 5.328l0.371 0.765c0.409 0.82 0.818 1.587 1.228 2.406 0.909 1.701 2.059 4.125 3.128 6.591l0.302 0.782c0.154 0.359 0.308 0.666 0.461 0.973 0.765 1.658 1.889 4.485 2.941 7.346l0.387 1.204c0.256 0.768 0.563 1.588 0.82 2.407 0.767 2.201 1.433 4.454 2.099 6.707 0.845 2.638 1.816 6.367 2.641 10.151l0.175 0.959 0.153 0.666c0.433 1.935 0.989 5.083 1.463 8.257l0.124 1.010c0.103 0.87 0.205 1.792 0.359 2.663 0.307 2.355 0.563 4.71 0.717 7.116 0.050 0.922 0.153 1.895 0.204 2.816 0.199 2.797 0.312 6.061 0.312 9.352 0 3.79-0.15 7.546-0.446 11.26l0.031-0.49-0.154 2.253c-0.256 3.481-0.665 6.912-1.126 10.291l41.78 13.926zM369.51 575.898c0.103-0.205 0.256-0.359 0.359-0.564 2.315-4.283 4.368-7.696 6.549-11.018l-0.354 0.574 1.075-1.69c2.642-3.968 5.050-7.271 7.579-10.475l-0.257 0.337c0.256-0.307 0.46-0.614 0.717-0.921 5.791-7.225 11.893-13.669 18.484-19.578l0.152-0.134h-166.502l132.198 43.469zM706.253 393.318v88.218c0 5.478 4.454 9.882 9.881 9.882h159.488v-98.1h-169.37zM861.645 43.93h-265.37v122.010c0.001 8.087 6.556 14.642 14.643 14.642h20.276c8.087 0 14.643-6.556 14.643-14.643v0-41.933c0-36.659 27.904-67.174 63.539-69.478 18.995-1.229 37.12 5.222 50.995 18.227 13.67 12.8 21.504 30.925 21.504 49.613v43.571c0 8.087 6.556 14.643 14.643 14.643v0h79.156v-122.675c-0.055-7.715-6.31-13.952-14.028-13.977h-0.002zM109.62 272.845c11.314 0 20.48 9.165 20.48 20.48v23.757c0 11.315-9.166 20.48-20.48 20.48s-20.48-9.165-20.48-20.48v-23.757c0-11.315 9.164-20.48 20.48-20.48zM480.717 135.065c11.315 0 20.48 9.165 20.48 20.48v10.395c0 30.669-24.935 55.603-55.603 55.603h-261.888c-11.316 0-20.48-9.164-20.48-20.48s9.164-20.48 20.48-20.48h261.888c8.087 0 14.643-6.556 14.643-14.643v0-10.393c0-11.316 9.165-20.48 20.48-20.48zM250.47 393.319h-67.174c-11.315 0-20.48-9.164-20.48-20.48s9.165-20.48 20.48-20.48h67.174c3.533 0 6.4-2.867 6.4-6.4v-2.048c0-22.374 8.807-43.315 24.781-59.033 15.616-15.309 36.096-23.706 57.959-23.706h1.536c44.748 0.82 81.152 38.861 81.152 84.736 0 3.533 2.867 6.4 6.4 6.4h78.49c11.314 0 20.48 9.165 20.48 20.48s-9.166 20.48-20.48 20.48h-78.542c-26.112 0-47.36-21.248-47.36-47.36 0-23.757-18.38-43.417-40.96-43.827-11.264-0.205-21.964 4.045-30.054 11.93s-12.493 18.483-12.493 29.798v2.048c0 26.266-21.248 47.462-47.309 47.462zM479.386 613.787c11.244 0.084 20.327 9.219 20.327 20.474 0 0.056 0 0.111-0.001 0.167v-0.009c-0.256 29.184 18.842 36.147 22.784 37.274 8.912 2.353 15.376 10.343 15.376 19.842 0 1.717-0.211 3.384-0.609 4.978l0.030-0.141c-2.224 9.044-10.263 15.646-19.845 15.646-1.734 0-3.418-0.216-5.026-0.624l0.141 0.030c-18.79-4.557-54.22-26.573-53.811-77.312 0.102-11.264 9.267-20.326 20.48-20.326h0.154z" />
<glyph unicode="&#xe677;" glyph-name="keyboard" horiz-adv-x="1152" d="M128 768c-70.6 0-128-57.4-128-128v-512c0-70.6 57.4-128 128-128h896c70.6 0 128 57.4 128 128v512c0 70.6-57.4 128-128 128h-896zM160 640h64c17.6 0 32-14.4 32-32v-64c0-17.6-14.4-32-32-32h-64c-17.6 0-32 14.4-32 32v64c0 17.6 14.4 32 32 32zM128 416c0 17.6 14.4 32 32 32h64c17.6 0 32-14.4 32-32v-64c0-17.6-14.4-32-32-32h-64c-17.6 0-32 14.4-32 32v64zM160 256h64c17.6 0 32-14.4 32-32v-64c0-17.6-14.4-32-32-32h-64c-17.6 0-32 14.4-32 32v64c0 17.6 14.4 32 32 32zM320 608c0 17.6 14.4 32 32 32h64c17.6 0 32-14.4 32-32v-64c0-17.6-14.4-32-32-32h-64c-17.6 0-32 14.4-32 32v64zM352 448h64c17.6 0 32-14.4 32-32v-64c0-17.6-14.4-32-32-32h-64c-17.6 0-32 14.4-32 32v64c0 17.6 14.4 32 32 32zM320 224c0 17.6 14.4 32 32 32h448c17.6 0 32-14.4 32-32v-64c0-17.6-14.4-32-32-32h-448c-17.6 0-32 14.4-32 32v64zM544 640h64c17.6 0 32-14.4 32-32v-64c0-17.6-14.4-32-32-32h-64c-17.6 0-32 14.4-32 32v64c0 17.6 14.4 32 32 32zM512 416c0 17.6 14.4 32 32 32h64c17.6 0 32-14.4 32-32v-64c0-17.6-14.4-32-32-32h-64c-17.6 0-32 14.4-32 32v64zM736 640h64c17.6 0 32-14.4 32-32v-64c0-17.6-14.4-32-32-32h-64c-17.6 0-32 14.4-32 32v64c0 17.6 14.4 32 32 32zM704 416c0 17.6 14.4 32 32 32h64c17.6 0 32-14.4 32-32v-64c0-17.6-14.4-32-32-32h-64c-17.6 0-32 14.4-32 32v64zM928 640h64c17.6 0 32-14.4 32-32v-64c0-17.6-14.4-32-32-32h-64c-17.6 0-32 14.4-32 32v64c0 17.6 14.4 32 32 32zM896 416c0 17.6 14.4 32 32 32h64c17.6 0 32-14.4 32-32v-64c0-17.6-14.4-32-32-32h-64c-17.6 0-32 14.4-32 32v64zM928 256h64c17.6 0 32-14.4 32-32v-64c0-17.6-14.4-32-32-32h-64c-17.6 0-32 14.4-32 32v64c0 17.6 14.4 32 32 32z" />
<glyph unicode="&#xe678;" glyph-name="tiktok" d="M960 476.18c-0.299-0.001-0.652-0.001-1.005-0.001-91.768 0-176.664 29.423-245.768 79.349l1.233-0.848v-357.44c-0.068-179.496-145.594-324.981-325.1-324.981-179.548 0-325.1 145.552-325.1 325.1s145.552 325.1 325.1 325.1c15.745 0 31.228-1.119 46.375-3.283l-1.735 0.203v-179.78c-13.386 4.362-28.789 6.877-44.78 6.877-82.423 0-149.24-66.817-149.24-149.24s66.817-149.24 149.24-149.24c82.423 0 149.24 66.817 149.24 149.24 0 0.001 0 0.002 0 0.004v0 698.76h176c-0.005-0.592-0.008-1.292-0.008-1.993 0-14.966 1.356-29.615 3.953-43.83l-0.225 1.484c12.99-67.689 52.414-124.345 106.88-159.865l0.94-0.575c37.691-25.239 84.063-40.28 133.949-40.28 0.018 0 0.036 0 0.054 0h-0.003z" />
<glyph unicode="&#xe679;" glyph-name="tongxunlu07" d="M921.6 776.533h-718.507c-32.427 0-59.733-22.187-66.56-52.907h735.573c37.547 0 68.267-30.72 68.267-68.267v-559.787c29.013 8.533 49.493 34.133 49.493 64.853v547.84c0 37.547-30.72 68.267-68.267 68.267zM820.907 675.84h-718.507c-37.547 0-68.267-30.72-68.267-68.267v-547.84c0-37.547 30.72-68.267 68.267-68.267h718.507c37.547 0 68.267 30.72 68.267 68.267v547.84c0 37.547-30.72 68.267-68.267 68.267zM281.6 517.12c42.667 0 76.8-34.133 76.8-76.8s-34.133-76.8-76.8-76.8-76.8 34.133-76.8 76.8c-1.707 40.96 34.133 76.8 76.8 76.8zM368.64 150.187h-174.080c-47.787 0-87.040 39.253-87.040 87.040s39.253 87.040 87.040 87.040h174.080c47.787 0 87.040-39.253 87.040-87.040s-39.253-87.040-87.040-87.040zM754.347 170.667h-128c-18.773 0-34.133 15.36-34.133 34.133s15.36 34.133 34.133 34.133h128c18.773 0 34.133-15.36 34.133-34.133-1.707-18.773-15.36-34.133-34.133-34.133zM754.347 300.373h-186.027c-18.773 0-34.133 15.36-34.133 34.133s15.36 34.133 34.133 34.133h184.32c18.773 0 34.133-15.36 34.133-34.133 0-20.48-13.653-34.133-32.427-34.133zM754.347 428.373h-256c-18.773 0-34.133 15.36-34.133 34.133s15.36 34.133 34.133 34.133h256c18.773 0 34.133-15.36 34.133-34.133s-15.36-34.133-34.133-34.133z" />
<glyph unicode="&#xe67a;" glyph-name="creative-commons-nd-line" d="M341.333 512h341.333v-85.333h-341.333v85.333zM341.333 256v85.333h341.333v-85.333h-341.333zM85.333 384c0 235.648 191.019 426.667 426.667 426.667s426.667-191.019 426.667-426.667-191.019-426.667-426.667-426.667-426.667 191.019-426.667 426.667zM512 725.333c-188.513 0-341.333-152.82-341.333-341.333s152.82-341.333 341.333-341.333v0c188.513 0 341.333 152.82 341.333 341.333s-152.82 341.333-341.333 341.333v0z" />
<glyph unicode="&#xe67b;" glyph-name="creative-commons-by-line" d="M597.333 597.333c0-47.128-38.205-85.333-85.333-85.333s-85.333 38.205-85.333 85.333v0c0 47.128 38.205 85.333 85.333 85.333s85.333-38.205 85.333-85.333v0zM640 426.667c0 23.564-19.103 42.667-42.667 42.667v0h-170.667c-23.564 0-42.667-19.103-42.667-42.667v0-170.667h64v-170.667h128v170.667h64v170.667zM512 810.667c-235.648 0-426.667-191.019-426.667-426.667s191.019-426.667 426.667-426.667 426.667 191.019 426.667 426.667-191.019 426.667-426.667 426.667zM170.667 384c0 188.513 152.82 341.333 341.333 341.333s341.333-152.82 341.333-341.333v0c0-188.513-152.82-341.333-341.333-341.333s-341.333 152.82-341.333 341.333v0z" />
<glyph unicode="&#xe67c;" glyph-name="creative-commons-nc-line" d="M512 810.667c-235.648 0-426.667-191.019-426.667-426.667s191.019-426.667 426.667-426.667 426.667 191.019 426.667 426.667-191.019 426.667-426.667 426.667zM302.677 653.653c57.188 44.766 130.143 71.785 209.409 71.785 188.513 0 341.333-152.82 341.333-341.333 0-79.255-27.012-152.202-72.332-210.135l0.565 0.75-91.904 91.904c9 15.309 14.315 33.722 14.315 53.376 0 58.91-47.756 106.667-106.667 106.667-0.023 0-0.045 0-0.068 0h-170.663c-11.794 0-21.355 9.561-21.355 21.355s9.561 21.355 21.355 21.355h234.667v85.291h-106.667v85.333h-85.333v-85.333h-42.667c-7.765 0-15.317-0.853-22.613-2.389l-101.376 101.376zM242.347 593.323l91.947-91.989c-8.984-15.299-14.291-33.697-14.291-53.333 0-58.909 47.755-106.665 106.664-106.667h170.667c11.794 0 21.355-9.561 21.355-21.355s-9.561-21.355-21.355-21.355h-234.667v-85.333h106.667v-85.333h85.333v85.333h42.667c7.765 0 15.317 0.853 22.613 2.389l101.376-101.376c-57.203-44.805-130.189-71.85-209.493-71.85-188.513 0-341.333 152.82-341.333 341.333 0 79.303 27.045 152.29 72.414 210.24l-0.564-0.748z" />
<glyph unicode="&#xe67d;" glyph-name="copyright-line" d="M694.955 493.739c-37.932 62.561-105.658 103.724-182.997 103.724-117.797 0-213.291-95.493-213.291-213.291 0-0.060 0-0.121 0-0.181v0.009c0-0.051 0-0.112 0-0.172 0-117.797 95.493-213.291 213.291-213.291 77.34 0 145.066 41.163 182.463 102.776l0.534 0.948-73.173 43.861c-22.778-37.474-63.384-62.123-109.746-62.123-70.692 0-128 57.308-128 128 0 70.68 57.287 127.98 127.963 128h0.002c46.635 0 87.467-24.917 109.781-62.165l73.173 43.947zM938.667 384c0 235.52-191.147 426.667-426.667 426.667s-426.667-191.147-426.667-426.667 191.147-426.667 426.667-426.667 426.667 191.147 426.667 426.667zM170.667 384c0 188.587 152.747 341.333 341.333 341.333s341.333-152.747 341.333-341.333-152.747-341.333-341.333-341.333-341.333 152.747-341.333 341.333z" />
<glyph unicode="&#xe67e;" glyph-name="font" d="M572 790.4c-9.4 25-33.4 41.6-60 41.6s-50.6-16.6-60-41.6l-272.4-726.4h-51.6c-35.4 0-64-28.6-64-64s28.6-64 64-64h192c35.4 0 64 28.6 64 64s-28.6 64-64 64h-3.6l36 96h319.2l36-96h-3.6c-35.4 0-64-28.6-64-64s28.6-64 64-64h192c35.4 0 64 28.6 64 64s-28.6 64-64 64h-51.6l-272.4 726.4zM623.6 288h-223.2l111.6 297.8 111.6-297.8z" />
<glyph unicode="&#xe67f;" glyph-name="stopwatch" d="M416 896c-35.4 0-64-28.6-64-64s28.6-64 64-64h32v-68.8c-199.4-30.8-352-203.2-352-411.2 0-229.8 186.2-416 416-416s416 186.2 416 416c0 83.6-24.6 161.4-67 226.4l48.2 48.2c25 25 25 65.6 0 90.6s-65.6 25-90.6 0l-43.2-43.2c-56.2 46-124.4 77.6-199.4 89.2v68.8h32c35.4 0 64 28.6 64 64s-28.6 64-64 64h-192zM560 512v-256c0-26.6-21.4-48-48-48s-48 21.4-48 48v256c0 26.6 21.4 48 48 48s48-21.4 48-48z" />
<glyph unicode="&#xe680;" glyph-name="file-lines" d="M256 896c-70.6 0-128-57.4-128-128v-768c0-70.6 57.4-128 128-128h512c70.6 0 128 57.4 128 128v576h-256c-35.4 0-64 28.6-64 64v256h-320zM640 896v-256h256l-256 256zM352 384h320c17.6 0 32-14.4 32-32s-14.4-32-32-32h-320c-17.6 0-32 14.4-32 32s14.4 32 32 32zM352 256h320c17.6 0 32-14.4 32-32s-14.4-32-32-32h-320c-17.6 0-32 14.4-32 32s14.4 32 32 32zM352 128h320c17.6 0 32-14.4 32-32s-14.4-32-32-32h-320c-17.6 0-32 14.4-32 32s14.4 32 32 32z" />
<glyph unicode="&#xe681;" glyph-name="square-poll-vertical" d="M192 832c-70.6 0-128-57.4-128-128v-640c0-70.6 57.4-128 128-128h640c70.6 0 128 57.4 128 128v640c0 70.6-57.4 128-128 128h-640zM320 448c35.4 0 64-28.6 64-64v-192c0-35.4-28.6-64-64-64s-64 28.6-64 64v192c0 35.4 28.6 64 64 64zM448 576c0 35.4 28.6 64 64 64s64-28.6 64-64v-384c0-35.4-28.6-64-64-64s-64 28.6-64 64v384zM704 320c35.4 0 64-28.6 64-64v-64c0-35.4-28.6-64-64-64s-64 28.6-64 64v64c0 35.4 28.6 64 64 64z" />
<glyph unicode="&#xe682;" glyph-name="universal-access" d="M0 384c0 282.77 229.23 512 512 512s512-229.23 512-512v0c0-282.77-229.23-512-512-512s-512 229.23-512 512v0zM323 556.2c-24.4 10.4-52.6-0.8-63-25.2s0.8-52.6 25.2-63l23.8-10.2c34.6-14.8 70.4-25.8 107.2-32.6v-100.2c0-8.6-1.4-17.2-4.2-25.2l-57.4-172.2c-8.4-25.2 5.2-52.4 30.4-60.8s52.4 5.2 60.8 30.4l48.8 146.4c2.6 7.6 9.6 12.8 17.6 12.8s15.2-5.2 17.6-12.8l48.8-146.4c8.4-25.2 35.6-38.8 60.8-30.4s38.8 35.6 30.4 60.8l-57.4 172.2c-2.8 8.2-4.2 16.6-4.2 25.2v100c36.8 7 72.6 17.8 107.2 32.6l23.8 10.2c24.4 10.4 35.6 38.6 25.2 63s-38.6 35.6-63 25.2l-24-10c-52.2-22.4-108.4-34-165.4-34s-113 11.6-165.4 34l-23.8 10.2zM512 576c44.183 0 80 35.817 80 80s-35.817 80-80 80v0c-44.183 0-80-35.817-80-80s35.817-80 80-80v0z" />
<glyph unicode="&#xe683;" glyph-name="hourglass-start" d="M191.9 896c-35.4 0-64-28.6-64-64s28.6-64 64-64v-22c0-84.8 33.8-166.2 93.8-226.2l135.6-135.8-135.6-135.8c-60-60-93.8-141.4-93.8-226.2v-22c-35.4 0-64-28.6-64-64s28.6-64 64-64h640c35.4 0 64 28.6 64 64s-28.6 64-64 64v22c0 84.8-33.8 166.2-93.8 226.2l-135.6 135.8 135.8 135.8c60 60 93.8 141.4 93.8 226.2v22c35.4 0 64 28.6 64 64s-28.6 64-64 64h-640.2zM703.9 22v-22h-384v22c0 51 20.2 99.8 56.2 135.8l135.8 135.6 135.8-135.8c36-36 56.2-84.8 56.2-135.8z" />
</font>
</defs>
</svg>
